<?xml version="1.0" encoding="utf-8" standalone="no"?>
<svg width="279" height="156" viewBox="0 0 279 156" fill="none" xmlns="http://www.w3.org/2000/svg">
<path d="M35 13H34C32.8954 13 32 13.8954 32 15V18C32 19.1046 32.8954 20 34 20H35C36.1046 20 37 19.1046 37 18V15C37 13.8954 36.1046 13 35 13Z" stroke="white" stroke-width="1.5" stroke-linecap="round" stroke-linejoin="round"/>
<path d="M46 13H45C43.8954 13 43 13.8954 43 15V18C43 19.1046 43.8954 20 45 20H46C47.1046 20 48 19.1046 48 18V15C48 13.8954 47.1046 13 46 13Z" stroke="white" stroke-width="1.5" stroke-linecap="round" stroke-linejoin="round"/>
<path d="M32 15V12C32 9.87827 32.8428 7.84344 34.3431 6.34315C35.8434 4.84285 37.8783 4 40 4C42.1217 4 44.1565 4.84285 45.6568 6.34315C47.1571 7.84344 48 9.87827 48 12V15" stroke="white" stroke-width="1.5" stroke-linecap="round" stroke-linejoin="round"/>
<path opacity="0.7" d="M66.296 16.006H69.796V17H65.022V7.13H66.296V16.006ZM71.4283 7.06C71.4283 6.82667 71.5076 6.64 71.6663 6.5C71.825 6.35067 72.035 6.276 72.2963 6.276C72.5576 6.276 72.7676 6.35067 72.9263 6.5C73.085 6.64 73.1643 6.82667 73.1643 7.06C73.1643 7.29333 73.085 7.48467 72.9263 7.634C72.7676 7.774 72.5576 7.844 72.2963 7.844C72.035 7.844 71.825 7.774 71.6663 7.634C71.5076 7.48467 71.4283 7.29333 71.4283 7.06ZM72.9263 9.314V17H71.6523V9.314H72.9263ZM77.9426 9.216C78.8106 9.216 79.5059 9.44467 80.0286 9.902C80.5606 10.35 80.8826 10.9567 80.9946 11.722H79.7766C79.7206 11.2647 79.5292 10.8913 79.2026 10.602C78.8852 10.3033 78.4559 10.154 77.9146 10.154C77.4572 10.154 77.0979 10.266 76.8366 10.49C76.5846 10.7047 76.4586 10.9987 76.4586 11.372C76.4586 11.652 76.5426 11.8807 76.7106 12.058C76.8879 12.226 77.1026 12.3567 77.3546 12.45C77.6159 12.534 77.9706 12.6273 78.4186 12.73C78.9879 12.8607 79.4452 12.996 79.7906 13.136C80.1452 13.2667 80.4439 13.4813 80.6866 13.78C80.9386 14.0787 81.0646 14.48 81.0646 14.984C81.0646 15.6093 80.8266 16.118 80.3506 16.51C79.8839 16.902 79.2586 17.098 78.4746 17.098C77.5599 17.098 76.8132 16.8787 76.2346 16.44C75.6559 16.0013 75.3152 15.39 75.2126 14.606H76.4446C76.4912 15.0727 76.6919 15.4507 77.0466 15.74C77.4106 16.0293 77.8866 16.174 78.4746 16.174C78.9132 16.174 79.2539 16.062 79.4966 15.838C79.7486 15.614 79.8746 15.32 79.8746 14.956C79.8746 14.6573 79.7859 14.4193 79.6086 14.242C79.4312 14.0647 79.2119 13.9293 78.9506 13.836C78.6892 13.7427 78.3299 13.6447 77.8726 13.542C77.3032 13.4113 76.8459 13.2807 76.5006 13.15C76.1646 13.0193 75.8752 12.814 75.6326 12.534C75.3992 12.2447 75.2826 11.8573 75.2826 11.372C75.2826 10.728 75.5206 10.21 75.9966 9.818C76.4726 9.41667 77.1212 9.216 77.9426 9.216ZM86.995 15.88V17H86.043C85.259 17 84.671 16.8133 84.279 16.44C83.8963 16.0667 83.705 15.4413 83.705 14.564V10.42H82.557V9.314H83.705V7.396H84.993V9.314H86.981V10.42H84.993V14.592C84.993 15.0867 85.0817 15.4273 85.259 15.614C85.4457 15.7913 85.763 15.88 86.211 15.88H86.995ZM96.1797 12.73C96.1797 13.0007 96.161 13.234 96.1237 13.43H89.9777C90.0057 14.3073 90.253 14.9653 90.7197 15.404C91.1957 15.8427 91.7743 16.062 92.4557 16.062C93.0717 16.062 93.585 15.908 93.9957 15.6C94.4157 15.2827 94.6723 14.8627 94.7657 14.34H96.1237C96.0303 14.872 95.8203 15.348 95.4937 15.768C95.1763 16.188 94.761 16.5147 94.2477 16.748C93.7343 16.9813 93.1557 17.098 92.5117 17.098C91.7743 17.098 91.121 16.9393 90.5517 16.622C89.9823 16.3047 89.5343 15.852 89.2077 15.264C88.8903 14.6667 88.7317 13.9667 88.7317 13.164C88.7317 12.3613 88.8903 11.6613 89.2077 11.064C89.5343 10.4667 89.9823 10.0093 90.5517 9.692C91.121 9.37467 91.7743 9.216 92.5117 9.216C93.2583 9.216 93.907 9.37467 94.4577 9.692C95.0177 10.0093 95.4423 10.434 95.7317 10.966C96.0303 11.498 96.1797 12.086 96.1797 12.73ZM94.8917 12.814C94.9197 12.2447 94.8263 11.7687 94.6117 11.386C94.397 11.0033 94.103 10.7187 93.7297 10.532C93.3563 10.3453 92.9503 10.252 92.5117 10.252C91.8117 10.252 91.2237 10.4713 90.7477 10.91C90.2717 11.3393 90.015 11.974 89.9777 12.814H94.8917ZM102.452 9.188C103.348 9.188 104.071 9.47733 104.622 10.056C105.173 10.6253 105.448 11.4513 105.448 12.534V17H104.174V12.646C104.174 11.8807 103.978 11.2927 103.586 10.882C103.194 10.4713 102.662 10.266 101.99 10.266C101.29 10.266 100.73 10.4947 100.31 10.952C99.89 11.4 99.68 12.058 99.68 12.926V17H98.406V9.314H99.68V11.134C99.876 10.5087 100.221 10.028 100.716 9.692C101.22 9.356 101.799 9.188 102.452 9.188ZM115.649 15.88V17H114.697C113.913 17 113.325 16.8133 112.933 16.44C112.55 16.0667 112.359 15.4413 112.359 14.564V10.42H111.211V9.314H112.359V7.396H113.647V9.314H115.635V10.42H113.647V14.592C113.647 15.0867 113.736 15.4273 113.913 15.614C114.1 15.7913 114.417 15.88 114.865 15.88H115.649ZM121.25 9.216C121.987 9.216 122.645 9.37467 123.224 9.692C123.812 10.0093 124.269 10.4667 124.596 11.064C124.932 11.6613 125.1 12.3613 125.1 13.164C125.1 13.9667 124.932 14.6667 124.596 15.264C124.269 15.852 123.812 16.3047 123.224 16.622C122.645 16.9393 121.987 17.098 121.25 17.098C120.512 17.098 119.85 16.9393 119.262 16.622C118.683 16.3047 118.226 15.852 117.89 15.264C117.554 14.6667 117.386 13.9667 117.386 13.164C117.386 12.3613 117.554 11.6613 117.89 11.064C118.226 10.4667 118.683 10.0093 119.262 9.692C119.85 9.37467 120.512 9.216 121.25 9.216ZM121.25 10.336C120.792 10.336 120.368 10.4387 119.976 10.644C119.593 10.8493 119.28 11.1667 119.038 11.596C118.804 12.016 118.688 12.5387 118.688 13.164C118.688 13.78 118.804 14.3027 119.038 14.732C119.28 15.152 119.593 15.4647 119.976 15.67C120.368 15.8753 120.792 15.978 121.25 15.978C121.707 15.978 122.127 15.8753 122.51 15.67C122.902 15.4647 123.214 15.152 123.448 14.732C123.69 14.3027 123.812 13.78 123.812 13.164C123.812 12.5387 123.69 12.016 123.448 11.596C123.214 11.1667 122.902 10.8493 122.51 10.644C122.127 10.4387 121.707 10.336 121.25 10.336ZM137.121 14.718H132.781L131.955 17H130.583L134.237 7.312H135.679L139.319 17H137.947L137.121 14.718ZM136.757 13.724L134.951 8.74L133.145 13.724H136.757ZM142.442 6.64V17H141.168V6.64H142.442ZM146.325 6.64V17H145.051V6.64H146.325ZM159.196 14.438C159.196 14.9047 159.084 15.3387 158.86 15.74C158.636 16.1413 158.295 16.468 157.838 16.72C157.381 16.972 156.816 17.098 156.144 17.098C155.491 17.098 154.907 16.9813 154.394 16.748C153.89 16.5053 153.484 16.1787 153.176 15.768C152.877 15.348 152.705 14.872 152.658 14.34H154.016C154.044 14.62 154.137 14.8953 154.296 15.166C154.464 15.4273 154.697 15.6467 154.996 15.824C155.304 15.992 155.673 16.076 156.102 16.076C156.662 16.076 157.091 15.9267 157.39 15.628C157.689 15.3293 157.838 14.9467 157.838 14.48C157.838 14.0787 157.731 13.752 157.516 13.5C157.311 13.248 157.054 13.052 156.746 12.912C156.438 12.7627 156.018 12.604 155.486 12.436C154.861 12.2307 154.357 12.0393 153.974 11.862C153.601 11.6753 153.279 11.4 153.008 11.036C152.747 10.672 152.616 10.1913 152.616 9.594C152.616 9.08067 152.737 8.628 152.98 8.236C153.232 7.844 153.587 7.54067 154.044 7.326C154.511 7.11133 155.057 7.004 155.682 7.004C156.653 7.004 157.423 7.242 157.992 7.718C158.561 8.18467 158.893 8.782 158.986 9.51H157.614C157.539 9.118 157.339 8.77267 157.012 8.474C156.685 8.17533 156.242 8.026 155.682 8.026C155.169 8.026 154.758 8.16133 154.45 8.432C154.142 8.69333 153.988 9.06667 153.988 9.552C153.988 9.93467 154.086 10.2473 154.282 10.49C154.487 10.7233 154.739 10.91 155.038 11.05C155.337 11.1807 155.747 11.33 156.27 11.498C156.905 11.7033 157.413 11.8993 157.796 12.086C158.188 12.2727 158.519 12.5573 158.79 12.94C159.061 13.3133 159.196 13.8127 159.196 14.438ZM168.539 12.73C168.539 13.0007 168.52 13.234 168.483 13.43H162.337C162.365 14.3073 162.612 14.9653 163.079 15.404C163.555 15.8427 164.134 16.062 164.815 16.062C165.431 16.062 165.944 15.908 166.355 15.6C166.775 15.2827 167.032 14.8627 167.125 14.34H168.483C168.39 14.872 168.18 15.348 167.853 15.768C167.536 16.188 167.12 16.5147 166.607 16.748C166.094 16.9813 165.515 17.098 164.871 17.098C164.134 17.098 163.48 16.9393 162.911 16.622C162.342 16.3047 161.894 15.852 161.567 15.264C161.25 14.6667 161.091 13.9667 161.091 13.164C161.091 12.3613 161.25 11.6613 161.567 11.064C161.894 10.4667 162.342 10.0093 162.911 9.692C163.48 9.37467 164.134 9.216 164.871 9.216C165.618 9.216 166.266 9.37467 166.817 9.692C167.377 10.0093 167.802 10.434 168.091 10.966C168.39 11.498 168.539 12.086 168.539 12.73ZM167.251 12.814C167.279 12.2447 167.186 11.7687 166.971 11.386C166.756 11.0033 166.462 10.7187 166.089 10.532C165.716 10.3453 165.31 10.252 164.871 10.252C164.171 10.252 163.583 10.4713 163.107 10.91C162.631 11.3393 162.374 11.974 162.337 12.814H167.251ZM173.173 9.216C174.041 9.216 174.737 9.44467 175.259 9.902C175.791 10.35 176.113 10.9567 176.225 11.722H175.007C174.951 11.2647 174.76 10.8913 174.433 10.602C174.116 10.3033 173.687 10.154 173.145 10.154C172.688 10.154 172.329 10.266 172.067 10.49C171.815 10.7047 171.689 10.9987 171.689 11.372C171.689 11.652 171.773 11.8807 171.941 12.058C172.119 12.226 172.333 12.3567 172.585 12.45C172.847 12.534 173.201 12.6273 173.649 12.73C174.219 12.8607 174.676 12.996 175.021 13.136C175.376 13.2667 175.675 13.4813 175.917 13.78C176.169 14.0787 176.295 14.48 176.295 14.984C176.295 15.6093 176.057 16.118 175.581 16.51C175.115 16.902 174.489 17.098 173.705 17.098C172.791 17.098 172.044 16.8787 171.465 16.44C170.887 16.0013 170.546 15.39 170.443 14.606H171.675C171.722 15.0727 171.923 15.4507 172.277 15.74C172.641 16.0293 173.117 16.174 173.705 16.174C174.144 16.174 174.485 16.062 174.727 15.838C174.979 15.614 175.105 15.32 175.105 14.956C175.105 14.6573 175.017 14.4193 174.839 14.242C174.662 14.0647 174.443 13.9293 174.181 13.836C173.92 13.7427 173.561 13.6447 173.103 13.542C172.534 13.4113 172.077 13.2807 171.731 13.15C171.395 13.0193 171.106 12.814 170.863 12.534C170.63 12.2447 170.513 11.8573 170.513 11.372C170.513 10.728 170.751 10.21 171.227 9.818C171.703 9.41667 172.352 9.216 173.173 9.216ZM180.966 9.216C181.834 9.216 182.529 9.44467 183.052 9.902C183.584 10.35 183.906 10.9567 184.018 11.722H182.8C182.744 11.2647 182.552 10.8913 182.226 10.602C181.908 10.3033 181.479 10.154 180.938 10.154C180.48 10.154 180.121 10.266 179.86 10.49C179.608 10.7047 179.482 10.9987 179.482 11.372C179.482 11.652 179.566 11.8807 179.734 12.058C179.911 12.226 180.126 12.3567 180.378 12.45C180.639 12.534 180.994 12.6273 181.442 12.73C182.011 12.8607 182.468 12.996 182.814 13.136C183.168 13.2667 183.467 13.4813 183.71 13.78C183.962 14.0787 184.088 14.48 184.088 14.984C184.088 15.6093 183.85 16.118 183.374 16.51C182.907 16.902 182.282 17.098 181.498 17.098C180.583 17.098 179.836 16.8787 179.258 16.44C178.679 16.0013 178.338 15.39 178.236 14.606H179.468C179.514 15.0727 179.715 15.4507 180.07 15.74C180.434 16.0293 180.91 16.174 181.498 16.174C181.936 16.174 182.277 16.062 182.52 15.838C182.772 15.614 182.898 15.32 182.898 14.956C182.898 14.6573 182.809 14.4193 182.632 14.242C182.454 14.0647 182.235 13.9293 181.974 13.836C181.712 13.7427 181.353 13.6447 180.896 13.542C180.326 13.4113 179.869 13.2807 179.524 13.15C179.188 13.0193 178.898 12.814 178.656 12.534C178.422 12.2447 178.306 11.8573 178.306 11.372C178.306 10.728 178.544 10.21 179.02 9.818C179.496 9.41667 180.144 9.216 180.966 9.216ZM186.126 7.06C186.126 6.82667 186.205 6.64 186.364 6.5C186.523 6.35067 186.733 6.276 186.994 6.276C187.255 6.276 187.465 6.35067 187.624 6.5C187.783 6.64 187.862 6.82667 187.862 7.06C187.862 7.29333 187.783 7.48467 187.624 7.634C187.465 7.774 187.255 7.844 186.994 7.844C186.733 7.844 186.523 7.774 186.364 7.634C186.205 7.48467 186.126 7.29333 186.126 7.06ZM187.624 9.314V17H186.35V9.314H187.624ZM193.718 9.216C194.456 9.216 195.114 9.37467 195.692 9.692C196.28 10.0093 196.738 10.4667 197.064 11.064C197.4 11.6613 197.568 12.3613 197.568 13.164C197.568 13.9667 197.4 14.6667 197.064 15.264C196.738 15.852 196.28 16.3047 195.692 16.622C195.114 16.9393 194.456 17.098 193.718 17.098C192.981 17.098 192.318 16.9393 191.73 16.622C191.152 16.3047 190.694 15.852 190.358 15.264C190.022 14.6667 189.854 13.9667 189.854 13.164C189.854 12.3613 190.022 11.6613 190.358 11.064C190.694 10.4667 191.152 10.0093 191.73 9.692C192.318 9.37467 192.981 9.216 193.718 9.216ZM193.718 10.336C193.261 10.336 192.836 10.4387 192.444 10.644C192.062 10.8493 191.749 11.1667 191.506 11.596C191.273 12.016 191.156 12.5387 191.156 13.164C191.156 13.78 191.273 14.3027 191.506 14.732C191.749 15.152 192.062 15.4647 192.444 15.67C192.836 15.8753 193.261 15.978 193.718 15.978C194.176 15.978 194.596 15.8753 194.978 15.67C195.37 15.4647 195.683 15.152 195.916 14.732C196.159 14.3027 196.28 13.78 196.28 13.164C196.28 12.5387 196.159 12.016 195.916 11.596C195.683 11.1667 195.37 10.8493 194.978 10.644C194.596 10.4387 194.176 10.336 193.718 10.336ZM203.834 9.188C204.73 9.188 205.454 9.47733 206.004 10.056C206.555 10.6253 206.83 11.4513 206.83 12.534V17H205.556V12.646C205.556 11.8807 205.36 11.2927 204.968 10.882C204.576 10.4713 204.044 10.266 203.372 10.266C202.672 10.266 202.112 10.4947 201.692 10.952C201.272 11.4 201.062 12.058 201.062 12.926V17H199.788V9.314H201.062V11.134C201.258 10.5087 201.604 10.028 202.098 9.692C202.602 9.356 203.181 9.188 203.834 9.188ZM211.752 9.216C212.62 9.216 213.316 9.44467 213.838 9.902C214.37 10.35 214.692 10.9567 214.804 11.722H213.586C213.53 11.2647 213.339 10.8913 213.012 10.602C212.695 10.3033 212.266 10.154 211.724 10.154C211.267 10.154 210.908 10.266 210.646 10.49C210.394 10.7047 210.268 10.9987 210.268 11.372C210.268 11.652 210.352 11.8807 210.52 12.058C210.698 12.226 210.912 12.3567 211.164 12.45C211.426 12.534 211.78 12.6273 212.228 12.73C212.798 12.8607 213.255 12.996 213.6 13.136C213.955 13.2667 214.254 13.4813 214.496 13.78C214.748 14.0787 214.874 14.48 214.874 14.984C214.874 15.6093 214.636 16.118 214.16 16.51C213.694 16.902 213.068 17.098 212.284 17.098C211.37 17.098 210.623 16.8787 210.044 16.44C209.466 16.0013 209.125 15.39 209.022 14.606H210.254C210.301 15.0727 210.502 15.4507 210.856 15.74C211.22 16.0293 211.696 16.174 212.284 16.174C212.723 16.174 213.064 16.062 213.306 15.838C213.558 15.614 213.684 15.32 213.684 14.956C213.684 14.6573 213.596 14.4193 213.418 14.242C213.241 14.0647 213.022 13.9293 212.76 13.836C212.499 13.7427 212.14 13.6447 211.682 13.542C211.113 13.4113 210.656 13.2807 210.31 13.15C209.974 13.0193 209.685 12.814 209.442 12.534C209.209 12.2447 209.092 11.8573 209.092 11.372C209.092 10.728 209.33 10.21 209.806 9.818C210.282 9.41667 210.931 9.216 211.752 9.216Z" fill="white"/>
<path d="M3.33336 12L6.66669 15.3333L13.3334 8.66663" stroke="#20DF92" stroke-width="2.75" stroke-linecap="round" stroke-linejoin="round"/>
<path opacity="0.7" d="M70.804 57.718H66.464L65.638 60H64.266L67.92 50.312H69.362L73.002 60H71.63L70.804 57.718ZM70.44 56.724L68.634 51.74L66.828 56.724H70.44ZM78.2535 52.216C79.2335 52.216 80.0455 52.4773 80.6895 53C81.3335 53.5227 81.7302 54.2227 81.8795 55.1H80.5355C80.4422 54.5493 80.1855 54.12 79.7655 53.812C79.3549 53.4947 78.8415 53.336 78.2255 53.336C77.7775 53.336 77.3669 53.4387 76.9935 53.644C76.6295 53.8493 76.3355 54.1667 76.1115 54.596C75.8875 55.016 75.7755 55.5387 75.7755 56.164C75.7755 56.7893 75.8875 57.3167 76.1115 57.746C76.3355 58.166 76.6295 58.4787 76.9935 58.684C77.3669 58.8893 77.7775 58.992 78.2255 58.992C78.8415 58.992 79.3549 58.8333 79.7655 58.516C80.1855 58.1987 80.4422 57.7647 80.5355 57.214H81.8795C81.7302 58.1007 81.3335 58.8053 80.6895 59.328C80.0455 59.8413 79.2335 60.098 78.2535 60.098C77.5162 60.098 76.8629 59.9393 76.2935 59.622C75.7242 59.3047 75.2762 58.852 74.9495 58.264C74.6322 57.6667 74.4735 56.9667 74.4735 56.164C74.4735 55.3613 74.6322 54.6613 74.9495 54.064C75.2762 53.4667 75.7242 53.0093 76.2935 52.692C76.8629 52.3747 77.5162 52.216 78.2535 52.216ZM87.5088 52.216C88.4888 52.216 89.3008 52.4773 89.9448 53C90.5888 53.5227 90.9855 54.2227 91.1348 55.1H89.7908C89.6975 54.5493 89.4408 54.12 89.0208 53.812C88.6102 53.4947 88.0968 53.336 87.4808 53.336C87.0328 53.336 86.6222 53.4387 86.2488 53.644C85.8848 53.8493 85.5908 54.1667 85.3668 54.596C85.1428 55.016 85.0308 55.5387 85.0308 56.164C85.0308 56.7893 85.1428 57.3167 85.3668 57.746C85.5908 58.166 85.8848 58.4787 86.2488 58.684C86.6222 58.8893 87.0328 58.992 87.4808 58.992C88.0968 58.992 88.6102 58.8333 89.0208 58.516C89.4408 58.1987 89.6975 57.7647 89.7908 57.214H91.1348C90.9855 58.1007 90.5888 58.8053 89.9448 59.328C89.3008 59.8413 88.4888 60.098 87.5088 60.098C86.7715 60.098 86.1182 59.9393 85.5488 59.622C84.9795 59.3047 84.5315 58.852 84.2048 58.264C83.8875 57.6667 83.7288 56.9667 83.7288 56.164C83.7288 55.3613 83.8875 54.6613 84.2048 54.064C84.5315 53.4667 84.9795 53.0093 85.5488 52.692C86.1182 52.3747 86.7715 52.216 87.5088 52.216ZM100.432 55.73C100.432 56.0007 100.413 56.234 100.376 56.43H94.2302C94.2582 57.3073 94.5055 57.9653 94.9722 58.404C95.4482 58.8427 96.0268 59.062 96.7082 59.062C97.3242 59.062 97.8375 58.908 98.2482 58.6C98.6682 58.2827 98.9248 57.8627 99.0182 57.34H100.376C100.283 57.872 100.073 58.348 99.7462 58.768C99.4288 59.188 99.0135 59.5147 98.5002 59.748C97.9868 59.9813 97.4082 60.098 96.7642 60.098C96.0268 60.098 95.3735 59.9393 94.8042 59.622C94.2348 59.3047 93.7868 58.852 93.4602 58.264C93.1428 57.6667 92.9842 56.9667 92.9842 56.164C92.9842 55.3613 93.1428 54.6613 93.4602 54.064C93.7868 53.4667 94.2348 53.0093 94.8042 52.692C95.3735 52.3747 96.0268 52.216 96.7642 52.216C97.5108 52.216 98.1595 52.3747 98.7102 52.692C99.2702 53.0093 99.6948 53.434 99.9842 53.966C100.283 54.498 100.432 55.086 100.432 55.73ZM99.1442 55.814C99.1722 55.2447 99.0788 54.7687 98.8642 54.386C98.6495 54.0033 98.3555 53.7187 97.9822 53.532C97.6088 53.3453 97.2028 53.252 96.7642 53.252C96.0642 53.252 95.4762 53.4713 95.0002 53.91C94.5242 54.3393 94.2675 54.974 94.2302 55.814H99.1442ZM105.066 52.216C105.934 52.216 106.63 52.4447 107.152 52.902C107.684 53.35 108.006 53.9567 108.118 54.722H106.9C106.844 54.2647 106.653 53.8913 106.326 53.602C106.009 53.3033 105.58 53.154 105.038 53.154C104.581 53.154 104.222 53.266 103.96 53.49C103.708 53.7047 103.582 53.9987 103.582 54.372C103.582 54.652 103.666 54.8807 103.834 55.058C104.012 55.226 104.226 55.3567 104.478 55.45C104.74 55.534 105.094 55.6273 105.542 55.73C106.112 55.8607 106.569 55.996 106.914 56.136C107.269 56.2667 107.568 56.4813 107.81 56.78C108.062 57.0787 108.188 57.48 108.188 57.984C108.188 58.6093 107.95 59.118 107.474 59.51C107.008 59.902 106.382 60.098 105.598 60.098C104.684 60.098 103.937 59.8787 103.358 59.44C102.78 59.0013 102.439 58.39 102.336 57.606H103.568C103.615 58.0727 103.816 58.4507 104.17 58.74C104.534 59.0293 105.01 59.174 105.598 59.174C106.037 59.174 106.378 59.062 106.62 58.838C106.872 58.614 106.998 58.32 106.998 57.956C106.998 57.6573 106.91 57.4193 106.732 57.242C106.555 57.0647 106.336 56.9293 106.074 56.836C105.813 56.7427 105.454 56.6447 104.996 56.542C104.427 56.4113 103.97 56.2807 103.624 56.15C103.288 56.0193 102.999 55.814 102.756 55.534C102.523 55.2447 102.406 54.8573 102.406 54.372C102.406 53.728 102.644 53.21 103.12 52.818C103.596 52.4167 104.245 52.216 105.066 52.216ZM112.859 52.216C113.727 52.216 114.422 52.4447 114.945 52.902C115.477 53.35 115.799 53.9567 115.911 54.722H114.693C114.637 54.2647 114.446 53.8913 114.119 53.602C113.802 53.3033 113.372 53.154 112.831 53.154C112.374 53.154 112.014 53.266 111.753 53.49C111.501 53.7047 111.375 53.9987 111.375 54.372C111.375 54.652 111.459 54.8807 111.627 55.058C111.804 55.226 112.019 55.3567 112.271 55.45C112.532 55.534 112.887 55.6273 113.335 55.73C113.904 55.8607 114.362 55.996 114.707 56.136C115.062 56.2667 115.36 56.4813 115.603 56.78C115.855 57.0787 115.981 57.48 115.981 57.984C115.981 58.6093 115.743 59.118 115.267 59.51C114.8 59.902 114.175 60.098 113.391 60.098C112.476 60.098 111.73 59.8787 111.151 59.44C110.572 59.0013 110.232 58.39 110.129 57.606H111.361C111.408 58.0727 111.608 58.4507 111.963 58.74C112.327 59.0293 112.803 59.174 113.391 59.174C113.83 59.174 114.17 59.062 114.413 58.838C114.665 58.614 114.791 58.32 114.791 57.956C114.791 57.6573 114.702 57.4193 114.525 57.242C114.348 57.0647 114.128 56.9293 113.867 56.836C113.606 56.7427 113.246 56.6447 112.789 56.542C112.22 56.4113 111.762 56.2807 111.417 56.15C111.081 56.0193 110.792 55.814 110.549 55.534C110.316 55.2447 110.199 54.8573 110.199 54.372C110.199 53.728 110.437 53.21 110.913 52.818C111.389 52.4167 112.038 52.216 112.859 52.216ZM123.536 56.024V60H122.262V50.13H125.398C126.528 50.13 127.372 50.396 127.932 50.928C128.492 51.4507 128.772 52.1693 128.772 53.084C128.772 54.008 128.483 54.7313 127.904 55.254C127.326 55.7673 126.49 56.024 125.398 56.024H123.536ZM125.286 54.96C126.061 54.96 126.616 54.7967 126.952 54.47C127.298 54.1433 127.47 53.6813 127.47 53.084C127.47 52.468 127.298 52.0013 126.952 51.684C126.616 51.3573 126.061 51.194 125.286 51.194H123.536V54.96H125.286ZM137.89 55.73C137.89 56.0007 137.872 56.234 137.834 56.43H131.688C131.716 57.3073 131.964 57.9653 132.43 58.404C132.906 58.8427 133.485 59.062 134.166 59.062C134.782 59.062 135.296 58.908 135.706 58.6C136.126 58.2827 136.383 57.8627 136.476 57.34H137.834C137.741 57.872 137.531 58.348 137.204 58.768C136.887 59.188 136.472 59.5147 135.958 59.748C135.445 59.9813 134.866 60.098 134.222 60.098C133.485 60.098 132.832 59.9393 132.262 59.622C131.693 59.3047 131.245 58.852 130.918 58.264C130.601 57.6667 130.442 56.9667 130.442 56.164C130.442 55.3613 130.601 54.6613 130.918 54.064C131.245 53.4667 131.693 53.0093 132.262 52.692C132.832 52.3747 133.485 52.216 134.222 52.216C134.969 52.216 135.618 52.3747 136.168 52.692C136.728 53.0093 137.153 53.434 137.442 53.966C137.741 54.498 137.89 55.086 137.89 55.73ZM136.602 55.814C136.63 55.2447 136.537 54.7687 136.322 54.386C136.108 54.0033 135.814 53.7187 135.44 53.532C135.067 53.3453 134.661 53.252 134.222 53.252C133.522 53.252 132.934 53.4713 132.458 53.91C131.982 54.3393 131.726 54.974 131.688 55.814H136.602ZM141.391 53.868C141.643 53.336 142.011 52.9253 142.497 52.636C142.982 52.3373 143.561 52.188 144.233 52.188V53.574H143.841C143.122 53.574 142.534 53.7607 142.077 54.134C141.619 54.498 141.391 55.1047 141.391 55.954V60H140.117V52.314H141.391V53.868ZM149.452 50.494C148.77 50.4847 148.294 50.6013 148.024 50.844C147.762 51.0867 147.632 51.5067 147.632 52.104V52.314H149.452V53.434H147.632V60H146.358V53.434H145.252V52.314H146.358V52.006C146.358 50.1673 147.389 49.29 149.452 49.374V50.494ZM154.881 52.216C155.618 52.216 156.276 52.3747 156.855 52.692C157.443 53.0093 157.9 53.4667 158.227 54.064C158.563 54.6613 158.731 55.3613 158.731 56.164C158.731 56.9667 158.563 57.6667 158.227 58.264C157.9 58.852 157.443 59.3047 156.855 59.622C156.276 59.9393 155.618 60.098 154.881 60.098C154.144 60.098 153.481 59.9393 152.893 59.622C152.314 59.3047 151.857 58.852 151.521 58.264C151.185 57.6667 151.017 56.9667 151.017 56.164C151.017 55.3613 151.185 54.6613 151.521 54.064C151.857 53.4667 152.314 53.0093 152.893 52.692C153.481 52.3747 154.144 52.216 154.881 52.216ZM154.881 53.336C154.424 53.336 153.999 53.4387 153.607 53.644C153.224 53.8493 152.912 54.1667 152.669 54.596C152.436 55.016 152.319 55.5387 152.319 56.164C152.319 56.78 152.436 57.3027 152.669 57.732C152.912 58.152 153.224 58.4647 153.607 58.67C153.999 58.8753 154.424 58.978 154.881 58.978C155.338 58.978 155.758 58.8753 156.141 58.67C156.533 58.4647 156.846 58.152 157.079 57.732C157.322 57.3027 157.443 56.78 157.443 56.164C157.443 55.5387 157.322 55.016 157.079 54.596C156.846 54.1667 156.533 53.8493 156.141 53.644C155.758 53.4387 155.338 53.336 154.881 53.336ZM162.225 53.868C162.477 53.336 162.846 52.9253 163.331 52.636C163.816 52.3373 164.395 52.188 165.067 52.188V53.574H164.675C163.956 53.574 163.368 53.7607 162.911 54.134C162.454 54.498 162.225 55.1047 162.225 55.954V60H160.951V52.314H162.225V53.868ZM176.334 52.188C177.23 52.188 177.949 52.4773 178.49 53.056C179.041 53.6253 179.316 54.4513 179.316 55.534V60H178.042V55.646C178.042 54.89 177.855 54.3113 177.482 53.91C177.118 53.5087 176.614 53.308 175.97 53.308C175.298 53.308 174.757 53.532 174.346 53.98C173.945 54.4187 173.744 55.0673 173.744 55.926V60H172.47V55.646C172.47 54.89 172.283 54.3113 171.91 53.91C171.537 53.5087 171.033 53.308 170.398 53.308C169.717 53.308 169.171 53.532 168.76 53.98C168.359 54.4187 168.158 55.0673 168.158 55.926V60H166.884V52.314H168.158V54.064C168.345 53.4573 168.676 52.9953 169.152 52.678C169.637 52.3513 170.193 52.188 170.818 52.188C171.471 52.188 172.036 52.356 172.512 52.692C172.997 53.0187 173.343 53.504 173.548 54.148C173.763 53.5227 174.122 53.042 174.626 52.706C175.13 52.3607 175.699 52.188 176.334 52.188ZM185.004 52.216C185.751 52.216 186.381 52.4027 186.894 52.776C187.417 53.1493 187.781 53.6487 187.986 54.274V52.314H189.26V60H187.986V58.04C187.781 58.6653 187.417 59.1647 186.894 59.538C186.381 59.9113 185.751 60.098 185.004 60.098C184.323 60.098 183.716 59.9393 183.184 59.622C182.652 59.3047 182.232 58.852 181.924 58.264C181.626 57.6667 181.476 56.9667 181.476 56.164C181.476 55.3613 181.626 54.6613 181.924 54.064C182.232 53.4667 182.652 53.0093 183.184 52.692C183.716 52.3747 184.323 52.216 185.004 52.216ZM185.368 53.35C184.584 53.35 183.954 53.602 183.478 54.106C183.012 54.6007 182.778 55.2867 182.778 56.164C182.778 57.0413 183.012 57.732 183.478 58.236C183.954 58.7307 184.584 58.978 185.368 58.978C185.872 58.978 186.32 58.8613 186.712 58.628C187.114 58.3947 187.426 58.068 187.65 57.648C187.874 57.2187 187.986 56.724 187.986 56.164C187.986 55.604 187.874 55.1093 187.65 54.68C187.426 54.2507 187.114 53.924 186.712 53.7C186.32 53.4667 185.872 53.35 185.368 53.35ZM195.894 52.188C196.79 52.188 197.513 52.4773 198.064 53.056C198.614 53.6253 198.89 54.4513 198.89 55.534V60H197.616V55.646C197.616 54.8807 197.42 54.2927 197.028 53.882C196.636 53.4713 196.104 53.266 195.432 53.266C194.732 53.266 194.172 53.4947 193.752 53.952C193.332 54.4 193.122 55.058 193.122 55.926V60H191.848V52.314H193.122V54.134C193.318 53.5087 193.663 53.028 194.158 52.692C194.662 52.356 195.24 52.188 195.894 52.188ZM204.806 52.216C205.786 52.216 206.598 52.4773 207.242 53C207.886 53.5227 208.283 54.2227 208.432 55.1H207.088C206.995 54.5493 206.738 54.12 206.318 53.812C205.907 53.4947 205.394 53.336 204.778 53.336C204.33 53.336 203.919 53.4387 203.546 53.644C203.182 53.8493 202.888 54.1667 202.664 54.596C202.44 55.016 202.328 55.5387 202.328 56.164C202.328 56.7893 202.44 57.3167 202.664 57.746C202.888 58.166 203.182 58.4787 203.546 58.684C203.919 58.8893 204.33 58.992 204.778 58.992C205.394 58.992 205.907 58.8333 206.318 58.516C206.738 58.1987 206.995 57.7647 207.088 57.214H208.432C208.283 58.1007 207.886 58.8053 207.242 59.328C206.598 59.8413 205.786 60.098 204.806 60.098C204.069 60.098 203.415 59.9393 202.846 59.622C202.277 59.3047 201.829 58.852 201.502 58.264C201.185 57.6667 201.026 56.9667 201.026 56.164C201.026 55.3613 201.185 54.6613 201.502 54.064C201.829 53.4667 202.277 53.0093 202.846 52.692C203.415 52.3747 204.069 52.216 204.806 52.216ZM217.729 55.73C217.729 56.0007 217.711 56.234 217.673 56.43H211.527C211.555 57.3073 211.803 57.9653 212.269 58.404C212.745 58.8427 213.324 59.062 214.005 59.062C214.621 59.062 215.135 58.908 215.545 58.6C215.965 58.2827 216.222 57.8627 216.315 57.34H217.673C217.58 57.872 217.37 58.348 217.043 58.768C216.726 59.188 216.311 59.5147 215.797 59.748C215.284 59.9813 214.705 60.098 214.061 60.098C213.324 60.098 212.671 59.9393 212.101 59.622C211.532 59.3047 211.084 58.852 210.757 58.264C210.44 57.6667 210.281 56.9667 210.281 56.164C210.281 55.3613 210.44 54.6613 210.757 54.064C211.084 53.4667 211.532 53.0093 212.101 52.692C212.671 52.3747 213.324 52.216 214.061 52.216C214.808 52.216 215.457 52.3747 216.007 52.692C216.567 53.0093 216.992 53.434 217.281 53.966C217.58 54.498 217.729 55.086 217.729 55.73ZM216.441 55.814C216.469 55.2447 216.376 54.7687 216.161 54.386C215.947 54.0033 215.653 53.7187 215.279 53.532C214.906 53.3453 214.5 53.252 214.061 53.252C213.361 53.252 212.773 53.4713 212.297 53.91C211.821 54.3393 211.565 54.974 211.527 55.814H216.441ZM228.776 50.13V57.466C228.776 58.278 228.543 58.922 228.076 59.398C227.619 59.8647 226.975 60.098 226.144 60.098C225.248 60.098 224.544 59.8367 224.03 59.314C223.526 58.782 223.274 58.04 223.274 57.088H224.548C224.548 57.6573 224.674 58.11 224.926 58.446C225.178 58.7727 225.566 58.936 226.088 58.936C226.583 58.936 226.942 58.796 227.166 58.516C227.39 58.236 227.502 57.886 227.502 57.466V50.13H228.776ZM234.802 52.216C235.539 52.216 236.197 52.3747 236.776 52.692C237.364 53.0093 237.821 53.4667 238.148 54.064C238.484 54.6613 238.652 55.3613 238.652 56.164C238.652 56.9667 238.484 57.6667 238.148 58.264C237.821 58.852 237.364 59.3047 236.776 59.622C236.197 59.9393 235.539 60.098 234.802 60.098C234.064 60.098 233.402 59.9393 232.814 59.622C232.235 59.3047 231.778 58.852 231.442 58.264C231.106 57.6667 230.938 56.9667 230.938 56.164C230.938 55.3613 231.106 54.6613 231.442 54.064C231.778 53.4667 232.235 53.0093 232.814 52.692C233.402 52.3747 234.064 52.216 234.802 52.216ZM234.802 53.336C234.344 53.336 233.92 53.4387 233.528 53.644C233.145 53.8493 232.832 54.1667 232.59 54.596C232.356 55.016 232.24 55.5387 232.24 56.164C232.24 56.78 232.356 57.3027 232.59 57.732C232.832 58.152 233.145 58.4647 233.528 58.67C233.92 58.8753 234.344 58.978 234.802 58.978C235.259 58.978 235.679 58.8753 236.062 58.67C236.454 58.4647 236.766 58.152 237 57.732C237.242 57.3027 237.364 56.78 237.364 56.164C237.364 55.5387 237.242 55.016 237 54.596C236.766 54.1667 236.454 53.8493 236.062 53.644C235.679 53.4387 235.259 53.336 234.802 53.336ZM247.704 52.314V60H246.43V58.194C246.234 58.8193 245.884 59.3 245.38 59.636C244.885 59.9627 244.307 60.126 243.644 60.126C242.757 60.126 242.039 59.8413 241.488 59.272C240.937 58.6933 240.662 57.8673 240.662 56.794V52.314H241.936V56.668C241.936 57.4333 242.132 58.026 242.524 58.446C242.916 58.8567 243.448 59.062 244.12 59.062C244.82 59.062 245.38 58.838 245.8 58.39C246.22 57.9327 246.43 57.27 246.43 56.402V52.314H247.704ZM251.579 53.868C251.831 53.336 252.2 52.9253 252.685 52.636C253.17 52.3373 253.749 52.188 254.421 52.188V53.574H254.029C253.31 53.574 252.722 53.7607 252.265 54.134C251.808 54.498 251.579 55.1047 251.579 55.954V60H250.305V52.314H251.579V53.868ZM260.284 52.188C261.18 52.188 261.903 52.4773 262.454 53.056C263.005 53.6253 263.28 54.4513 263.28 55.534V60H262.006V55.646C262.006 54.8807 261.81 54.2927 261.418 53.882C261.026 53.4713 260.494 53.266 259.822 53.266C259.122 53.266 258.562 53.4947 258.142 53.952C257.722 54.4 257.512 55.058 257.512 55.926V60H256.238V52.314H257.512V54.134C257.708 53.5087 258.053 53.028 258.548 52.692C259.052 52.356 259.631 52.188 260.284 52.188ZM268.944 52.216C269.691 52.216 270.321 52.4027 270.834 52.776C271.357 53.1493 271.721 53.6487 271.926 54.274V52.314H273.2V60H271.926V58.04C271.721 58.6653 271.357 59.1647 270.834 59.538C270.321 59.9113 269.691 60.098 268.944 60.098C268.263 60.098 267.656 59.9393 267.124 59.622C266.592 59.3047 266.172 58.852 265.864 58.264C265.565 57.6667 265.416 56.9667 265.416 56.164C265.416 55.3613 265.565 54.6613 265.864 54.064C266.172 53.4667 266.592 53.0093 267.124 52.692C267.656 52.3747 268.263 52.216 268.944 52.216ZM269.308 53.35C268.524 53.35 267.894 53.602 267.418 54.106C266.951 54.6007 266.718 55.2867 266.718 56.164C266.718 57.0413 266.951 57.732 267.418 58.236C267.894 58.7307 268.524 58.978 269.308 58.978C269.812 58.978 270.26 58.8613 270.652 58.628C271.053 58.3947 271.366 58.068 271.59 57.648C271.814 57.2187 271.926 56.724 271.926 56.164C271.926 55.604 271.814 55.1093 271.59 54.68C271.366 54.2507 271.053 53.924 270.652 53.7C270.26 53.4667 269.812 53.35 269.308 53.35ZM277.062 49.64V60H275.788V49.64H277.062Z" fill="white"/>
<path d="M46 49H34C32.8954 49 32 49.8954 32 51V63C32 64.1046 32.8954 65 34 65H46C47.1046 65 48 64.1046 48 63V51C48 49.8954 47.1046 49 46 49Z" stroke="white" stroke-width="1.5" stroke-linecap="round" stroke-linejoin="round"/>
<path d="M44 47V51" stroke="white" stroke-width="1.5" stroke-linecap="round" stroke-linejoin="round"/>
<path d="M36 47V51" stroke="white" stroke-width="1.5" stroke-linecap="round" stroke-linejoin="round"/>
<path d="M32 55H48" stroke="white" stroke-width="1.5" stroke-linecap="round" stroke-linejoin="round"/>
<path d="M38 59H36V61H38V59Z" stroke="white" stroke-width="1.5" stroke-linecap="round" stroke-linejoin="round"/>
<path d="M3.33336 56L6.66669 59.3333L13.3334 52.6666" stroke="#20DF92" stroke-width="2.75" stroke-linecap="round" stroke-linejoin="round"/>
<path opacity="0.7" d="M72.694 104H71.42L66.296 96.202V104H65.022V94.13H66.296L71.42 101.942V94.13H72.694V104ZM82.3727 99.73C82.3727 100.001 82.354 100.234 82.3167 100.43H76.1707C76.1987 101.307 76.446 101.965 76.9127 102.404C77.3887 102.843 77.9674 103.062 78.6487 103.062C79.2647 103.062 79.778 102.908 80.1887 102.6C80.6087 102.283 80.8654 101.863 80.9587 101.34H82.3167C82.2234 101.872 82.0134 102.348 81.6867 102.768C81.3694 103.188 80.954 103.515 80.4407 103.748C79.9274 103.981 79.3487 104.098 78.7047 104.098C77.9674 104.098 77.314 103.939 76.7447 103.622C76.1754 103.305 75.7274 102.852 75.4007 102.264C75.0834 101.667 74.9247 100.967 74.9247 100.164C74.9247 99.3613 75.0834 98.6613 75.4007 98.064C75.7274 97.4667 76.1754 97.0093 76.7447 96.692C77.314 96.3747 77.9674 96.216 78.7047 96.216C79.4514 96.216 80.1 96.3747 80.6507 96.692C81.2107 97.0093 81.6354 97.434 81.9247 97.966C82.2234 98.498 82.3727 99.086 82.3727 99.73ZM81.0847 99.814C81.1127 99.2447 81.0194 98.7687 80.8047 98.386C80.59 98.0033 80.296 97.7187 79.9227 97.532C79.5494 97.3453 79.1434 97.252 78.7047 97.252C78.0047 97.252 77.4167 97.4713 76.9407 97.91C76.4647 98.3393 76.208 98.974 76.1707 99.814H81.0847ZM95.155 96.314L92.943 104H91.571L89.457 97.742L87.329 104H85.943L83.759 96.314H85.047L86.685 102.782L88.813 96.314H90.143L92.285 102.768L93.937 96.314H95.155ZM107.166 101.438C107.166 101.905 107.054 102.339 106.83 102.74C106.606 103.141 106.265 103.468 105.808 103.72C105.351 103.972 104.786 104.098 104.114 104.098C103.461 104.098 102.877 103.981 102.364 103.748C101.86 103.505 101.454 103.179 101.146 102.768C100.847 102.348 100.675 101.872 100.628 101.34H101.986C102.014 101.62 102.107 101.895 102.266 102.166C102.434 102.427 102.667 102.647 102.966 102.824C103.274 102.992 103.643 103.076 104.072 103.076C104.632 103.076 105.061 102.927 105.36 102.628C105.659 102.329 105.808 101.947 105.808 101.48C105.808 101.079 105.701 100.752 105.486 100.5C105.281 100.248 105.024 100.052 104.716 99.912C104.408 99.7627 103.988 99.604 103.456 99.436C102.831 99.2307 102.327 99.0393 101.944 98.862C101.571 98.6753 101.249 98.4 100.978 98.036C100.717 97.672 100.586 97.1913 100.586 96.594C100.586 96.0807 100.707 95.628 100.95 95.236C101.202 94.844 101.557 94.5407 102.014 94.326C102.481 94.1113 103.027 94.004 103.652 94.004C104.623 94.004 105.393 94.242 105.962 94.718C106.531 95.1847 106.863 95.782 106.956 96.51H105.584C105.509 96.118 105.309 95.7727 104.982 95.474C104.655 95.1753 104.212 95.026 103.652 95.026C103.139 95.026 102.728 95.1613 102.42 95.432C102.112 95.6933 101.958 96.0667 101.958 96.552C101.958 96.9347 102.056 97.2473 102.252 97.49C102.457 97.7233 102.709 97.91 103.008 98.05C103.307 98.1807 103.717 98.33 104.24 98.498C104.875 98.7033 105.383 98.8993 105.766 99.086C106.158 99.2727 106.489 99.5573 106.76 99.94C107.031 100.313 107.166 100.813 107.166 101.438ZM116.509 99.73C116.509 100.001 116.491 100.234 116.453 100.43H110.307C110.335 101.307 110.583 101.965 111.049 102.404C111.525 102.843 112.104 103.062 112.785 103.062C113.401 103.062 113.915 102.908 114.325 102.6C114.745 102.283 115.002 101.863 115.095 101.34H116.453C116.36 101.872 116.15 102.348 115.823 102.768C115.506 103.188 115.091 103.515 114.577 103.748C114.064 103.981 113.485 104.098 112.841 104.098C112.104 104.098 111.451 103.939 110.881 103.622C110.312 103.305 109.864 102.852 109.537 102.264C109.22 101.667 109.061 100.967 109.061 100.164C109.061 99.3613 109.22 98.6613 109.537 98.064C109.864 97.4667 110.312 97.0093 110.881 96.692C111.451 96.3747 112.104 96.216 112.841 96.216C113.588 96.216 114.237 96.3747 114.787 96.692C115.347 97.0093 115.772 97.434 116.061 97.966C116.36 98.498 116.509 99.086 116.509 99.73ZM115.221 99.814C115.249 99.2447 115.156 98.7687 114.941 98.386C114.727 98.0033 114.433 97.7187 114.059 97.532C113.686 97.3453 113.28 97.252 112.841 97.252C112.141 97.252 111.553 97.4713 111.077 97.91C110.601 98.3393 110.345 98.974 110.307 99.814H115.221ZM121.144 96.216C122.012 96.216 122.707 96.4447 123.23 96.902C123.762 97.35 124.084 97.9567 124.196 98.722H122.978C122.922 98.2647 122.73 97.8913 122.404 97.602C122.086 97.3033 121.657 97.154 121.116 97.154C120.658 97.154 120.299 97.266 120.038 97.49C119.786 97.7047 119.66 97.9987 119.66 98.372C119.66 98.652 119.744 98.8807 119.912 99.058C120.089 99.226 120.304 99.3567 120.556 99.45C120.817 99.534 121.172 99.6273 121.62 99.73C122.189 99.8607 122.646 99.996 122.992 100.136C123.346 100.267 123.645 100.481 123.888 100.78C124.14 101.079 124.266 101.48 124.266 101.984C124.266 102.609 124.028 103.118 123.552 103.51C123.085 103.902 122.46 104.098 121.676 104.098C120.761 104.098 120.014 103.879 119.436 103.44C118.857 103.001 118.516 102.39 118.414 101.606H119.646C119.692 102.073 119.893 102.451 120.248 102.74C120.612 103.029 121.088 103.174 121.676 103.174C122.114 103.174 122.455 103.062 122.698 102.838C122.95 102.614 123.076 102.32 123.076 101.956C123.076 101.657 122.987 101.419 122.81 101.242C122.632 101.065 122.413 100.929 122.152 100.836C121.89 100.743 121.531 100.645 121.074 100.542C120.504 100.411 120.047 100.281 119.702 100.15C119.366 100.019 119.076 99.814 118.834 99.534C118.6 99.2447 118.484 98.8573 118.484 98.372C118.484 97.728 118.722 97.21 119.198 96.818C119.674 96.4167 120.322 96.216 121.144 96.216ZM128.936 96.216C129.804 96.216 130.499 96.4447 131.022 96.902C131.554 97.35 131.876 97.9567 131.988 98.722H130.77C130.714 98.2647 130.523 97.8913 130.196 97.602C129.879 97.3033 129.449 97.154 128.908 97.154C128.451 97.154 128.091 97.266 127.83 97.49C127.578 97.7047 127.452 97.9987 127.452 98.372C127.452 98.652 127.536 98.8807 127.704 99.058C127.881 99.226 128.096 99.3567 128.348 99.45C128.609 99.534 128.964 99.6273 129.412 99.73C129.981 99.8607 130.439 99.996 130.784 100.136C131.139 100.267 131.437 100.481 131.68 100.78C131.932 101.079 132.058 101.48 132.058 101.984C132.058 102.609 131.82 103.118 131.344 103.51C130.877 103.902 130.252 104.098 129.468 104.098C128.553 104.098 127.807 103.879 127.228 103.44C126.649 103.001 126.309 102.39 126.206 101.606H127.438C127.485 102.073 127.685 102.451 128.04 102.74C128.404 103.029 128.88 103.174 129.468 103.174C129.907 103.174 130.247 103.062 130.49 102.838C130.742 102.614 130.868 102.32 130.868 101.956C130.868 101.657 130.779 101.419 130.602 101.242C130.425 101.065 130.205 100.929 129.944 100.836C129.683 100.743 129.323 100.645 128.866 100.542C128.297 100.411 127.839 100.281 127.494 100.15C127.158 100.019 126.869 99.814 126.626 99.534C126.393 99.2447 126.276 98.8573 126.276 98.372C126.276 97.728 126.514 97.21 126.99 96.818C127.466 96.4167 128.115 96.216 128.936 96.216ZM134.096 94.06C134.096 93.8267 134.176 93.64 134.334 93.5C134.493 93.3507 134.703 93.276 134.964 93.276C135.226 93.276 135.436 93.3507 135.594 93.5C135.753 93.64 135.832 93.8267 135.832 94.06C135.832 94.2933 135.753 94.4847 135.594 94.634C135.436 94.774 135.226 94.844 134.964 94.844C134.703 94.844 134.493 94.774 134.334 94.634C134.176 94.4847 134.096 94.2933 134.096 94.06ZM135.594 96.314V104H134.32V96.314H135.594ZM141.689 96.216C142.426 96.216 143.084 96.3747 143.663 96.692C144.251 97.0093 144.708 97.4667 145.035 98.064C145.371 98.6613 145.539 99.3613 145.539 100.164C145.539 100.967 145.371 101.667 145.035 102.264C144.708 102.852 144.251 103.305 143.663 103.622C143.084 103.939 142.426 104.098 141.689 104.098C140.951 104.098 140.289 103.939 139.701 103.622C139.122 103.305 138.665 102.852 138.329 102.264C137.993 101.667 137.825 100.967 137.825 100.164C137.825 99.3613 137.993 98.6613 138.329 98.064C138.665 97.4667 139.122 97.0093 139.701 96.692C140.289 96.3747 140.951 96.216 141.689 96.216ZM141.689 97.336C141.231 97.336 140.807 97.4387 140.415 97.644C140.032 97.8493 139.719 98.1667 139.477 98.596C139.243 99.016 139.127 99.5387 139.127 100.164C139.127 100.78 139.243 101.303 139.477 101.732C139.719 102.152 140.032 102.465 140.415 102.67C140.807 102.875 141.231 102.978 141.689 102.978C142.146 102.978 142.566 102.875 142.949 102.67C143.341 102.465 143.653 102.152 143.887 101.732C144.129 101.303 144.251 100.78 144.251 100.164C144.251 99.5387 144.129 99.016 143.887 98.596C143.653 98.1667 143.341 97.8493 142.949 97.644C142.566 97.4387 142.146 97.336 141.689 97.336ZM151.805 96.188C152.701 96.188 153.424 96.4773 153.975 97.056C154.525 97.6253 154.801 98.4513 154.801 99.534V104H153.527V99.646C153.527 98.8807 153.331 98.2927 152.939 97.882C152.547 97.4713 152.015 97.266 151.343 97.266C150.643 97.266 150.083 97.4947 149.663 97.952C149.243 98.4 149.033 99.058 149.033 99.926V104H147.759V96.314H149.033V98.134C149.229 97.5087 149.574 97.028 150.069 96.692C150.573 96.356 151.151 96.188 151.805 96.188ZM159.723 96.216C160.591 96.216 161.286 96.4447 161.809 96.902C162.341 97.35 162.663 97.9567 162.775 98.722H161.557C161.501 98.2647 161.309 97.8913 160.983 97.602C160.665 97.3033 160.236 97.154 159.695 97.154C159.237 97.154 158.878 97.266 158.617 97.49C158.365 97.7047 158.239 97.9987 158.239 98.372C158.239 98.652 158.323 98.8807 158.491 99.058C158.668 99.226 158.883 99.3567 159.135 99.45C159.396 99.534 159.751 99.6273 160.199 99.73C160.768 99.8607 161.225 99.996 161.571 100.136C161.925 100.267 162.224 100.481 162.467 100.78C162.719 101.079 162.845 101.48 162.845 101.984C162.845 102.609 162.607 103.118 162.131 103.51C161.664 103.902 161.039 104.098 160.255 104.098C159.34 104.098 158.593 103.879 158.015 103.44C157.436 103.001 157.095 102.39 156.993 101.606H158.225C158.271 102.073 158.472 102.451 158.827 102.74C159.191 103.029 159.667 103.174 160.255 103.174C160.693 103.174 161.034 103.062 161.277 102.838C161.529 102.614 161.655 102.32 161.655 101.956C161.655 101.657 161.566 101.419 161.389 101.242C161.211 101.065 160.992 100.929 160.731 100.836C160.469 100.743 160.11 100.645 159.653 100.542C159.083 100.411 158.626 100.281 158.281 100.15C157.945 100.019 157.655 99.814 157.413 99.534C157.179 99.2447 157.063 98.8573 157.063 98.372C157.063 97.728 157.301 97.21 157.777 96.818C158.253 96.4167 158.901 96.216 159.723 96.216ZM176.252 104L174.096 101.62C174.096 101.769 174.068 101.956 174.012 102.18C173.91 102.749 173.634 103.211 173.186 103.566C172.738 103.921 172.197 104.098 171.562 104.098C170.984 104.098 170.47 103.977 170.022 103.734C169.574 103.482 169.224 103.137 168.972 102.698C168.72 102.25 168.594 101.737 168.594 101.158C168.594 100.579 168.706 100.08 168.93 99.66C169.164 99.2307 169.472 98.9087 169.854 98.694C170.237 98.47 170.662 98.358 171.128 98.358C171.203 98.358 171.306 98.3673 171.436 98.386L171.226 98.12C170.965 97.8027 170.764 97.504 170.624 97.224C170.494 96.9347 170.428 96.5987 170.428 96.216C170.428 95.8333 170.522 95.4787 170.708 95.152C170.904 94.816 171.194 94.5453 171.576 94.34C171.959 94.1347 172.416 94.032 172.948 94.032C173.751 94.032 174.362 94.2327 174.782 94.634C175.212 95.0353 175.464 95.5393 175.538 96.146C175.594 96.3513 175.622 96.5613 175.622 96.776C175.622 96.8693 175.618 96.9393 175.608 96.986H174.404C174.414 96.9207 174.414 96.846 174.404 96.762C174.404 96.6687 174.404 96.6033 174.404 96.566C174.395 96.0993 174.264 95.74 174.012 95.488C173.76 95.2267 173.41 95.096 172.962 95.096C172.552 95.096 172.225 95.2173 171.982 95.46C171.749 95.7027 171.632 95.9967 171.632 96.342C171.632 96.6313 171.684 96.8787 171.786 97.084C171.898 97.2893 172.076 97.532 172.318 97.812L177.554 104H176.252ZM171.562 103.006C172.076 103.006 172.496 102.843 172.822 102.516C173.158 102.189 173.326 101.769 173.326 101.256C173.326 100.901 173.233 100.579 173.046 100.29C172.86 100.001 172.617 99.772 172.318 99.604C172.02 99.436 171.707 99.352 171.38 99.352C170.895 99.352 170.494 99.506 170.176 99.814C169.868 100.122 169.714 100.561 169.714 101.13C169.714 101.709 169.892 102.166 170.246 102.502C170.601 102.838 171.04 103.006 171.562 103.006ZM184.452 94.13V100.052C184.452 101.023 184.667 101.741 185.096 102.208C185.526 102.665 186.118 102.894 186.874 102.894C187.621 102.894 188.204 102.661 188.624 102.194C189.044 101.727 189.254 101.013 189.254 100.052V94.13H190.528V100.052C190.528 101.396 190.192 102.409 189.52 103.09C188.858 103.762 187.966 104.098 186.846 104.098C185.736 104.098 184.844 103.762 184.172 103.09C183.51 102.409 183.178 101.396 183.178 100.052V94.13H184.452ZM197.306 96.216C197.987 96.216 198.594 96.3747 199.126 96.692C199.658 97.0093 200.073 97.4667 200.372 98.064C200.68 98.6613 200.834 99.3613 200.834 100.164C200.834 100.967 200.68 101.667 200.372 102.264C200.073 102.852 199.658 103.305 199.126 103.622C198.594 103.939 197.987 104.098 197.306 104.098C196.559 104.098 195.925 103.911 195.402 103.538C194.889 103.155 194.534 102.656 194.338 102.04V107.64H193.064V96.314H194.338V98.274C194.534 97.658 194.889 97.1633 195.402 96.79C195.925 96.4073 196.559 96.216 197.306 96.216ZM196.942 97.35C196.447 97.35 195.999 97.4667 195.598 97.7C195.197 97.924 194.884 98.2507 194.66 98.68C194.436 99.1093 194.324 99.604 194.324 100.164C194.324 100.724 194.436 101.219 194.66 101.648C194.884 102.068 195.197 102.395 195.598 102.628C195.999 102.861 196.447 102.978 196.942 102.978C197.735 102.978 198.365 102.731 198.832 102.236C199.308 101.732 199.546 101.041 199.546 100.164C199.546 99.2867 199.308 98.6007 198.832 98.106C198.365 97.602 197.735 97.35 196.942 97.35ZM206.208 96.216C206.954 96.216 207.584 96.4027 208.098 96.776C208.62 97.1493 208.984 97.6487 209.19 98.274V93.64H210.464V104H209.19V102.04C208.984 102.665 208.62 103.165 208.098 103.538C207.584 103.911 206.954 104.098 206.208 104.098C205.526 104.098 204.92 103.939 204.388 103.622C203.856 103.305 203.436 102.852 203.128 102.264C202.829 101.667 202.68 100.967 202.68 100.164C202.68 99.3613 202.829 98.6613 203.128 98.064C203.436 97.4667 203.856 97.0093 204.388 96.692C204.92 96.3747 205.526 96.216 206.208 96.216ZM206.572 97.35C205.788 97.35 205.158 97.602 204.682 98.106C204.215 98.6007 203.982 99.2867 203.982 100.164C203.982 101.041 204.215 101.732 204.682 102.236C205.158 102.731 205.788 102.978 206.572 102.978C207.076 102.978 207.524 102.861 207.916 102.628C208.317 102.395 208.63 102.068 208.854 101.648C209.078 101.219 209.19 100.724 209.19 100.164C209.19 99.604 209.078 99.1093 208.854 98.68C208.63 98.2507 208.317 97.924 207.916 97.7C207.524 97.4667 207.076 97.35 206.572 97.35ZM216.201 96.216C216.948 96.216 217.578 96.4027 218.091 96.776C218.614 97.1493 218.978 97.6487 219.183 98.274V96.314H220.457V104H219.183V102.04C218.978 102.665 218.614 103.165 218.091 103.538C217.578 103.911 216.948 104.098 216.201 104.098C215.52 104.098 214.913 103.939 214.381 103.622C213.849 103.305 213.429 102.852 213.121 102.264C212.823 101.667 212.673 100.967 212.673 100.164C212.673 99.3613 212.823 98.6613 213.121 98.064C213.429 97.4667 213.849 97.0093 214.381 96.692C214.913 96.3747 215.52 96.216 216.201 96.216ZM216.565 97.35C215.781 97.35 215.151 97.602 214.675 98.106C214.209 98.6007 213.975 99.2867 213.975 100.164C213.975 101.041 214.209 101.732 214.675 102.236C215.151 102.731 215.781 102.978 216.565 102.978C217.069 102.978 217.517 102.861 217.909 102.628C218.311 102.395 218.623 102.068 218.847 101.648C219.071 101.219 219.183 100.724 219.183 100.164C219.183 99.604 219.071 99.1093 218.847 98.68C218.623 98.2507 218.311 97.924 217.909 97.7C217.517 97.4667 217.069 97.35 216.565 97.35ZM226.713 102.88V104H225.761C224.977 104 224.389 103.813 223.997 103.44C223.614 103.067 223.423 102.441 223.423 101.564V97.42H222.275V96.314H223.423V94.396H224.711V96.314H226.699V97.42H224.711V101.592C224.711 102.087 224.799 102.427 224.977 102.614C225.163 102.791 225.481 102.88 225.929 102.88H226.713ZM235.897 99.73C235.897 100.001 235.879 100.234 235.841 100.43H229.695C229.723 101.307 229.971 101.965 230.437 102.404C230.913 102.843 231.492 103.062 232.173 103.062C232.789 103.062 233.303 102.908 233.713 102.6C234.133 102.283 234.39 101.863 234.483 101.34H235.841C235.748 101.872 235.538 102.348 235.211 102.768C234.894 103.188 234.479 103.515 233.965 103.748C233.452 103.981 232.873 104.098 232.229 104.098C231.492 104.098 230.839 103.939 230.269 103.622C229.7 103.305 229.252 102.852 228.925 102.264C228.608 101.667 228.449 100.967 228.449 100.164C228.449 99.3613 228.608 98.6613 228.925 98.064C229.252 97.4667 229.7 97.0093 230.269 96.692C230.839 96.3747 231.492 96.216 232.229 96.216C232.976 96.216 233.625 96.3747 234.175 96.692C234.735 97.0093 235.16 97.434 235.449 97.966C235.748 98.498 235.897 99.086 235.897 99.73ZM234.609 99.814C234.637 99.2447 234.544 98.7687 234.329 98.386C234.115 98.0033 233.821 97.7187 233.447 97.532C233.074 97.3453 232.668 97.252 232.229 97.252C231.529 97.252 230.941 97.4713 230.465 97.91C229.989 98.3393 229.733 98.974 229.695 99.814H234.609ZM240.532 96.216C241.4 96.216 242.095 96.4447 242.618 96.902C243.15 97.35 243.472 97.9567 243.584 98.722H242.366C242.31 98.2647 242.118 97.8913 241.792 97.602C241.474 97.3033 241.045 97.154 240.504 97.154C240.046 97.154 239.687 97.266 239.426 97.49C239.174 97.7047 239.048 97.9987 239.048 98.372C239.048 98.652 239.132 98.8807 239.3 99.058C239.477 99.226 239.692 99.3567 239.944 99.45C240.205 99.534 240.56 99.6273 241.008 99.73C241.577 99.8607 242.034 99.996 242.38 100.136C242.734 100.267 243.033 100.481 243.276 100.78C243.528 101.079 243.654 101.48 243.654 101.984C243.654 102.609 243.416 103.118 242.94 103.51C242.473 103.902 241.848 104.098 241.064 104.098C240.149 104.098 239.402 103.879 238.824 103.44C238.245 103.001 237.904 102.39 237.802 101.606H239.034C239.08 102.073 239.281 102.451 239.636 102.74C240 103.029 240.476 103.174 241.064 103.174C241.502 103.174 241.843 103.062 242.086 102.838C242.338 102.614 242.464 102.32 242.464 101.956C242.464 101.657 242.375 101.419 242.198 101.242C242.02 101.065 241.801 100.929 241.54 100.836C241.278 100.743 240.919 100.645 240.462 100.542C239.892 100.411 239.435 100.281 239.09 100.15C238.754 100.019 238.464 99.814 238.222 99.534C237.988 99.2447 237.872 98.8573 237.872 98.372C237.872 97.728 238.11 97.21 238.586 96.818C239.062 96.4167 239.71 96.216 240.532 96.216Z" fill="white"/>
<path d="M48 98.9999C47.7554 97.2402 46.9391 95.6096 45.6766 94.3594C44.4142 93.1093 42.7757 92.3089 41.0137 92.0815C39.2516 91.8541 37.4636 92.2124 35.9252 93.1012C34.3868 93.99 33.1832 95.3599 32.5 96.9999M32 93V96.9999H36" stroke="white" stroke-width="1.5" stroke-linecap="round" stroke-linejoin="round"/>
<path d="M32 101C32.2445 102.76 33.0609 104.39 34.3233 105.641C35.5858 106.891 37.2242 107.691 38.9863 107.918C40.7484 108.146 42.5364 107.788 44.0748 106.899C45.6132 106.01 46.8167 104.64 47.5 103M48 107V103H44" stroke="white" stroke-width="1.5" stroke-linecap="round" stroke-linejoin="round"/>
<path d="M3.33336 100L6.66669 103.333L13.3334 96.6666" stroke="#20DF92" stroke-width="2.75" stroke-linecap="round" stroke-linejoin="round"/>
<path d="M41.3593 142C41.6135 141.709 41.8849 141.432 42.1721 141.172C42.7315 140.612 43.4442 140.231 44.2202 140.077C44.9961 139.923 45.8005 140.002 46.5314 140.304C47.2624 140.607 47.8872 141.12 48.3268 141.778C48.7663 142.435 49.001 143.209 49.001 144C49.001 144.791 48.7663 145.565 48.3268 146.222C47.8872 146.88 47.2624 147.393 46.5314 147.696C45.8005 147.998 44.9961 148.077 44.2202 147.923C43.4442 147.769 42.7315 147.388 42.1721 146.828C41.2845 146.023 40.5488 145.065 40.0001 144C39.4514 142.935 38.7157 141.977 37.8281 141.172C37.2688 140.612 36.556 140.231 35.7801 140.077C35.0041 139.923 34.1998 140.002 33.4688 140.304C32.7378 140.607 32.1131 141.12 31.6735 141.778C31.2339 142.435 30.9993 143.209 30.9993 144C30.9993 144.791 31.2339 145.565 31.6735 146.222C32.1131 146.88 32.7378 147.393 33.4688 147.696C34.1998 147.998 35.0041 148.077 35.7801 147.923C36.556 147.769 37.2688 147.388 37.8281 146.828C38.1696 146.518 38.4887 146.186 38.7832 145.834" stroke="white" stroke-width="1.5" stroke-linecap="round" stroke-linejoin="round"/>
<path opacity="0.7" d="M66.226 138.13V144.052C66.226 145.023 66.4407 145.741 66.87 146.208C67.2993 146.665 67.892 146.894 68.648 146.894C69.3947 146.894 69.978 146.661 70.398 146.194C70.818 145.727 71.028 145.013 71.028 144.052V138.13H72.302V144.052C72.302 145.396 71.966 146.409 71.294 147.09C70.6313 147.762 69.74 148.098 68.62 148.098C67.5093 148.098 66.618 147.762 65.946 147.09C65.2833 146.409 64.952 145.396 64.952 144.052V138.13H66.226ZM78.8839 140.188C79.7799 140.188 80.5032 140.477 81.0539 141.056C81.6045 141.625 81.8799 142.451 81.8799 143.534V148H80.6059V143.646C80.6059 142.881 80.4099 142.293 80.0179 141.882C79.6259 141.471 79.0939 141.266 78.4219 141.266C77.7219 141.266 77.1619 141.495 76.7419 141.952C76.3219 142.4 76.1119 143.058 76.1119 143.926V148H74.8379V140.314H76.1119V142.134C76.3079 141.509 76.6532 141.028 77.1479 140.692C77.6519 140.356 78.2305 140.188 78.8839 140.188ZM85.668 137.64V148H84.394V137.64H85.668ZM88.0522 138.06C88.0522 137.827 88.1316 137.64 88.2902 137.5C88.4489 137.351 88.6589 137.276 88.9202 137.276C89.1816 137.276 89.3916 137.351 89.5502 137.5C89.7089 137.64 89.7882 137.827 89.7882 138.06C89.7882 138.293 89.7089 138.485 89.5502 138.634C89.3916 138.774 89.1816 138.844 88.9202 138.844C88.6589 138.844 88.4489 138.774 88.2902 138.634C88.1316 138.485 88.0522 138.293 88.0522 138.06ZM89.5502 140.314V148H88.2762V140.314H89.5502ZM101.608 140.188C102.504 140.188 103.223 140.477 103.764 141.056C104.315 141.625 104.59 142.451 104.59 143.534V148H103.316V143.646C103.316 142.89 103.13 142.311 102.756 141.91C102.392 141.509 101.888 141.308 101.244 141.308C100.572 141.308 100.031 141.532 99.6205 141.98C99.2192 142.419 99.0185 143.067 99.0185 143.926V148H97.7445V143.646C97.7445 142.89 97.5578 142.311 97.1845 141.91C96.8112 141.509 96.3072 141.308 95.6725 141.308C94.9912 141.308 94.4452 141.532 94.0345 141.98C93.6332 142.419 93.4325 143.067 93.4325 143.926V148H92.1585V140.314H93.4325V142.064C93.6192 141.457 93.9505 140.995 94.4265 140.678C94.9118 140.351 95.4672 140.188 96.0925 140.188C96.7458 140.188 97.3105 140.356 97.7865 140.692C98.2718 141.019 98.6172 141.504 98.8225 142.148C99.0372 141.523 99.3965 141.042 99.9005 140.706C100.404 140.361 100.974 140.188 101.608 140.188ZM106.905 138.06C106.905 137.827 106.984 137.64 107.143 137.5C107.301 137.351 107.511 137.276 107.773 137.276C108.034 137.276 108.244 137.351 108.403 137.5C108.561 137.64 108.641 137.827 108.641 138.06C108.641 138.293 108.561 138.485 108.403 138.634C108.244 138.774 108.034 138.844 107.773 138.844C107.511 138.844 107.301 138.774 107.143 138.634C106.984 138.485 106.905 138.293 106.905 138.06ZM108.403 140.314V148H107.129V140.314H108.403ZM114.679 146.88V148H113.727C112.943 148 112.355 147.813 111.963 147.44C111.58 147.067 111.389 146.441 111.389 145.564V141.42H110.241V140.314H111.389V138.396H112.677V140.314H114.665V141.42H112.677V145.592C112.677 146.087 112.766 146.427 112.943 146.614C113.13 146.791 113.447 146.88 113.895 146.88H114.679ZM123.864 143.73C123.864 144.001 123.845 144.234 123.808 144.43H117.662C117.69 145.307 117.937 145.965 118.404 146.404C118.88 146.843 119.458 147.062 120.14 147.062C120.756 147.062 121.269 146.908 121.68 146.6C122.1 146.283 122.356 145.863 122.45 145.34H123.808C123.714 145.872 123.504 146.348 123.178 146.768C122.86 147.188 122.445 147.515 121.932 147.748C121.418 147.981 120.84 148.098 120.196 148.098C119.458 148.098 118.805 147.939 118.236 147.622C117.666 147.305 117.218 146.852 116.892 146.264C116.574 145.667 116.416 144.967 116.416 144.164C116.416 143.361 116.574 142.661 116.892 142.064C117.218 141.467 117.666 141.009 118.236 140.692C118.805 140.375 119.458 140.216 120.196 140.216C120.942 140.216 121.591 140.375 122.142 140.692C122.702 141.009 123.126 141.434 123.416 141.966C123.714 142.498 123.864 143.086 123.864 143.73ZM122.576 143.814C122.604 143.245 122.51 142.769 122.296 142.386C122.081 142.003 121.787 141.719 121.414 141.532C121.04 141.345 120.634 141.252 120.196 141.252C119.496 141.252 118.908 141.471 118.432 141.91C117.956 142.339 117.699 142.974 117.662 143.814H122.576ZM129.24 140.216C129.987 140.216 130.617 140.403 131.13 140.776C131.653 141.149 132.017 141.649 132.222 142.274V137.64H133.496V148H132.222V146.04C132.017 146.665 131.653 147.165 131.13 147.538C130.617 147.911 129.987 148.098 129.24 148.098C128.559 148.098 127.952 147.939 127.42 147.622C126.888 147.305 126.468 146.852 126.16 146.264C125.861 145.667 125.712 144.967 125.712 144.164C125.712 143.361 125.861 142.661 126.16 142.064C126.468 141.467 126.888 141.009 127.42 140.692C127.952 140.375 128.559 140.216 129.24 140.216ZM129.604 141.35C128.82 141.35 128.19 141.602 127.714 142.106C127.247 142.601 127.014 143.287 127.014 144.164C127.014 145.041 127.247 145.732 127.714 146.236C128.19 146.731 128.82 146.978 129.604 146.978C130.108 146.978 130.556 146.861 130.948 146.628C131.349 146.395 131.662 146.068 131.886 145.648C132.11 145.219 132.222 144.724 132.222 144.164C132.222 143.604 132.11 143.109 131.886 142.68C131.662 142.251 131.349 141.924 130.948 141.7C130.556 141.467 130.108 141.35 129.604 141.35ZM145.884 145.718H141.544L140.718 148H139.346L143 138.312H144.442L148.082 148H146.71L145.884 145.718ZM145.52 144.724L143.714 139.74L141.908 144.724H145.52ZM153.334 140.216C154.314 140.216 155.126 140.477 155.77 141C156.414 141.523 156.811 142.223 156.96 143.1H155.616C155.523 142.549 155.266 142.12 154.846 141.812C154.435 141.495 153.922 141.336 153.306 141.336C152.858 141.336 152.447 141.439 152.074 141.644C151.71 141.849 151.416 142.167 151.192 142.596C150.968 143.016 150.856 143.539 150.856 144.164C150.856 144.789 150.968 145.317 151.192 145.746C151.416 146.166 151.71 146.479 152.074 146.684C152.447 146.889 152.858 146.992 153.306 146.992C153.922 146.992 154.435 146.833 154.846 146.516C155.266 146.199 155.523 145.765 155.616 145.214H156.96C156.811 146.101 156.414 146.805 155.77 147.328C155.126 147.841 154.314 148.098 153.334 148.098C152.597 148.098 151.943 147.939 151.374 147.622C150.805 147.305 150.357 146.852 150.03 146.264C149.713 145.667 149.554 144.967 149.554 144.164C149.554 143.361 149.713 142.661 150.03 142.064C150.357 141.467 150.805 141.009 151.374 140.692C151.943 140.375 152.597 140.216 153.334 140.216ZM162.589 140.216C163.569 140.216 164.381 140.477 165.025 141C165.669 141.523 166.066 142.223 166.215 143.1H164.871C164.778 142.549 164.521 142.12 164.101 141.812C163.691 141.495 163.177 141.336 162.561 141.336C162.113 141.336 161.703 141.439 161.329 141.644C160.965 141.849 160.671 142.167 160.447 142.596C160.223 143.016 160.111 143.539 160.111 144.164C160.111 144.789 160.223 145.317 160.447 145.746C160.671 146.166 160.965 146.479 161.329 146.684C161.703 146.889 162.113 146.992 162.561 146.992C163.177 146.992 163.691 146.833 164.101 146.516C164.521 146.199 164.778 145.765 164.871 145.214H166.215C166.066 146.101 165.669 146.805 165.025 147.328C164.381 147.841 163.569 148.098 162.589 148.098C161.852 148.098 161.199 147.939 160.629 147.622C160.06 147.305 159.612 146.852 159.285 146.264C158.968 145.667 158.809 144.967 158.809 144.164C158.809 143.361 158.968 142.661 159.285 142.064C159.612 141.467 160.06 141.009 160.629 140.692C161.199 140.375 161.852 140.216 162.589 140.216ZM175.513 143.73C175.513 144.001 175.494 144.234 175.457 144.43H169.311C169.339 145.307 169.586 145.965 170.053 146.404C170.529 146.843 171.107 147.062 171.789 147.062C172.405 147.062 172.918 146.908 173.329 146.6C173.749 146.283 174.005 145.863 174.099 145.34H175.457C175.363 145.872 175.153 146.348 174.827 146.768C174.509 147.188 174.094 147.515 173.581 147.748C173.067 147.981 172.489 148.098 171.845 148.098C171.107 148.098 170.454 147.939 169.885 147.622C169.315 147.305 168.867 146.852 168.541 146.264C168.223 145.667 168.065 144.967 168.065 144.164C168.065 143.361 168.223 142.661 168.541 142.064C168.867 141.467 169.315 141.009 169.885 140.692C170.454 140.375 171.107 140.216 171.845 140.216C172.591 140.216 173.24 140.375 173.791 140.692C174.351 141.009 174.775 141.434 175.065 141.966C175.363 142.498 175.513 143.086 175.513 143.73ZM174.225 143.814C174.253 143.245 174.159 142.769 173.945 142.386C173.73 142.003 173.436 141.719 173.063 141.532C172.689 141.345 172.283 141.252 171.845 141.252C171.145 141.252 170.557 141.471 170.081 141.91C169.605 142.339 169.348 142.974 169.311 143.814H174.225ZM180.147 140.216C181.015 140.216 181.71 140.445 182.233 140.902C182.765 141.35 183.087 141.957 183.199 142.722H181.981C181.925 142.265 181.734 141.891 181.407 141.602C181.09 141.303 180.66 141.154 180.119 141.154C179.662 141.154 179.302 141.266 179.041 141.49C178.789 141.705 178.663 141.999 178.663 142.372C178.663 142.652 178.747 142.881 178.915 143.058C179.092 143.226 179.307 143.357 179.559 143.45C179.82 143.534 180.175 143.627 180.623 143.73C181.192 143.861 181.65 143.996 181.995 144.136C182.35 144.267 182.648 144.481 182.891 144.78C183.143 145.079 183.269 145.48 183.269 145.984C183.269 146.609 183.031 147.118 182.555 147.51C182.088 147.902 181.463 148.098 180.679 148.098C179.764 148.098 179.018 147.879 178.439 147.44C177.86 147.001 177.52 146.39 177.417 145.606H178.649C178.696 146.073 178.896 146.451 179.251 146.74C179.615 147.029 180.091 147.174 180.679 147.174C181.118 147.174 181.458 147.062 181.701 146.838C181.953 146.614 182.079 146.32 182.079 145.956C182.079 145.657 181.99 145.419 181.813 145.242C181.636 145.065 181.416 144.929 181.155 144.836C180.894 144.743 180.534 144.645 180.077 144.542C179.508 144.411 179.05 144.281 178.705 144.15C178.369 144.019 178.08 143.814 177.837 143.534C177.604 143.245 177.487 142.857 177.487 142.372C177.487 141.728 177.725 141.21 178.201 140.818C178.677 140.417 179.326 140.216 180.147 140.216ZM187.939 140.216C188.807 140.216 189.503 140.445 190.025 140.902C190.557 141.35 190.879 141.957 190.991 142.722H189.773C189.717 142.265 189.526 141.891 189.199 141.602C188.882 141.303 188.453 141.154 187.911 141.154C187.454 141.154 187.095 141.266 186.833 141.49C186.581 141.705 186.455 141.999 186.455 142.372C186.455 142.652 186.539 142.881 186.707 143.058C186.885 143.226 187.099 143.357 187.351 143.45C187.613 143.534 187.967 143.627 188.415 143.73C188.985 143.861 189.442 143.996 189.787 144.136C190.142 144.267 190.441 144.481 190.683 144.78C190.935 145.079 191.061 145.48 191.061 145.984C191.061 146.609 190.823 147.118 190.347 147.51C189.881 147.902 189.255 148.098 188.471 148.098C187.557 148.098 186.81 147.879 186.231 147.44C185.653 147.001 185.312 146.39 185.209 145.606H186.441C186.488 146.073 186.689 146.451 187.043 146.74C187.407 147.029 187.883 147.174 188.471 147.174C188.91 147.174 189.251 147.062 189.493 146.838C189.745 146.614 189.871 146.32 189.871 145.956C189.871 145.657 189.783 145.419 189.605 145.242C189.428 145.065 189.209 144.929 188.947 144.836C188.686 144.743 188.327 144.645 187.869 144.542C187.3 144.411 186.843 144.281 186.497 144.15C186.161 144.019 185.872 143.814 185.629 143.534C185.396 143.245 185.279 142.857 185.279 142.372C185.279 141.728 185.517 141.21 185.993 140.818C186.469 140.417 187.118 140.216 187.939 140.216Z" fill="white"/>
<path d="M3.33336 144L6.66669 147.333L13.3334 140.667" stroke="#20DF92" stroke-width="2.75" stroke-linecap="round" stroke-linejoin="round"/>
</svg>
