<?xml version="1.0" encoding="utf-8" standalone="no"?>
<svg width="167" height="86" viewBox="0 0 167 86" fill="none" xmlns="http://www.w3.org/2000/svg">
<path d="M108.383 62.527H118.069V59.5297H105.405V73.5637H118.097V70.5664H108.383V62.527Z" fill="#0079FE"/>
<path d="M128.228 59.5286H120.017V73.5906H128.228C132.236 73.5906 135.159 70.5093 135.159 66.4195C135.131 62.3298 132.236 59.5286 128.228 59.5286ZM128.228 70.5653H122.996V62.5539H128.228C130.483 62.5539 132.153 64.2346 132.153 66.5876C132.153 68.8846 130.483 70.5653 128.228 70.5653Z" fill="#0079FE"/>
<path d="M136.996 66.3915C136.996 70.4812 139.918 73.5626 143.898 73.5626H152.471V64.9068H143.564V67.9321H149.465V70.5653H143.898C141.644 70.5653 140.002 68.8845 140.002 66.5595C140.002 64.2065 141.644 62.5258 143.898 62.5258H152.471V59.5005H143.898C139.918 59.5285 136.996 62.2737 136.996 66.3915Z" fill="#0079FE"/>
<path d="M157.286 62.5259H166.972V59.5286H154.308V73.5626H167V70.5653H157.286V62.5259Z" fill="#0079FE"/>
<path d="M110.137 65.2436V68.0451H118.097V65.0475H110.137V65.2436Z" fill="#0079FE"/>
<path d="M166.972 64.9075H159.012V67.9331H166.972V64.9075Z" fill="#0079FE"/>
<path d="M16.0877 59.4457C15.4475 59.4457 14.9465 59.8098 14.6682 60.4541L10.521 69.39L6.37383 60.4541C6.06766 59.8098 5.48317 59.4457 4.87083 59.4457C4.0915 59.4457 3.61833 59.8378 3.4235 60.6502L0 73.6758H2.95033L5.20483 64.796L8.90666 72.7514C9.24066 73.4797 9.71383 73.8719 10.4375 73.8719C11.1612 73.8719 11.6065 73.4797 11.9683 72.7514L15.698 64.796L17.9803 73.6758H20.9307L17.535 60.6502C17.3123 59.8378 16.8392 59.4457 16.0877 59.4457Z" fill="#0079FE"/>
<path d="M25.7458 62.638H35.4318V59.6127H22.7676V73.6747H35.4596V70.6494H25.7458V62.638Z" fill="#0079FE"/>
<path d="M49.1537 68.8286L39.9965 60.0048C39.579 59.5846 39.2172 59.4446 38.7997 59.4446C37.8812 59.4446 37.2967 60.1169 37.2967 61.2373V73.7027H40.1357V64.3467L49.2929 73.3106C49.6825 73.7027 50.0722 73.8988 50.5175 73.8988C51.4082 73.8988 52.0205 73.2265 52.0205 72.106V59.4726H49.1537V68.8286Z" fill="#0079FE"/>
<path d="M67.134 59.6127H53.8575V62.638H59.0066V73.6747H61.9848V62.638H67.134V59.6127Z" fill="#0079FE"/>
<path d="M73.7861 59.4165C73.1459 59.4165 72.7006 59.8087 72.3387 60.3969L64.4062 73.6747H67.8019L73.6747 63.6743L76.2076 67.9882H73.0903L71.3368 71.0135H78.0168L79.6032 73.6747H83.1937L75.2612 60.3969C74.8994 59.8087 74.4541 59.4165 73.7861 59.4165Z" fill="#0079FE"/>
<path d="M88.009 70.5653V59.5286H85.003V73.5626H97.027V70.5653H88.009Z" fill="#0079FE"/>
<path d="M27.4993 65.3278V68.0452H35.4597V65.0476H27.4993V65.3278Z" fill="#0079FE"/>
<path d="M6.95825 85.947V80.4561H7.90458V85.947H6.95825ZM11.3281 85.947V83.5657H8.60042V82.7253H11.3281V80.4561H12.2744V85.947H11.3281Z" fill="#20DF92"/>
<path d="M17.5906 85.9166V83.8434L14.696 80.4536H15.9763L18.0916 82.975L20.207 80.4536H21.4316L18.537 83.8434V85.9166H17.5906Z" fill="#20DF92"/>
<path d="M25.5232 84.4037V83.4792H27.6942C28.3622 83.4792 28.7519 83.059 28.7519 82.4427C28.7519 81.7983 28.3622 81.4061 27.6942 81.4061H24.8274V85.9166H23.881V80.4536H27.6942C28.9467 80.4536 29.6704 81.21 29.6704 82.4147C29.6704 83.5913 28.9467 84.4037 27.6942 84.4037H25.5232Z" fill="#20DF92"/>
<path d="M33.1217 81.9104V85.9166H32.2311V80.9579C32.2311 80.5937 32.4259 80.3976 32.7042 80.3976C32.8434 80.3976 32.9547 80.4536 33.0939 80.5937L36.9349 84.4318V80.4256H37.8256V85.4403C37.8256 85.8045 37.6307 86.0006 37.3524 86.0006C37.1854 86.0006 37.0462 85.9446 36.9071 85.8045L33.1217 81.9104Z" fill="#20DF92"/>
<path d="M43.1138 85.9165C41.583 85.9165 40.4697 84.7119 40.4697 83.115C40.4697 81.5181 41.583 80.4255 43.1138 80.4255H44.4498C46.0085 80.4255 47.1218 81.5181 47.1218 83.115C47.1218 84.7119 46.0085 85.9165 44.4498 85.9165H43.1138ZM44.4498 84.964C45.4518 84.964 46.1477 84.2076 46.1477 83.171C46.1477 82.1345 45.424 81.4061 44.4498 81.4061H43.1138C42.1397 81.4061 41.416 82.1345 41.416 83.171C41.416 84.2076 42.1397 84.964 43.1138 84.964H44.4498Z" fill="#20DF92"/>
<path d="M49.7382 85.9165V84.964H53.8297C54.3307 84.964 54.6091 84.6839 54.6091 84.2356C54.6091 83.7594 54.3307 83.5352 53.8297 83.5352H51.3247C50.2949 83.5352 49.6547 82.8909 49.6547 81.9664C49.6547 81.0979 50.2392 80.4255 51.3247 80.4255H55.2214V81.3781H51.3247C50.8794 81.3781 50.6289 81.6302 50.6289 82.0504C50.6289 82.4706 50.8794 82.7228 51.2969 82.7228H53.7741C54.8596 82.7228 55.4719 83.2551 55.4719 84.2916C55.4719 85.2161 54.9152 85.8885 53.7741 85.8885H49.7382V85.9165Z" fill="#20DF92"/>
<path d="M58.2552 85.9166V80.4536H59.2016V85.9166H58.2552Z" fill="#20DF92"/>
<path d="M62.0684 85.9165V84.964H66.132C66.633 84.964 66.9114 84.6839 66.9114 84.2356C66.9114 83.7594 66.633 83.5352 66.132 83.5352H63.627C62.5972 83.5352 61.957 82.8909 61.957 81.9664C61.957 81.0979 62.5415 80.4255 63.627 80.4255H67.5237V81.3781H63.627C63.1817 81.3781 62.9312 81.6302 62.9312 82.0504C62.9312 82.4706 63.1817 82.7228 63.5992 82.7228H66.0764C67.1619 82.7228 67.7742 83.2551 67.7742 84.2916C67.7742 85.2161 67.2175 85.8885 66.0764 85.8885H62.0684V85.9165Z" fill="#20DF92"/>
<path d="M74.5656 85.9166V80.4536H79.1859V81.4061H75.5119V85.9166H74.5656ZM76.2077 83.6473V82.8069H78.9632V83.6473H76.2077Z" fill="#20DF92"/>
<path d="M84.1958 85.9165C82.665 85.9165 81.5516 84.7119 81.5516 83.115C81.5516 81.5181 82.665 80.4255 84.1958 80.4255H85.5318C87.0905 80.4255 88.2038 81.5181 88.2038 83.115C88.2038 84.7119 87.0905 85.9165 85.5318 85.9165H84.1958ZM85.5318 84.964C86.5338 84.964 87.2297 84.2076 87.2297 83.171C87.2297 82.1345 86.506 81.4061 85.5318 81.4061H84.1958C83.2216 81.4061 82.498 82.1345 82.498 83.171C82.498 84.2076 83.2216 84.964 84.1958 84.964H85.5318Z" fill="#20DF92"/>
<path d="M95.8859 85.9166L94.522 84.4037H92.4902V83.5633H94.7447C95.4127 83.5633 95.7745 83.1711 95.7745 82.4707C95.7745 81.7703 95.3849 81.4061 94.7447 81.4061H91.7944V85.9166H90.848V80.4536H94.7447C95.9972 80.4536 96.7209 81.238 96.7209 82.4427C96.7209 83.3392 96.3034 83.9835 95.6075 84.2637L97.2497 85.9166H95.8859Z" fill="#20DF92"/>
<path d="M105.989 85.9183V81.4078H103.93V80.4553H108.995V81.4078H106.936V85.9183H105.989Z" fill="#20DF92"/>
<path d="M116.566 85.9165L115.202 84.4036H113.17V83.5632H115.425C116.093 83.5632 116.455 83.1709 116.455 82.4706C116.455 81.7702 116.065 81.406 115.425 81.406H112.474V85.9165H111.528V80.4535H115.425C116.677 80.4535 117.401 81.2379 117.401 82.4426C117.401 83.339 116.983 83.9834 116.288 84.2635L117.93 85.9165H116.566Z" fill="#20DF92"/>
<path d="M125.918 85.9165L125.111 84.5438H122.55L122.996 83.7594H124.666L123.441 81.7142L120.964 85.9165H119.878L122.996 80.6777C123.107 80.4816 123.246 80.3695 123.469 80.3695C123.691 80.3695 123.803 80.4816 123.914 80.6777L127.059 85.9165H125.918Z" fill="#20DF92"/>
<path d="M129.536 85.9164V80.4535H132.682C134.212 80.4535 135.326 81.5461 135.326 83.1429C135.326 84.7398 134.212 85.9445 132.682 85.9445H129.536V85.9164ZM132.682 84.9639C133.656 84.9639 134.379 84.2075 134.379 83.1709C134.379 82.1344 133.656 81.406 132.682 81.406H130.483V84.9639H132.682Z" fill="#20DF92"/>
<path d="M137.97 85.9165V80.4535H142.813V81.406H138.916V84.9639H142.841V85.9165H137.97ZM139.612 83.5352V82.7227H142.618V83.5352H139.612Z" fill="#20DF92"/>
<path d="M150.551 85.9165L149.187 84.4036H147.155V83.5632H149.409C150.077 83.5632 150.439 83.1709 150.439 82.4706C150.439 81.7702 150.05 81.406 149.409 81.406H146.459V85.9165H145.513V80.4535H149.409C150.662 80.4535 151.386 81.2379 151.386 82.4426C151.386 83.339 150.968 83.9834 150.272 84.2635L151.914 85.9165H150.551Z" fill="#20DF92"/>
<path d="M154.28 85.9165V84.964H158.344C158.845 84.964 159.123 84.6839 159.123 84.2356C159.123 83.7594 158.845 83.5352 158.344 83.5352H155.839C154.809 83.5352 154.169 82.8909 154.169 81.9664C154.169 81.0979 154.753 80.4255 155.839 80.4255H159.736V81.3781H155.839C155.394 81.3781 155.143 81.6302 155.143 82.0504C155.143 82.4706 155.394 82.7228 155.811 82.7228H158.288C159.374 82.7228 159.986 83.2551 159.986 84.2916C159.986 85.2161 159.429 85.8885 158.288 85.8885H154.28V85.9165Z" fill="#20DF92"/>
<path d="M103.512 16.9782C102.983 7.65021 95.2735 0.198997 85.9771 0.00291275C81.2733 -0.0811235 76.7921 1.65563 73.3408 4.90503C70.0565 8.01437 68.0803 12.1602 67.7463 16.6141L67.6906 19.7794L63.46 32.2168H68.4421L69.2771 42.8894L78.4621 41.7689L79.8816 51.0689L82.6093 50.2566L80.828 38.6036L71.8378 39.724L71.0306 29.3876H67.3845L70.5018 20.2837V18.0427C70.5018 13.8689 72.2553 9.80714 75.317 6.92189C78.4065 4.00864 82.4423 2.58002 86.673 2.86014C94.1045 3.36436 100.116 9.41497 100.673 16.8942C100.812 18.9671 100.562 21.012 99.8938 22.9448L96.4425 32.9731L98.8361 45.4665L101.564 44.6542L99.365 33.1692L102.566 23.8412C103.317 21.6562 103.651 19.3312 103.512 16.9782Z" fill="#0079FE"/>
<path d="M74.5655 22.3011L76.7087 20.1442C76.7922 20.0601 76.8757 19.9761 76.9592 19.8921L80.8837 23.8418C81.329 24.29 82.0805 24.29 82.5258 23.8418C82.8598 23.5056 83.1938 23.1695 83.5 22.8613C84.2793 22.077 85.0587 21.2927 85.838 20.5083L88.677 17.6511C89.2337 17.0909 89.7904 16.5306 90.347 15.9704V19.612C90.347 20.2282 90.8759 20.8165 91.516 20.7885C92.1562 20.7604 92.685 20.2842 92.685 19.612V13.1412C92.685 13.0291 92.6572 12.9171 92.6294 12.805C92.5737 12.6089 92.4902 12.4409 92.3232 12.3008C92.2953 12.2728 92.2953 12.2728 92.2675 12.2448C92.0727 12.0767 91.7944 11.9646 91.516 11.9646H85.0865C84.4742 11.9646 83.8897 12.4969 83.9175 13.1412C83.9453 13.7854 84.4185 14.3177 85.0865 14.3177H88.7048C88.2595 14.7659 87.8142 15.214 87.3689 15.6622C86.4225 16.6146 85.4762 17.5671 84.5299 18.5195C83.7227 19.3318 82.9155 20.1442 82.0805 20.9845C81.9414 21.1246 81.83 21.2366 81.6908 21.3767L78.3508 18.0153C78.156 17.8192 77.9612 17.6231 77.7664 17.427C77.321 16.9788 76.5695 16.9788 76.1242 17.427C75.8458 17.7071 75.5397 18.0153 75.2614 18.2954C74.5655 18.9957 73.8975 19.668 73.2017 20.3683C73.0347 20.5364 72.8955 20.6764 72.7285 20.8445C72.6172 20.1442 72.5337 19.4439 72.5337 18.6876C72.5337 11.5445 78.2952 5.74597 85.3927 5.74597C92.4902 5.74597 98.2517 11.5445 98.2517 18.6876C98.2517 25.8306 92.4902 31.6291 85.3927 31.6291C79.9652 31.6291 75.317 28.2397 73.4522 23.4496C73.814 23.0574 74.2037 22.6933 74.5655 22.3011Z" fill="#20DF92"/>
</svg>
