<?xml version="1.0" encoding="utf-8" standalone="no"?>
<svg width="244" height="66" viewBox="0 0 244 66" fill="none" xmlns="http://www.w3.org/2000/svg">
<path d="M32.8996 10.8071V2.01975H51.4598V60H41.6048V10.8071H32.8996ZM66.9884 43.2465C67.4264 46.3672 68.4941 48.7762 70.1913 50.4735C71.9433 52.1707 74.2976 53.0194 77.2541 53.0194C81.4151 53.0194 84.5084 51.3769 86.5342 48.0919C88.6147 44.7521 89.6549 39.5235 89.6549 32.406L89.5728 29.6137C88.6968 32.5702 86.8627 34.9519 84.0704 36.7586C81.3329 38.5106 78.1301 39.3866 74.4618 39.3866C68.7678 39.3866 64.3057 37.6894 61.0754 34.2949C57.8452 30.8456 56.2301 26.055 56.2301 19.923C56.2301 16.2 56.9692 12.8602 58.4474 9.90375C59.9257 6.94725 62.1431 4.62037 65.0996 2.92312C68.0561 1.17112 71.6969 0.29512 76.0222 0.29512C84.3989 0.29512 90.1477 2.86837 93.2684 8.01487C96.4439 13.1066 98.0317 20.1694 98.0317 29.2031C98.0317 39.4414 96.4166 47.2432 93.1863 52.6087C90.0108 57.9742 84.7001 60.657 77.2541 60.657C71.5053 60.657 66.9884 59.0419 63.7034 55.8116C60.4732 52.5266 58.6117 48.3382 58.1189 43.2465H66.9884ZM88.6694 20.9085C88.6694 17.3497 87.6292 14.3932 85.5487 12.039C83.5229 9.63 80.4569 8.4255 76.3507 8.4255C72.9562 8.4255 70.2187 9.43837 68.1382 11.4641C66.1124 13.4899 65.0996 16.3369 65.0996 20.0051C65.0996 23.8924 66.1124 26.8762 68.1382 28.9567C70.2187 31.0372 73.0383 32.0775 76.5971 32.0775C78.6776 32.0775 80.6212 31.6669 82.4279 30.8456C84.2894 29.9696 85.7951 28.7104 86.9448 27.0679C88.0946 25.3706 88.6694 23.3175 88.6694 20.9085ZM107.608 52.1434V60H99.5648V52.1434H107.608ZM116.042 47.2797C116.375 49.6492 117.186 51.4783 118.474 52.7669C119.804 54.0556 121.592 54.6999 123.837 54.6999C126.996 54.6999 129.345 53.4528 130.883 50.9586C132.462 48.4229 133.252 44.453 133.252 39.049L133.19 36.929C132.525 39.1737 131.132 40.982 129.012 42.3538C126.934 43.684 124.502 44.3491 121.717 44.3491C117.393 44.3491 114.005 43.0604 111.553 40.4831C109.1 37.8643 107.874 34.2269 107.874 29.5712C107.874 26.7444 108.435 24.2087 109.558 21.964C110.68 19.7192 112.364 17.9525 114.608 16.6639C116.853 15.3336 119.617 14.6685 122.901 14.6685C129.261 14.6685 133.626 16.6223 135.996 20.5298C138.407 24.3958 139.612 29.7582 139.612 36.6172C139.612 44.3907 138.386 50.3143 135.933 54.3881C133.522 58.4619 129.49 60.4988 123.837 60.4988C119.472 60.4988 116.042 59.2725 113.548 56.8199C111.096 54.3258 109.682 51.1457 109.308 47.2797H116.042ZM132.504 30.3194C132.504 27.6174 131.714 25.3727 130.134 23.5852C128.596 21.7561 126.268 20.8416 123.151 20.8416C120.573 20.8416 118.495 21.6106 116.915 23.1487C115.377 24.6868 114.608 26.8484 114.608 29.6335C114.608 32.585 115.377 34.8505 116.915 36.4301C118.495 38.0098 120.636 38.7996 123.338 38.7996C124.917 38.7996 126.393 38.4878 127.765 37.8643C129.178 37.1992 130.322 36.2431 131.194 34.996C132.067 33.7073 132.504 32.1485 132.504 30.3194ZM171.991 21.5898H150.23V34.6842C151.227 33.3956 152.641 32.3771 154.47 31.6289C156.299 30.839 158.315 30.4441 160.518 30.4441C163.594 30.4441 166.151 31.1092 168.188 32.4395C170.225 33.7281 171.721 35.4532 172.677 37.6149C173.675 39.7765 174.174 42.1667 174.174 44.7856C174.174 49.3998 172.885 53.141 170.308 56.0093C167.73 58.8361 163.989 60.2494 159.084 60.2494C154.47 60.2494 150.749 59.0231 147.923 56.5705C145.096 54.1179 143.558 50.8547 143.308 46.7809H150.292C150.666 49.0257 151.581 50.7924 153.036 52.081C154.532 53.3697 156.423 54.014 158.71 54.014C161.536 54.014 163.657 53.1618 165.07 51.4575C166.483 49.7531 167.19 47.4876 167.19 44.6609C167.19 42.0004 166.462 39.922 165.008 38.4255C163.553 36.8874 161.474 36.1184 158.772 36.1184C156.86 36.1184 155.176 36.534 153.721 37.3654C152.308 38.1968 151.269 39.2984 150.604 40.6702H143.682V15.2921H171.991V21.5898Z" fill="white"/>
<path opacity="0.7" d="M12.1034 30.39C13.5834 30.83 14.7434 31.25 15.5834 31.65C16.4234 32.03 17.1434 32.62 17.7434 33.42C18.3634 34.22 18.6734 35.29 18.6734 36.63C18.6734 37.59 18.4434 38.5 17.9834 39.36C17.5234 40.2 16.8134 40.89 15.8534 41.43C14.8934 41.95 13.6934 42.21 12.2534 42.21H12.1034V44.61H11.2934V42.18C9.45336 42 7.95336 41.39 6.79336 40.35C5.63336 39.29 4.98336 38 4.84336 36.48H7.06336C7.16336 37.38 7.57336 38.23 8.29336 39.03C9.03336 39.83 10.0334 40.31 11.2934 40.47V32.07C9.83336 31.63 8.68336 31.23 7.84336 30.87C7.00336 30.49 6.28336 29.92 5.68336 29.16C5.08336 28.38 4.78336 27.33 4.78336 26.01C4.78336 24.95 5.04336 24.02 5.56336 23.22C6.08336 22.4 6.82336 21.76 7.78336 21.3C8.76336 20.84 9.91336 20.61 11.2334 20.61H11.2934V18H12.1034V20.64C13.8834 20.78 15.2934 21.33 16.3334 22.29C17.3734 23.25 18.0034 24.4 18.2234 25.74H15.9734C15.8134 24.94 15.4034 24.21 14.7434 23.55C14.1034 22.89 13.2234 22.48 12.1034 22.32V30.39ZM7.00336 25.92C7.00336 27.1 7.36336 27.99 8.08336 28.59C8.82336 29.17 9.89336 29.69 11.2934 30.15V22.26H11.2334C9.93336 22.26 8.90336 22.58 8.14336 23.22C7.38336 23.86 7.00336 24.76 7.00336 25.92ZM12.1934 40.53C13.5534 40.53 14.6034 40.17 15.3434 39.45C16.0834 38.71 16.4534 37.78 16.4534 36.66C16.4534 35.46 16.0734 34.55 15.3134 33.93C14.5734 33.29 13.5034 32.76 12.1034 32.34V40.53H12.1934Z" fill="white"/>
<path opacity="0.7" d="M195.225 31.95L188.375 59.775H186.175L193 31.95H195.225ZM220.203 41.55C221.803 41.55 223.086 42.0667 224.053 43.1C225.036 44.1167 225.528 45.5917 225.528 47.525V55.5H223.253V47.725C223.253 46.375 222.92 45.3417 222.253 44.625C221.603 43.9083 220.703 43.55 219.553 43.55C218.353 43.55 217.386 43.95 216.653 44.75C215.936 45.5333 215.578 46.6917 215.578 48.225V55.5H213.303V47.725C213.303 46.375 212.97 45.3417 212.303 44.625C211.636 43.9083 210.736 43.55 209.603 43.55C208.386 43.55 207.411 43.95 206.678 44.75C205.961 45.5333 205.603 46.6917 205.603 48.225V55.5H203.328V41.775H205.603V44.9C205.936 43.8167 206.528 42.9917 207.378 42.425C208.245 41.8417 209.236 41.55 210.353 41.55C211.52 41.55 212.528 41.85 213.378 42.45C214.245 43.0333 214.861 43.9 215.228 45.05C215.611 43.9333 216.253 43.075 217.153 42.475C218.053 41.8583 219.07 41.55 220.203 41.55ZM235.285 41.6C236.602 41.6 237.777 41.8833 238.81 42.45C239.86 43.0167 240.677 43.8333 241.26 44.9C241.86 45.9667 242.16 47.2167 242.16 48.65C242.16 50.0833 241.86 51.3333 241.26 52.4C240.677 53.45 239.86 54.2583 238.81 54.825C237.777 55.3917 236.602 55.675 235.285 55.675C233.969 55.675 232.785 55.3917 231.735 54.825C230.702 54.2583 229.885 53.45 229.285 52.4C228.685 51.3333 228.385 50.0833 228.385 48.65C228.385 47.2167 228.685 45.9667 229.285 44.9C229.885 43.8333 230.702 43.0167 231.735 42.45C232.785 41.8833 233.969 41.6 235.285 41.6ZM235.285 43.6C234.469 43.6 233.71 43.7833 233.01 44.15C232.327 44.5167 231.769 45.0833 231.335 45.85C230.919 46.6 230.71 47.5333 230.71 48.65C230.71 49.75 230.919 50.6833 231.335 51.45C231.769 52.2 232.327 52.7583 233.01 53.125C233.71 53.4917 234.469 53.675 235.285 53.675C236.102 53.675 236.852 53.4917 237.535 53.125C238.235 52.7583 238.794 52.2 239.21 51.45C239.644 50.6833 239.86 49.75 239.86 48.65C239.86 47.5333 239.644 46.6 239.21 45.85C238.794 45.0833 238.235 44.5167 237.535 44.15C236.852 43.7833 236.102 43.6 235.285 43.6Z" fill="white"/>
</svg>
