<?xml version="1.0" encoding="utf-8" standalone="no"?>
<svg width="343" height="307" viewBox="0 0 343 307" fill="none" xmlns="http://www.w3.org/2000/svg">
<rect opacity="0.06" width="343" height="307" rx="12" fill="white"/>
<line x1="45" y1="125.5" x2="327" y2="125.5" stroke="#50575B"/>
<line x1="45" y1="196.5" x2="327" y2="196.5" stroke="#50575B"/>
<line x1="45" y1="267.5" x2="327" y2="267.5" stroke="#50575B"/>
<path d="M46.3856 233.132C45.6299 233.471 45.2923 234.359 45.6316 235.114C45.9709 235.87 46.8586 236.208 47.6144 235.868L46.3856 233.132ZM91.5 223.5L92.2877 222.223L91.5 222V223.5ZM135 231.5V230L134.536 230.073L135 231.5ZM241.5 167L240.439 168.061L240.585 168.189L241.5 167ZM303.5 194L302.192 194.734L304.962 194.334L303.5 194ZM307.5 176.5L306.39 175.491L306.038 176.166L307.5 176.5ZM330.125 161.364C330.878 161.018 331.209 160.128 330.864 159.375C330.518 158.622 329.628 158.291 328.875 158.636L330.125 161.364ZM71.5 223.5V222L70.8856 222.132L71.5 223.5ZM115 238L114.212 239.277L115.464 239.427L115 238ZM153.5 231.5V233L154.748 232.332L153.5 231.5ZM202 179L200.773 178.137L200.744 178.181L202 179ZM211.5 165.5L210.955 164.103L210.273 164.637L211.5 165.5ZM263 165.5L263.596 166.876L263.909 166.693L263 165.5ZM273.5 157.5L274.244 156.198L272.591 156.307L273.5 157.5ZM287.5 165.5L288.808 164.766L288.244 164.198L287.5 165.5ZM232 157.5L233.061 156.439L231.455 156.103L232 157.5ZM248 172L247.085 173.189L248.596 173.376L248 172ZM317.5 165.5L316.875 164.136L316.39 164.491L317.5 165.5ZM187 202L187.707 203.323L188.256 202.819L187 202ZM165.5 213.5L164.793 212.177L164.252 212.668L165.5 213.5ZM304.962 194.334L308.962 176.834L306.038 176.166L302.038 193.666L304.962 194.334ZM47.6144 235.868L72.1144 224.868L70.8856 222.132L46.3856 233.132L47.6144 235.868ZM71.5 225H91.5V222H71.5V225ZM90.7123 224.777L114.212 239.277L115.788 236.723L92.2877 222.223L90.7123 224.777ZM115.464 239.427L135.464 232.927L134.536 230.073L114.536 236.573L115.464 239.427ZM135 233H153.5V230H135V233ZM203.227 179.863L212.727 166.363L210.273 164.637L200.773 178.137L203.227 179.863ZM263.909 166.693L274.409 158.693L272.591 156.307L262.091 164.307L263.909 166.693ZM272.756 158.802L286.756 166.802L288.244 164.198L274.244 156.198L272.756 158.802ZM286.192 166.234L302.192 194.734L304.808 193.266L288.808 164.766L286.192 166.234ZM212.045 166.897L232.545 158.897L231.455 156.103L210.955 164.103L212.045 166.897ZM230.939 158.561L240.439 168.061L242.561 165.939L233.061 156.439L230.939 158.561ZM240.585 168.189L247.085 173.189L248.915 170.811L242.415 165.811L240.585 168.189ZM248.596 173.376L263.596 166.876L262.404 164.124L247.404 170.624L248.596 173.376ZM308.61 177.509L318.61 166.509L316.39 164.491L306.39 175.491L308.61 177.509ZM318.125 166.864L330.125 161.364L328.875 158.636L316.875 164.136L318.125 166.864ZM188.256 202.819L203.256 179.819L200.744 178.181L185.744 201.181L188.256 202.819ZM154.748 232.332L166.748 214.332L164.252 212.668L152.252 230.668L154.748 232.332ZM166.207 214.823L187.707 203.323L186.293 200.677L164.793 212.177L166.207 214.823Z" fill="#6FCF97"/>
<circle cx="71" cy="224" r="4" fill="#6FCF97"/>
<circle cx="47" cy="234" r="4" fill="#6FCF97"/>
<circle cx="92" cy="224" r="4" fill="#6FCF97"/>
<circle cx="135" cy="232" r="4" fill="#6FCF97"/>
<circle cx="115" cy="237" r="4" fill="#6FCF97"/>
<circle cx="153" cy="231" r="4" fill="#6FCF97"/>
<circle cx="167" cy="213" r="4" fill="#6FCF97"/>
<circle cx="187" cy="202" r="4" fill="#6FCF97"/>
<circle cx="212" cy="166" r="4" fill="#6FCF97"/>
<circle cx="232" cy="158" r="4" fill="#6FCF97"/>
<circle cx="198" cy="184" r="4" fill="#6FCF97"/>
<circle cx="240" cy="166" r="4" fill="#6FCF97"/>
<circle cx="248" cy="171" r="4" fill="#6FCF97"/>
<circle cx="264" cy="165" r="4" fill="#6FCF97"/>
<circle cx="274" cy="158" r="4" fill="#6FCF97"/>
<circle cx="288" cy="166" r="4" fill="#6FCF97"/>
<circle cx="304" cy="193" r="4" fill="#6FCF97"/>
<circle cx="329" cy="160" r="4" fill="#6FCF97"/>
<circle cx="317" cy="166" r="4" fill="#6FCF97"/>
<circle cx="308" cy="176" r="4" fill="#6FCF97"/>
<path d="M45.4035 217.509C44.6434 217.838 44.2943 218.722 44.6237 219.482C44.9532 220.242 45.8364 220.591 46.5965 220.262L45.4035 217.509ZM90.5 217L91.7 216.1L90.92 215.56L90.5 217ZM118 265L116.65 265.654L119.453 265.373L118 265ZM219 127.5L220.078 126.457L217.957 126.422L219 127.5ZM289 217L287.607 217.557L290.445 217.404L289 217ZM298.5 183L297.325 182.067L297.055 182.596L298.5 183ZM328.974 161.923C329.76 161.661 330.185 160.812 329.923 160.026C329.661 159.24 328.812 158.815 328.026 159.077L328.974 161.923ZM66.5 210L66.92 208.56L65.9035 208.624L66.5 210ZM102.5 233L103.85 232.346L103.7 232.1L102.5 233ZM133 206.565L131.895 205.55L131.547 206.192L133 206.565ZM179 166L178.699 164.531L177.599 165.464L179 166ZM198.5 162L198.801 163.469L199.953 162.373L198.5 162ZM251 148.5L252.382 147.917L251.486 147.081L251 148.5ZM260.5 171L259.118 171.583L259.41 172.031L260.5 171ZM278 189.5L279.393 188.943L279.09 188.469L278 189.5ZM203.5 142.5L202.457 141.422L202.047 142.127L203.5 142.5ZM233.5 142.5L232.422 143.543L233.014 143.919L233.5 142.5ZM312 166L311.526 164.577L310.825 165.067L312 166ZM172.5 183L172.801 184.47L173.901 183.536L172.5 183ZM150.5 187.5L150.199 186.03L149.395 186.486L150.5 187.5ZM290.445 217.404L299.945 183.404L297.055 182.596L287.555 216.596L290.445 217.404ZM46.5965 220.262L67.0965 211.376L65.9035 208.624L45.4035 217.509L46.5965 220.262ZM66.08 211.44L90.08 218.44L90.92 215.56L66.92 208.56L66.08 211.44ZM89.3 217.9L101.3 233.9L103.7 232.1L91.7 216.1L89.3 217.9ZM101.15 233.654L116.65 265.654L119.35 264.346L103.85 232.346L101.15 233.654ZM119.453 265.373L134.453 206.937L131.547 206.192L116.547 264.627L119.453 265.373ZM179.301 167.469L198.801 163.469L198.199 160.531L178.699 164.531L179.301 167.469ZM249.618 149.083L259.118 171.583L261.882 170.417L252.382 147.917L249.618 149.083ZM259.41 172.031L276.91 190.531L279.09 188.469L261.59 169.969L259.41 172.031ZM276.607 190.057L287.607 217.557L290.393 216.443L279.393 188.943L276.607 190.057ZM199.953 162.373L204.953 142.873L202.047 142.127L197.047 161.627L199.953 162.373ZM204.543 143.578L220.043 128.578L217.957 126.422L202.457 141.422L204.543 143.578ZM217.922 128.543L232.422 143.543L234.578 141.457L220.078 126.457L217.922 128.543ZM233.014 143.919L250.514 149.919L251.486 147.081L233.986 141.081L233.014 143.919ZM299.675 183.933L313.175 166.933L310.825 165.067L297.325 182.067L299.675 183.933ZM312.474 167.423L328.974 161.923L328.026 159.077L311.526 164.577L312.474 167.423ZM173.901 183.536L180.401 166.536L177.599 165.464L171.099 182.464L173.901 183.536ZM134.105 207.579L151.605 188.514L149.395 186.486L131.895 205.55L134.105 207.579ZM150.801 188.97L172.801 184.47L172.199 181.53L150.199 186.03L150.801 188.97Z" fill="#2F80ED"/>
<circle cx="67" cy="210" r="4" fill="#2F80ED"/>
<circle cx="47" cy="219" r="4" fill="#2F80ED"/>
<circle cx="91" cy="217" r="4" fill="#2F80ED"/>
<circle cx="102" cy="233" r="4" fill="#2F80ED"/>
<circle cx="118" cy="263" r="4" fill="#2F80ED"/>
<circle cx="133" cy="207" r="4" fill="#2F80ED"/>
<circle cx="150" cy="188" r="4" fill="#2F80ED"/>
<circle cx="172" cy="183" r="4" fill="#2F80ED"/>
<circle cx="179" cy="166" r="4" fill="#2F80ED"/>
<circle cx="198" cy="162" r="4" fill="#2F80ED"/>
<circle cx="204" cy="143" r="4" fill="#2F80ED"/>
<circle cx="219" cy="128" r="4" fill="#2F80ED"/>
<circle cx="234" cy="142" r="4" fill="#2F80ED"/>
<circle cx="251" cy="149" r="4" fill="#2F80ED"/>
<circle cx="261" cy="171" r="4" fill="#2F80ED"/>
<circle cx="278" cy="189" r="4" fill="#2F80ED"/>
<circle cx="289" cy="216" r="4" fill="#2F80ED"/>
<circle cx="329" cy="160" r="4" fill="#2F80ED"/>
<circle cx="312" cy="167" r="4" fill="#2F80ED"/>
<circle cx="299" cy="183" r="4" fill="#2F80ED"/>
<path d="M16.532 122.04V120.878H19.164V131H17.876V122.04H16.532ZM21.3524 125.834C21.3524 124.229 21.6137 122.978 22.1364 122.082C22.659 121.177 23.5737 120.724 24.8804 120.724C26.1777 120.724 27.0877 121.177 27.6104 122.082C28.133 122.978 28.3944 124.229 28.3944 125.834C28.3944 127.467 28.133 128.737 27.6104 129.642C27.0877 130.547 26.1777 131 24.8804 131C23.5737 131 22.659 130.547 22.1364 129.642C21.6137 128.737 21.3524 127.467 21.3524 125.834ZM27.1344 125.834C27.1344 125.022 27.0784 124.336 26.9664 123.776C26.8637 123.207 26.6444 122.749 26.3084 122.404C25.9817 122.059 25.5057 121.886 24.8804 121.886C24.2457 121.886 23.7604 122.059 23.4244 122.404C23.0977 122.749 22.8784 123.207 22.7664 123.776C22.6637 124.336 22.6124 125.022 22.6124 125.834C22.6124 126.674 22.6637 127.379 22.7664 127.948C22.8784 128.517 23.0977 128.975 23.4244 129.32C23.7604 129.665 24.2457 129.838 24.8804 129.838C25.5057 129.838 25.9817 129.665 26.3084 129.32C26.6444 128.975 26.8637 128.517 26.9664 127.948C27.0784 127.379 27.1344 126.674 27.1344 125.834ZM30.1434 125.834C30.1434 124.229 30.4047 122.978 30.9274 122.082C31.4501 121.177 32.3647 120.724 33.6714 120.724C34.9687 120.724 35.8787 121.177 36.4014 122.082C36.9241 122.978 37.1854 124.229 37.1854 125.834C37.1854 127.467 36.9241 128.737 36.4014 129.642C35.8787 130.547 34.9687 131 33.6714 131C32.3647 131 31.4501 130.547 30.9274 129.642C30.4047 128.737 30.1434 127.467 30.1434 125.834ZM35.9254 125.834C35.9254 125.022 35.8694 124.336 35.7574 123.776C35.6547 123.207 35.4354 122.749 35.0994 122.404C34.7727 122.059 34.2967 121.886 33.6714 121.886C33.0367 121.886 32.5514 122.059 32.2154 122.404C31.8887 122.749 31.6694 123.207 31.5574 123.776C31.4547 124.336 31.4034 125.022 31.4034 125.834C31.4034 126.674 31.4547 127.379 31.5574 127.948C31.6694 128.517 31.8887 128.975 32.2154 129.32C32.5514 129.665 33.0367 129.838 33.6714 129.838C34.2967 129.838 34.7727 129.665 35.0994 129.32C35.4354 128.975 35.6547 128.517 35.7574 127.948C35.8694 127.379 35.9254 126.674 35.9254 125.834ZM43.4284 131L40.4184 127.612V131H39.1444V120.64H40.4184V126.73L43.3724 123.328H45.1504L41.5384 127.15L45.1644 131H43.4284Z" fill="white"/>
<path d="M23.322 192.984H18.408V196.176C18.6227 195.877 18.94 195.635 19.36 195.448C19.78 195.252 20.2327 195.154 20.718 195.154C21.4927 195.154 22.1227 195.317 22.608 195.644C23.0933 195.961 23.4387 196.377 23.644 196.89C23.8587 197.394 23.966 197.931 23.966 198.5C23.966 199.172 23.84 199.774 23.588 200.306C23.336 200.838 22.9487 201.258 22.426 201.566C21.9127 201.874 21.2733 202.028 20.508 202.028C19.528 202.028 18.7347 201.776 18.128 201.272C17.5213 200.768 17.1527 200.096 17.022 199.256H18.268C18.3893 199.788 18.646 200.203 19.038 200.502C19.43 200.801 19.9247 200.95 20.522 200.95C21.2593 200.95 21.8147 200.731 22.188 200.292C22.5613 199.844 22.748 199.256 22.748 198.528C22.748 197.8 22.5613 197.24 22.188 196.848C21.8147 196.447 21.264 196.246 20.536 196.246C20.0413 196.246 19.6073 196.367 19.234 196.61C18.87 196.843 18.604 197.165 18.436 197.576H17.232V191.864H23.322V192.984ZM25.659 196.834C25.659 195.229 25.9203 193.978 26.443 193.082C26.9657 192.177 27.8803 191.724 29.187 191.724C30.4843 191.724 31.3943 192.177 31.917 193.082C32.4397 193.978 32.701 195.229 32.701 196.834C32.701 198.467 32.4397 199.737 31.917 200.642C31.3943 201.547 30.4843 202 29.187 202C27.8803 202 26.9657 201.547 26.443 200.642C25.9203 199.737 25.659 198.467 25.659 196.834ZM31.441 196.834C31.441 196.022 31.385 195.336 31.273 194.776C31.1703 194.207 30.951 193.749 30.615 193.404C30.2883 193.059 29.8123 192.886 29.187 192.886C28.5523 192.886 28.067 193.059 27.731 193.404C27.4043 193.749 27.185 194.207 27.073 194.776C26.9703 195.336 26.919 196.022 26.919 196.834C26.919 197.674 26.9703 198.379 27.073 198.948C27.185 199.517 27.4043 199.975 27.731 200.32C28.067 200.665 28.5523 200.838 29.187 200.838C29.8123 200.838 30.2883 200.665 30.615 200.32C30.951 199.975 31.1703 199.517 31.273 198.948C31.385 198.379 31.441 197.674 31.441 196.834ZM38.944 202L35.934 198.612V202H34.66V191.64H35.934V197.73L38.888 194.328H40.666L37.054 198.15L40.68 202H38.944Z" fill="white"/>
<path d="M16.532 264.04V262.878H19.164V273H17.876V264.04H16.532ZM21.3524 267.834C21.3524 266.229 21.6137 264.978 22.1364 264.082C22.659 263.177 23.5737 262.724 24.8804 262.724C26.1777 262.724 27.0877 263.177 27.6104 264.082C28.133 264.978 28.3944 266.229 28.3944 267.834C28.3944 269.467 28.133 270.737 27.6104 271.642C27.0877 272.547 26.1777 273 24.8804 273C23.5737 273 22.659 272.547 22.1364 271.642C21.6137 270.737 21.3524 269.467 21.3524 267.834ZM27.1344 267.834C27.1344 267.022 27.0784 266.336 26.9664 265.776C26.8637 265.207 26.6444 264.749 26.3084 264.404C25.9817 264.059 25.5057 263.886 24.8804 263.886C24.2457 263.886 23.7604 264.059 23.4244 264.404C23.0977 264.749 22.8784 265.207 22.7664 265.776C22.6637 266.336 22.6124 267.022 22.6124 267.834C22.6124 268.674 22.6637 269.379 22.7664 269.948C22.8784 270.517 23.0977 270.975 23.4244 271.32C23.7604 271.665 24.2457 271.838 24.8804 271.838C25.5057 271.838 25.9817 271.665 26.3084 271.32C26.6444 270.975 26.8637 270.517 26.9664 269.948C27.0784 269.379 27.1344 268.674 27.1344 267.834ZM34.6374 273L31.6274 269.612V273H30.3534V262.64H31.6274V268.73L34.5814 265.328H36.3594L32.7474 269.15L36.3734 273H34.6374Z" fill="white"/>
<path opacity="0.6" d="M31.968 68.592V72H30.876V63.54H33.564C34.532 63.54 35.256 63.768 35.736 64.224C36.216 64.672 36.456 65.288 36.456 66.072C36.456 66.864 36.208 67.484 35.712 67.932C35.216 68.372 34.5 68.592 33.564 68.592H31.968ZM33.468 67.68C34.132 67.68 34.608 67.54 34.896 67.26C35.192 66.98 35.34 66.584 35.34 66.072C35.34 65.544 35.192 65.144 34.896 64.872C34.608 64.592 34.132 64.452 33.468 64.452H31.968V67.68H33.468ZM43.8395 72L41.9915 69.96C41.9915 70.088 41.9675 70.248 41.9195 70.44C41.8315 70.928 41.5955 71.324 41.2115 71.628C40.8275 71.932 40.3635 72.084 39.8195 72.084C39.3235 72.084 38.8835 71.98 38.4995 71.772C38.1155 71.556 37.8155 71.26 37.5995 70.884C37.3835 70.5 37.2755 70.06 37.2755 69.564C37.2755 69.068 37.3715 68.64 37.5635 68.28C37.7635 67.912 38.0275 67.636 38.3555 67.452C38.6835 67.26 39.0475 67.164 39.4475 67.164C39.5115 67.164 39.5995 67.172 39.7115 67.188L39.5315 66.96C39.3075 66.688 39.1355 66.432 39.0155 66.192C38.9035 65.944 38.8475 65.656 38.8475 65.328C38.8475 65 38.9275 64.696 39.0875 64.416C39.2555 64.128 39.5035 63.896 39.8315 63.72C40.1595 63.544 40.5515 63.456 41.0075 63.456C41.6955 63.456 42.2195 63.628 42.5795 63.972C42.9475 64.316 43.1635 64.748 43.2275 65.268C43.2755 65.444 43.2995 65.624 43.2995 65.808C43.2995 65.888 43.2955 65.948 43.2875 65.988H42.2555C42.2635 65.932 42.2635 65.868 42.2555 65.796C42.2555 65.716 42.2555 65.66 42.2555 65.628C42.2475 65.228 42.1355 64.92 41.9195 64.704C41.7035 64.48 41.4035 64.368 41.0195 64.368C40.6675 64.368 40.3875 64.472 40.1795 64.68C39.9795 64.888 39.8795 65.14 39.8795 65.436C39.8795 65.684 39.9235 65.896 40.0115 66.072C40.1075 66.248 40.2595 66.456 40.4675 66.696L44.9555 72H43.8395ZM39.8195 71.148C40.2595 71.148 40.6195 71.008 40.8995 70.728C41.1875 70.448 41.3315 70.088 41.3315 69.648C41.3315 69.344 41.2515 69.068 41.0915 68.82C40.9315 68.572 40.7235 68.376 40.4675 68.232C40.2115 68.088 39.9435 68.016 39.6635 68.016C39.2475 68.016 38.9035 68.148 38.6315 68.412C38.3675 68.676 38.2355 69.052 38.2355 69.54C38.2355 70.036 38.3875 70.428 38.6915 70.716C38.9955 71.004 39.3715 71.148 39.8195 71.148ZM47.0032 71.148H50.0032V72H45.9112V63.54H47.0032V71.148Z" fill="white"/>
<circle cx="20" cy="68" r="4" fill="#6FCF97"/>
<path opacity="0.6" d="M92.348 63.684V72H91.256V65.364L88.604 72H87.632L84.968 65.388V72H83.876V63.684H85.184L88.136 70.668L91.04 63.684H92.348ZM100.155 68.34C100.155 68.572 100.139 68.772 100.107 68.94H94.8388C94.8628 69.692 95.0748 70.256 95.4748 70.632C95.8828 71.008 96.3788 71.196 96.9628 71.196C97.4908 71.196 97.9308 71.064 98.2828 70.8C98.6428 70.528 98.8628 70.168 98.9428 69.72H100.107C100.027 70.176 99.8468 70.584 99.5668 70.944C99.2948 71.304 98.9388 71.584 98.4988 71.784C98.0588 71.984 97.5628 72.084 97.0108 72.084C96.3788 72.084 95.8188 71.948 95.3308 71.676C94.8428 71.404 94.4588 71.016 94.1788 70.512C93.9068 70 93.7708 69.4 93.7708 68.712C93.7708 68.024 93.9068 67.424 94.1788 66.912C94.4588 66.4 94.8428 66.008 95.3308 65.736C95.8188 65.464 96.3788 65.328 97.0108 65.328C97.6508 65.328 98.2068 65.464 98.6788 65.736C99.1588 66.008 99.5228 66.372 99.7708 66.828C100.027 67.284 100.155 67.788 100.155 68.34ZM99.0508 68.412C99.0748 67.924 98.9948 67.516 98.8108 67.188C98.6268 66.86 98.3748 66.616 98.0548 66.456C97.7348 66.296 97.3868 66.216 97.0108 66.216C96.4108 66.216 95.9068 66.404 95.4988 66.78C95.0908 67.148 94.8708 67.692 94.8388 68.412H99.0508ZM105.051 65.304C105.819 65.304 106.439 65.552 106.911 66.048C107.383 66.536 107.619 67.244 107.619 68.172V72H106.527V68.268C106.527 67.612 106.359 67.108 106.023 66.756C105.687 66.404 105.231 66.228 104.655 66.228C104.055 66.228 103.575 66.424 103.215 66.816C102.855 67.2 102.675 67.764 102.675 68.508V72H101.583V65.412H102.675V66.972C102.843 66.436 103.139 66.024 103.563 65.736C103.995 65.448 104.491 65.304 105.051 65.304ZM112.438 71.04V72H111.622C110.95 72 110.446 71.84 110.11 71.52C109.782 71.2 109.618 70.664 109.618 69.912V66.36H108.634V65.412H109.618V63.768H110.722V65.412H112.426V66.36H110.722V69.936C110.722 70.36 110.798 70.652 110.95 70.812C111.11 70.964 111.382 71.04 111.766 71.04H112.438ZM116.471 65.328C117.111 65.328 117.651 65.488 118.091 65.808C118.539 66.128 118.851 66.556 119.027 67.092V65.412H120.119V72H119.027V70.32C118.851 70.856 118.539 71.284 118.091 71.604C117.651 71.924 117.111 72.084 116.471 72.084C115.887 72.084 115.367 71.948 114.911 71.676C114.455 71.404 114.095 71.016 113.831 70.512C113.575 70 113.447 69.4 113.447 68.712C113.447 68.024 113.575 67.424 113.831 66.912C114.095 66.4 114.455 66.008 114.911 65.736C115.367 65.464 115.887 65.328 116.471 65.328ZM116.783 66.3C116.111 66.3 115.571 66.516 115.163 66.948C114.763 67.372 114.563 67.96 114.563 68.712C114.563 69.464 114.763 70.056 115.163 70.488C115.571 70.912 116.111 71.124 116.783 71.124C117.215 71.124 117.599 71.024 117.935 70.824C118.279 70.624 118.547 70.344 118.739 69.984C118.931 69.616 119.027 69.192 119.027 68.712C119.027 68.232 118.931 67.808 118.739 67.44C118.547 67.072 118.279 66.792 117.935 66.6C117.599 66.4 117.215 66.3 116.783 66.3ZM122.948 63.12V72H121.856V63.12H122.948ZM128.761 68.592V72H127.669V63.54H130.357C131.325 63.54 132.049 63.768 132.529 64.224C133.009 64.672 133.249 65.288 133.249 66.072C133.249 66.864 133.001 67.484 132.505 67.932C132.009 68.372 131.293 68.592 130.357 68.592H128.761ZM130.261 67.68C130.925 67.68 131.401 67.54 131.689 67.26C131.985 66.98 132.133 66.584 132.133 66.072C132.133 65.544 131.985 65.144 131.689 64.872C131.401 64.592 130.925 64.452 130.261 64.452H128.761V67.68H130.261ZM140.584 68.34C140.584 68.572 140.568 68.772 140.536 68.94H135.268C135.292 69.692 135.504 70.256 135.904 70.632C136.312 71.008 136.808 71.196 137.392 71.196C137.92 71.196 138.36 71.064 138.712 70.8C139.072 70.528 139.292 70.168 139.372 69.72H140.536C140.456 70.176 140.276 70.584 139.996 70.944C139.724 71.304 139.368 71.584 138.928 71.784C138.488 71.984 137.992 72.084 137.44 72.084C136.808 72.084 136.248 71.948 135.76 71.676C135.272 71.404 134.888 71.016 134.608 70.512C134.336 70 134.2 69.4 134.2 68.712C134.2 68.024 134.336 67.424 134.608 66.912C134.888 66.4 135.272 66.008 135.76 65.736C136.248 65.464 136.808 65.328 137.44 65.328C138.08 65.328 138.636 65.464 139.108 65.736C139.588 66.008 139.952 66.372 140.2 66.828C140.456 67.284 140.584 67.788 140.584 68.34ZM139.48 68.412C139.504 67.924 139.424 67.516 139.24 67.188C139.056 66.86 138.804 66.616 138.484 66.456C138.164 66.296 137.816 66.216 137.44 66.216C136.84 66.216 136.336 66.404 135.928 66.78C135.52 67.148 135.3 67.692 135.268 68.412H139.48ZM143.105 66.744C143.321 66.288 143.637 65.936 144.053 65.688C144.469 65.432 144.965 65.304 145.541 65.304V66.492H145.205C144.589 66.492 144.085 66.652 143.693 66.972C143.301 67.284 143.105 67.804 143.105 68.532V72H142.013V65.412H143.105V66.744ZM149.534 63.852C148.95 63.844 148.542 63.944 148.31 64.152C148.086 64.36 147.974 64.72 147.974 65.232V65.412H149.534V66.372H147.974V72H146.882V66.372H145.934V65.412H146.882V65.148C146.882 63.572 147.766 62.82 149.534 62.892V63.852ZM153.708 65.328C154.34 65.328 154.904 65.464 155.4 65.736C155.904 66.008 156.296 66.4 156.576 66.912C156.864 67.424 157.008 68.024 157.008 68.712C157.008 69.4 156.864 70 156.576 70.512C156.296 71.016 155.904 71.404 155.4 71.676C154.904 71.948 154.34 72.084 153.708 72.084C153.076 72.084 152.508 71.948 152.004 71.676C151.508 71.404 151.116 71.016 150.828 70.512C150.54 70 150.396 69.4 150.396 68.712C150.396 68.024 150.54 67.424 150.828 66.912C151.116 66.4 151.508 66.008 152.004 65.736C152.508 65.464 153.076 65.328 153.708 65.328ZM153.708 66.288C153.316 66.288 152.952 66.376 152.616 66.552C152.288 66.728 152.02 67 151.812 67.368C151.612 67.728 151.512 68.176 151.512 68.712C151.512 69.24 151.612 69.688 151.812 70.056C152.02 70.416 152.288 70.684 152.616 70.86C152.952 71.036 153.316 71.124 153.708 71.124C154.1 71.124 154.46 71.036 154.788 70.86C155.124 70.684 155.392 70.416 155.592 70.056C155.8 69.688 155.904 69.24 155.904 68.712C155.904 68.176 155.8 67.728 155.592 67.368C155.392 67 155.124 66.728 154.788 66.552C154.46 66.376 154.1 66.288 153.708 66.288ZM159.523 66.744C159.739 66.288 160.055 65.936 160.471 65.688C160.887 65.432 161.383 65.304 161.959 65.304V66.492H161.623C161.007 66.492 160.503 66.652 160.111 66.972C159.719 67.284 159.523 67.804 159.523 68.532V72H158.431V65.412H159.523V66.744ZM171.136 65.304C171.904 65.304 172.52 65.552 172.984 66.048C173.456 66.536 173.692 67.244 173.692 68.172V72H172.6V68.268C172.6 67.62 172.44 67.124 172.12 66.78C171.808 66.436 171.376 66.264 170.824 66.264C170.248 66.264 169.784 66.456 169.432 66.84C169.088 67.216 168.916 67.772 168.916 68.508V72H167.824V68.268C167.824 67.62 167.664 67.124 167.344 66.78C167.024 66.436 166.592 66.264 166.048 66.264C165.464 66.264 164.996 66.456 164.644 66.84C164.3 67.216 164.128 67.772 164.128 68.508V72H163.036V65.412H164.128V66.912C164.288 66.392 164.572 65.996 164.98 65.724C165.396 65.444 165.872 65.304 166.408 65.304C166.968 65.304 167.452 65.448 167.86 65.736C168.276 66.016 168.572 66.432 168.748 66.984C168.932 66.448 169.24 66.036 169.672 65.748C170.104 65.452 170.592 65.304 171.136 65.304ZM178.088 65.328C178.728 65.328 179.268 65.488 179.708 65.808C180.156 66.128 180.468 66.556 180.644 67.092V65.412H181.736V72H180.644V70.32C180.468 70.856 180.156 71.284 179.708 71.604C179.268 71.924 178.728 72.084 178.088 72.084C177.504 72.084 176.984 71.948 176.528 71.676C176.072 71.404 175.712 71.016 175.448 70.512C175.192 70 175.064 69.4 175.064 68.712C175.064 68.024 175.192 67.424 175.448 66.912C175.712 66.4 176.072 66.008 176.528 65.736C176.984 65.464 177.504 65.328 178.088 65.328ZM178.4 66.3C177.728 66.3 177.188 66.516 176.78 66.948C176.38 67.372 176.18 67.96 176.18 68.712C176.18 69.464 176.38 70.056 176.78 70.488C177.188 70.912 177.728 71.124 178.4 71.124C178.832 71.124 179.216 71.024 179.552 70.824C179.896 70.624 180.164 70.344 180.356 69.984C180.548 69.616 180.644 69.192 180.644 68.712C180.644 68.232 180.548 67.808 180.356 67.44C180.164 67.072 179.896 66.792 179.552 66.6C179.216 66.4 178.832 66.3 178.4 66.3ZM186.942 65.304C187.71 65.304 188.33 65.552 188.802 66.048C189.274 66.536 189.51 67.244 189.51 68.172V72H188.418V68.268C188.418 67.612 188.25 67.108 187.914 66.756C187.578 66.404 187.122 66.228 186.546 66.228C185.946 66.228 185.466 66.424 185.106 66.816C184.746 67.2 184.566 67.764 184.566 68.508V72H183.474V65.412H184.566V66.972C184.734 66.436 185.03 66.024 185.454 65.736C185.886 65.448 186.382 65.304 186.942 65.304ZM194.101 65.328C194.941 65.328 195.637 65.552 196.189 66C196.741 66.448 197.081 67.048 197.209 67.8H196.057C195.977 67.328 195.757 66.96 195.397 66.696C195.045 66.424 194.605 66.288 194.077 66.288C193.693 66.288 193.341 66.376 193.021 66.552C192.709 66.728 192.457 67 192.265 67.368C192.073 67.728 191.977 68.176 191.977 68.712C191.977 69.248 192.073 69.7 192.265 70.068C192.457 70.428 192.709 70.696 193.021 70.872C193.341 71.048 193.693 71.136 194.077 71.136C194.605 71.136 195.045 71 195.397 70.728C195.757 70.456 195.977 70.084 196.057 69.612H197.209C197.081 70.372 196.741 70.976 196.189 71.424C195.637 71.864 194.941 72.084 194.101 72.084C193.469 72.084 192.909 71.948 192.421 71.676C191.933 71.404 191.549 71.016 191.269 70.512C190.997 70 190.861 69.4 190.861 68.712C190.861 68.024 190.997 67.424 191.269 66.912C191.549 66.4 191.933 66.008 192.421 65.736C192.909 65.464 193.469 65.328 194.101 65.328ZM204.698 68.34C204.698 68.572 204.682 68.772 204.65 68.94H199.382C199.406 69.692 199.618 70.256 200.018 70.632C200.426 71.008 200.922 71.196 201.506 71.196C202.034 71.196 202.474 71.064 202.826 70.8C203.186 70.528 203.406 70.168 203.486 69.72H204.65C204.57 70.176 204.39 70.584 204.11 70.944C203.838 71.304 203.482 71.584 203.042 71.784C202.602 71.984 202.106 72.084 201.554 72.084C200.922 72.084 200.362 71.948 199.874 71.676C199.386 71.404 199.002 71.016 198.722 70.512C198.45 70 198.314 69.4 198.314 68.712C198.314 68.024 198.45 67.424 198.722 66.912C199.002 66.4 199.386 66.008 199.874 65.736C200.362 65.464 200.922 65.328 201.554 65.328C202.194 65.328 202.75 65.464 203.222 65.736C203.702 66.008 204.066 66.372 204.314 66.828C204.57 67.284 204.698 67.788 204.698 68.34ZM203.594 68.412C203.618 67.924 203.538 67.516 203.354 67.188C203.17 66.86 202.918 66.616 202.598 66.456C202.278 66.296 201.93 66.216 201.554 66.216C200.954 66.216 200.45 66.404 200.042 66.78C199.634 67.148 199.414 67.692 199.382 68.412H203.594Z" fill="white"/>
<circle cx="73" cy="68" r="4" fill="#2F80ED"/>
<path d="M35.8 27.248V44H32.44V32.312L28.144 44H25.216L20.92 32.36V44H17.536V27.248H21.64L26.728 39.848L31.72 27.248H35.8ZM51.3681 36.848C51.3681 37.184 51.3281 37.568 51.2481 38H41.5041C41.5521 39.184 41.8721 40.056 42.4641 40.616C43.0561 41.176 43.7921 41.456 44.6721 41.456C45.4561 41.456 46.1041 41.264 46.6161 40.88C47.1441 40.496 47.4801 39.976 47.6241 39.32H51.2001C51.0241 40.248 50.6481 41.08 50.0721 41.816C49.4961 42.552 48.7521 43.128 47.8401 43.544C46.9441 43.96 45.9441 44.168 44.8401 44.168C43.5441 44.168 42.3921 43.896 41.3841 43.352C40.3761 42.792 39.5921 42 39.0321 40.976C38.4721 39.952 38.1921 38.744 38.1921 37.352C38.1921 35.96 38.4721 34.752 39.0321 33.728C39.5921 32.688 40.3761 31.896 41.3841 31.352C42.3921 30.808 43.5441 30.536 44.8401 30.536C46.1521 30.536 47.2961 30.808 48.2721 31.352C49.2641 31.896 50.0241 32.648 50.5521 33.608C51.0961 34.552 51.3681 35.632 51.3681 36.848ZM47.9601 36.512C48.0081 35.424 47.7201 34.6 47.0961 34.04C46.4881 33.48 45.7361 33.2 44.8401 33.2C43.9281 33.2 43.1601 33.48 42.5361 34.04C41.9121 34.6 41.5681 35.424 41.5041 36.512H47.9601ZM61.6904 30.512C63.2264 30.512 64.4504 31.016 65.3624 32.024C66.2744 33.032 66.7304 34.448 66.7304 36.272V44H63.3704V36.656C63.3704 35.6 63.0984 34.784 62.5544 34.208C62.0104 33.616 61.2664 33.32 60.3224 33.32C59.3624 33.32 58.5944 33.632 58.0184 34.256C57.4424 34.88 57.1544 35.776 57.1544 36.944V44H53.7704V30.704H57.1544V33.368C57.5064 32.472 58.0824 31.776 58.8824 31.28C59.6984 30.768 60.6344 30.512 61.6904 30.512ZM76.8119 41.096V44H75.0359C73.5479 44 72.4039 43.64 71.6039 42.92C70.8199 42.2 70.4279 41 70.4279 39.32V33.56H68.5799V30.704H70.4279V27.416H73.8119V30.704H76.7879V33.56H73.8119V39.368C73.8119 40.008 73.9399 40.456 74.1959 40.712C74.4519 40.968 74.8839 41.096 75.4919 41.096H76.8119ZM84.4549 30.536C85.5749 30.536 86.5349 30.8 87.3349 31.328C88.1349 31.856 88.7029 32.568 89.0389 33.464V30.704H92.3989V44H89.0389V41.216C88.7029 42.112 88.1349 42.832 87.3349 43.376C86.5349 43.904 85.5749 44.168 84.4549 44.168C83.3349 44.168 82.3269 43.896 81.4309 43.352C80.5349 42.808 79.8309 42.024 79.3189 41C78.8229 39.96 78.5749 38.744 78.5749 37.352C78.5749 35.96 78.8229 34.752 79.3189 33.728C79.8309 32.688 80.5349 31.896 81.4309 31.352C82.3269 30.808 83.3349 30.536 84.4549 30.536ZM85.5109 33.488C84.4549 33.488 83.6069 33.832 82.9669 34.52C82.3269 35.208 82.0069 36.152 82.0069 37.352C82.0069 38.552 82.3269 39.496 82.9669 40.184C83.6069 40.856 84.4549 41.192 85.5109 41.192C86.5349 41.192 87.3749 40.848 88.0309 40.16C88.7029 39.456 89.0389 38.52 89.0389 37.352C89.0389 36.168 88.7029 35.232 88.0309 34.544C87.3749 33.84 86.5349 33.488 85.5109 33.488ZM98.8497 26.24V44H95.4657V26.24H98.8497ZM110.522 37.712V44H107.138V27.056H113.306C115.306 27.056 116.81 27.536 117.818 28.496C118.842 29.456 119.354 30.76 119.354 32.408C119.354 34.024 118.826 35.312 117.77 36.272C116.73 37.232 115.242 37.712 113.306 37.712H110.522ZM112.946 35C114.93 35 115.922 34.136 115.922 32.408C115.922 31.56 115.69 30.912 115.226 30.464C114.762 30.016 114.002 29.792 112.946 29.792H110.522V35H112.946ZM134.056 36.848C134.056 37.184 134.016 37.568 133.936 38H124.192C124.24 39.184 124.56 40.056 125.152 40.616C125.744 41.176 126.48 41.456 127.36 41.456C128.144 41.456 128.792 41.264 129.304 40.88C129.832 40.496 130.168 39.976 130.312 39.32H133.888C133.712 40.248 133.336 41.08 132.76 41.816C132.184 42.552 131.44 43.128 130.528 43.544C129.632 43.96 128.632 44.168 127.528 44.168C126.232 44.168 125.08 43.896 124.072 43.352C123.064 42.792 122.28 42 121.72 40.976C121.16 39.952 120.88 38.744 120.88 37.352C120.88 35.96 121.16 34.752 121.72 33.728C122.28 32.688 123.064 31.896 124.072 31.352C125.08 30.808 126.232 30.536 127.528 30.536C128.84 30.536 129.984 30.808 130.96 31.352C131.952 31.896 132.712 32.648 133.24 33.608C133.784 34.552 134.056 35.632 134.056 36.848ZM130.648 36.512C130.696 35.424 130.408 34.6 129.784 34.04C129.176 33.48 128.424 33.2 127.528 33.2C126.616 33.2 125.848 33.48 125.224 34.04C124.6 34.6 124.256 35.424 124.192 36.512H130.648ZM139.842 33.248C140.338 32.4 140.994 31.736 141.81 31.256C142.626 30.76 143.538 30.512 144.546 30.512V34.136H143.562C141.082 34.136 139.842 35.288 139.842 37.592V44H136.458V30.704H139.842V33.248ZM152.995 28.4C152.003 28.336 151.307 28.48 150.907 28.832C150.507 29.184 150.307 29.8 150.307 30.68V30.704H152.995V33.56H150.307V44H146.923V33.56H145.219V30.704H146.923V30.392C146.923 28.808 147.371 27.592 148.267 26.744C149.179 25.88 150.523 25.448 152.299 25.448C152.603 25.448 152.835 25.456 152.995 25.472V28.4ZM161.164 30.536C162.46 30.536 163.62 30.808 164.644 31.352C165.684 31.896 166.5 32.688 167.092 33.728C167.684 34.752 167.98 35.96 167.98 37.352C167.98 38.744 167.684 39.952 167.092 40.976C166.5 42 165.684 42.792 164.644 43.352C163.62 43.896 162.46 44.168 161.164 44.168C159.868 44.168 158.7 43.896 157.66 43.352C156.636 42.792 155.828 42 155.236 40.976C154.644 39.952 154.348 38.744 154.348 37.352C154.348 35.96 154.644 34.752 155.236 33.728C155.828 32.688 156.636 31.896 157.66 31.352C158.7 30.808 159.868 30.536 161.164 30.536ZM161.164 33.464C160.22 33.464 159.42 33.8 158.764 34.472C158.108 35.128 157.78 36.088 157.78 37.352C157.78 38.616 158.108 39.584 158.764 40.256C159.42 40.912 160.22 41.24 161.164 41.24C162.108 41.24 162.908 40.912 163.564 40.256C164.22 39.584 164.548 38.616 164.548 37.352C164.548 36.088 164.22 35.128 163.564 34.472C162.908 33.8 162.108 33.464 161.164 33.464ZM173.756 33.248C174.252 32.4 174.908 31.736 175.724 31.256C176.54 30.76 177.452 30.512 178.46 30.512V34.136H177.476C174.996 34.136 173.756 35.288 173.756 37.592V44H170.372V30.704H173.756V33.248ZM197.253 30.512C198.869 30.512 200.141 31.016 201.069 32.024C202.013 33.016 202.485 34.432 202.485 36.272V44H199.125V36.656C199.125 35.632 198.861 34.848 198.333 34.304C197.821 33.744 197.109 33.464 196.197 33.464C195.253 33.464 194.501 33.76 193.941 34.352C193.381 34.944 193.101 35.808 193.101 36.944V44H189.741V36.656C189.741 35.632 189.477 34.848 188.949 34.304C188.437 33.744 187.725 33.464 186.813 33.464C185.869 33.464 185.117 33.76 184.557 34.352C183.997 34.944 183.717 35.808 183.717 36.944V44H180.333V30.704H183.717V33.224C184.069 32.36 184.621 31.696 185.373 31.232C186.141 30.752 187.029 30.512 188.037 30.512C189.109 30.512 190.037 30.768 190.821 31.28C191.621 31.792 192.221 32.528 192.621 33.488C193.037 32.576 193.653 31.856 194.469 31.328C195.301 30.784 196.229 30.512 197.253 30.512ZM210.666 30.536C211.786 30.536 212.746 30.8 213.546 31.328C214.346 31.856 214.914 32.568 215.25 33.464V30.704H218.61V44H215.25V41.216C214.914 42.112 214.346 42.832 213.546 43.376C212.746 43.904 211.786 44.168 210.666 44.168C209.546 44.168 208.538 43.896 207.642 43.352C206.746 42.808 206.042 42.024 205.53 41C205.034 39.96 204.786 38.744 204.786 37.352C204.786 35.96 205.034 34.752 205.53 33.728C206.042 32.688 206.746 31.896 207.642 31.352C208.538 30.808 209.546 30.536 210.666 30.536ZM211.722 33.488C210.666 33.488 209.818 33.832 209.178 34.52C208.538 35.208 208.218 36.152 208.218 37.352C208.218 38.552 208.538 39.496 209.178 40.184C209.818 40.856 210.666 41.192 211.722 41.192C212.746 41.192 213.586 40.848 214.242 40.16C214.914 39.456 215.25 38.52 215.25 37.352C215.25 36.168 214.914 35.232 214.242 34.544C213.586 33.84 212.746 33.488 211.722 33.488ZM229.597 30.512C231.133 30.512 232.357 31.016 233.269 32.024C234.181 33.032 234.637 34.448 234.637 36.272V44H231.277V36.656C231.277 35.6 231.005 34.784 230.461 34.208C229.917 33.616 229.173 33.32 228.229 33.32C227.269 33.32 226.501 33.632 225.925 34.256C225.349 34.88 225.061 35.776 225.061 36.944V44H221.677V30.704H225.061V33.368C225.413 32.472 225.989 31.776 226.789 31.28C227.605 30.768 228.541 30.512 229.597 30.512ZM243.59 30.536C245.302 30.536 246.726 31 247.862 31.928C249.014 32.856 249.734 34.12 250.022 35.72H246.446C246.302 35.016 245.974 34.464 245.462 34.064C244.95 33.648 244.302 33.44 243.518 33.44C242.622 33.44 241.87 33.776 241.262 34.448C240.67 35.104 240.374 36.072 240.374 37.352C240.374 38.632 240.67 39.608 241.262 40.28C241.87 40.936 242.622 41.264 243.518 41.264C244.302 41.264 244.95 41.064 245.462 40.664C245.974 40.248 246.302 39.688 246.446 38.984H250.022C249.734 40.584 249.014 41.848 247.862 42.776C246.726 43.704 245.302 44.168 243.59 44.168C242.294 44.168 241.142 43.896 240.134 43.352C239.126 42.792 238.342 42 237.782 40.976C237.222 39.952 236.942 38.744 236.942 37.352C236.942 35.96 237.222 34.752 237.782 33.728C238.342 32.688 239.126 31.896 240.134 31.352C241.142 30.808 242.294 30.536 243.59 30.536ZM264.931 36.848C264.931 37.184 264.891 37.568 264.811 38H255.067C255.115 39.184 255.435 40.056 256.027 40.616C256.619 41.176 257.355 41.456 258.235 41.456C259.019 41.456 259.667 41.264 260.179 40.88C260.707 40.496 261.043 39.976 261.187 39.32H264.763C264.587 40.248 264.211 41.08 263.635 41.816C263.059 42.552 262.315 43.128 261.403 43.544C260.507 43.96 259.507 44.168 258.403 44.168C257.107 44.168 255.955 43.896 254.947 43.352C253.939 42.792 253.155 42 252.595 40.976C252.035 39.952 251.755 38.744 251.755 37.352C251.755 35.96 252.035 34.752 252.595 33.728C253.155 32.688 253.939 31.896 254.947 31.352C255.955 30.808 257.107 30.536 258.403 30.536C259.715 30.536 260.859 30.808 261.835 31.352C262.827 31.896 263.587 32.648 264.115 33.608C264.659 34.552 264.931 35.632 264.931 36.848ZM261.523 36.512C261.571 35.424 261.283 34.6 260.659 34.04C260.051 33.48 259.299 33.2 258.403 33.2C257.491 33.2 256.723 33.48 256.099 34.04C255.475 34.6 255.131 35.424 255.067 36.512H261.523Z" fill="white"/>
</svg>
