<svg width="343" height="284" viewBox="0 0 343 284" fill="none" xmlns="http://www.w3.org/2000/svg">
<rect width="46" height="46" transform="translate(49 41)" fill="#6FCF97" fill-opacity="0.4"/>
<path d="M53.208 51.08V49.72H56.44V61H54.904V51.08H53.208Z" fill="white"/>
<circle cx="57" cy="69" r="4" fill="#EB5757"/>
<circle opacity="0.1" cx="67" cy="69" r="4" fill="#AFACBC"/>
<circle opacity="0.1" cx="77" cy="69" r="4" fill="#AFACBC"/>
<circle cx="57" cy="79" r="4" fill="#6FCF97"/>
<circle cx="67" cy="79" r="4" fill="#6FCF97"/>
<circle opacity="0.1" cx="77" cy="79" r="4" fill="#AFACBC"/>
<rect width="46" height="46" transform="translate(98 41)" fill="#6FCF97" fill-opacity="0.4"/>
<path d="M102.672 59.88C104.485 58.664 105.936 57.4587 107.024 56.264C108.112 55.0587 108.656 53.9387 108.656 52.904C108.656 52.264 108.491 51.752 108.16 51.368C107.84 50.9733 107.317 50.776 106.592 50.776C105.845 50.776 105.28 51.016 104.896 51.496C104.512 51.9653 104.299 52.616 104.256 53.448H102.816C102.891 52.1893 103.28 51.224 103.984 50.552C104.688 49.8693 105.595 49.528 106.704 49.528C107.76 49.528 108.597 49.8107 109.216 50.376C109.835 50.9413 110.144 51.7413 110.144 52.776C110.144 53.6293 109.867 54.4987 109.312 55.384C108.768 56.2587 108.08 57.0747 107.248 57.832C106.427 58.5787 105.579 59.2133 104.704 59.736H110.432V60.936H102.672V59.88Z" fill="white"/>
<circle cx="106" cy="69" r="4" fill="#EB5757"/>
<circle opacity="0.1" cx="116" cy="69" r="4" fill="#AFACBC"/>
<circle opacity="0.1" cx="126" cy="69" r="4" fill="#AFACBC"/>
<circle cx="106" cy="79" r="4" fill="#6FCF97"/>
<circle cx="116" cy="79" r="4" fill="#6FCF97"/>
<circle cx="126" cy="79" r="4" fill="#6FCF97"/>
<rect width="46" height="46" transform="translate(147 41)" fill="#6FCF97" fill-opacity="0.4"/>
<path d="M155.784 49.416C156.509 49.416 157.133 49.544 157.656 49.8C158.179 50.056 158.573 50.408 158.84 50.856C159.107 51.304 159.24 51.8107 159.24 52.376C159.24 53.08 159.032 53.672 158.616 54.152C158.211 54.632 157.613 54.92 156.824 55.016V55.112C157.645 55.3253 158.285 55.656 158.744 56.104C159.213 56.552 159.448 57.1707 159.448 57.96C159.448 58.888 159.139 59.6453 158.52 60.232C157.901 60.8187 157.011 61.112 155.848 61.112C154.685 61.112 153.741 60.8133 153.016 60.216C152.301 59.608 151.88 58.7227 151.752 57.56H153.192C153.288 58.264 153.555 58.824 153.992 59.24C154.44 59.656 155.043 59.864 155.8 59.864C156.515 59.864 157.064 59.6827 157.448 59.32C157.832 58.9467 158.024 58.4667 158.024 57.88C158.024 57.176 157.747 56.6427 157.192 56.28C156.648 55.9067 155.869 55.72 154.856 55.72H154.472V54.504H154.856C156.819 54.504 157.8 53.848 157.8 52.536C157.8 51.96 157.619 51.5013 157.256 51.16C156.893 50.8187 156.392 50.648 155.752 50.648C155.112 50.648 154.573 50.8347 154.136 51.208C153.699 51.5707 153.443 52.1093 153.368 52.824H151.944C152.019 51.7573 152.387 50.9253 153.048 50.328C153.72 49.72 154.632 49.416 155.784 49.416Z" fill="white"/>
<circle cx="155" cy="69" r="4" fill="#EB5757"/>
<circle opacity="0.1" cx="165" cy="69" r="4" fill="#AFACBC"/>
<circle opacity="0.1" cx="175" cy="69" r="4" fill="#AFACBC"/>
<circle cx="155" cy="79" r="4" fill="#6FCF97"/>
<circle cx="165" cy="79" r="4" fill="#6FCF97"/>
<circle opacity="0.1" cx="175" cy="79" r="4" fill="#AFACBC"/>
<rect width="46" height="46" transform="translate(196 41)" fill="#EB5757" fill-opacity="0.4"/>
<path d="M200.496 58.408V57.192L206.288 49.64H207.856V57.144H209.52V58.408H207.856V61H206.384V58.408H200.496ZM206.48 51.416L202.032 57.144H206.48V51.416Z" fill="white"/>
<circle cx="204" cy="69" r="4" fill="#EB5757"/>
<circle cx="214" cy="69" r="4" fill="#EB5757"/>
<circle opacity="0.1" cx="224" cy="69" r="4" fill="#AFACBC"/>
<circle cx="204" cy="79" r="4" fill="#6FCF97"/>
<circle opacity="0.1" cx="214" cy="79" r="4" fill="#AFACBC"/>
<circle opacity="0.1" cx="224" cy="79" r="4" fill="#AFACBC"/>
<rect width="46" height="46" transform="translate(245 41)" fill="#EB5757" fill-opacity="0.4"/>
<path d="M257.512 50.872H251.72V54.648C251.987 54.2853 252.371 53.9973 252.872 53.784C253.373 53.5707 253.923 53.464 254.52 53.464C255.32 53.464 255.981 53.6347 256.504 53.976C257.037 54.3067 257.427 54.7493 257.672 55.304C257.928 55.848 258.056 56.456 258.056 57.128C258.056 58.2907 257.731 59.24 257.08 59.976C256.429 60.712 255.475 61.08 254.216 61.08C253.085 61.08 252.163 60.776 251.448 60.168C250.733 59.5493 250.333 58.7227 250.248 57.688H251.688C251.805 58.3493 252.077 58.8667 252.504 59.24C252.941 59.6027 253.491 59.784 254.152 59.784C254.973 59.784 255.592 59.5387 256.008 59.048C256.424 58.5573 256.632 57.912 256.632 57.112C256.632 56.3333 256.419 55.7253 255.992 55.288C255.565 54.8507 254.963 54.632 254.184 54.632C253.629 54.632 253.144 54.7547 252.728 55C252.312 55.2347 251.997 55.5547 251.784 55.96H250.376V49.576H257.512V50.872Z" fill="white"/>
<circle cx="253" cy="69" r="4" fill="#EB5757"/>
<circle cx="263" cy="69" r="4" fill="#EB5757"/>
<circle cx="273" cy="69" r="4" fill="#EB5757"/>
<circle cx="253" cy="79" r="4" fill="#6FCF97"/>
<circle cx="263" cy="79" r="4" fill="#6FCF97"/>
<circle opacity="0.1" cx="273" cy="79" r="4" fill="#AFACBC"/>
<rect width="46" height="46" transform="translate(294 41)" fill="#979797" fill-opacity="0.17"/>
<path d="M305.28 52.728C305.195 52.056 304.965 51.5387 304.592 51.176C304.229 50.8027 303.723 50.616 303.072 50.616C302.165 50.616 301.477 50.968 301.008 51.672C300.549 52.376 300.32 53.4907 300.32 55.016L300.336 55.608C300.496 54.968 300.864 54.4613 301.44 54.088C302.016 53.704 302.693 53.512 303.472 53.512C304.592 53.512 305.467 53.848 306.096 54.52C306.736 55.192 307.056 56.1307 307.056 57.336C307.056 58.04 306.917 58.68 306.64 59.256C306.363 59.8213 305.936 60.2747 305.36 60.616C304.795 60.9467 304.091 61.112 303.248 61.112C301.637 61.112 300.528 60.6053 299.92 59.592C299.323 58.5787 299.024 57.2027 299.024 55.464C299.024 53.4587 299.344 51.9547 299.984 50.952C300.635 49.9387 301.691 49.432 303.152 49.432C304.229 49.432 305.056 49.736 305.632 50.344C306.219 50.952 306.565 51.7467 306.672 52.728H305.28ZM300.496 57.096C300.496 57.8747 300.72 58.5307 301.168 59.064C301.627 59.5867 302.309 59.848 303.216 59.848C303.963 59.848 304.56 59.6293 305.008 59.192C305.456 58.744 305.68 58.12 305.68 57.32C305.68 56.456 305.456 55.8 305.008 55.352C304.56 54.8933 303.941 54.664 303.152 54.664C302.704 54.664 302.277 54.7547 301.872 54.936C301.467 55.1173 301.136 55.3947 300.88 55.768C300.624 56.1307 300.496 56.5733 300.496 57.096Z" fill="white"/>
<circle opacity="0.1" cx="302" cy="69" r="4" fill="#AFACBC"/>
<circle opacity="0.1" cx="312" cy="69" r="4" fill="#AFACBC"/>
<circle opacity="0.1" cx="322" cy="69" r="4" fill="#AFACBC"/>
<circle opacity="0.1" cx="302" cy="79" r="4" fill="#AFACBC"/>
<circle opacity="0.1" cx="312" cy="79" r="4" fill="#AFACBC"/>
<circle opacity="0.1" cx="322" cy="79" r="4" fill="#AFACBC"/>
<rect width="46" height="46" transform="translate(0 89)" fill="#979797" fill-opacity="0.17"/>
<path d="M11.616 98.776L7.344 109H5.808L10.144 98.92H4.224V97.656H11.616V98.776Z" fill="white"/>
<circle opacity="0.1" cx="8" cy="117" r="4" fill="#AFACBC"/>
<circle opacity="0.1" cx="18" cy="117" r="4" fill="#AFACBC"/>
<circle opacity="0.1" cx="28" cy="117" r="4" fill="#AFACBC"/>
<circle opacity="0.1" cx="8" cy="127" r="4" fill="#AFACBC"/>
<circle opacity="0.1" cx="18" cy="127" r="4" fill="#AFACBC"/>
<circle opacity="0.1" cx="28" cy="127" r="4" fill="#AFACBC"/>
<rect width="46" height="46" transform="translate(49 89)" fill="#6FCF97" fill-opacity="0.4"/>
<path d="M54.136 100.376C54.136 99.8213 54.2853 99.3147 54.584 98.856C54.8827 98.3973 55.3253 98.0347 55.912 97.768C56.4987 97.5013 57.1973 97.368 58.008 97.368C58.8187 97.368 59.512 97.5013 60.088 97.768C60.6747 98.0347 61.1173 98.3973 61.416 98.856C61.7147 99.3147 61.864 99.8213 61.864 100.376C61.864 101.005 61.6933 101.549 61.352 102.008C61.0107 102.467 60.4933 102.792 59.8 102.984C60.5467 103.187 61.128 103.539 61.544 104.04C61.96 104.541 62.168 105.16 62.168 105.896C62.168 106.963 61.7893 107.8 61.032 108.408C60.2747 109.016 59.2667 109.32 58.008 109.32C56.7493 109.32 55.7413 109.016 54.984 108.408C54.2267 107.8 53.848 106.963 53.848 105.896C53.848 105.16 54.0507 104.541 54.456 104.04C54.872 103.539 55.4533 103.187 56.2 102.984C55.5067 102.792 54.9893 102.467 54.648 102.008C54.3067 101.549 54.136 101.005 54.136 100.376ZM55.576 100.584C55.576 101.224 55.7947 101.72 56.232 102.072C56.6693 102.413 57.2613 102.584 58.008 102.584C58.7547 102.584 59.3413 102.413 59.768 102.072C60.2053 101.72 60.424 101.224 60.424 100.584C60.424 99.944 60.2053 99.4533 59.768 99.112C59.3307 98.76 58.744 98.584 58.008 98.584C57.272 98.584 56.68 98.76 56.232 99.112C55.7947 99.4533 55.576 99.944 55.576 100.584ZM55.272 105.816C55.272 106.541 55.5173 107.107 56.008 107.512C56.4987 107.907 57.1653 108.104 58.008 108.104C58.84 108.104 59.5013 107.901 59.992 107.496C60.4827 107.091 60.728 106.531 60.728 105.816C60.728 105.091 60.472 104.541 59.96 104.168C59.448 103.795 58.7973 103.608 58.008 103.608C57.208 103.608 56.552 103.795 56.04 104.168C55.528 104.541 55.272 105.091 55.272 105.816Z" fill="white"/>
<circle cx="57" cy="117" r="4" fill="#EB5757"/>
<circle opacity="0.1" cx="67" cy="117" r="4" fill="#AFACBC"/>
<circle opacity="0.1" cx="77" cy="117" r="4" fill="#AFACBC"/>
<circle cx="57" cy="127" r="4" fill="#6FCF97"/>
<circle cx="67" cy="127" r="4" fill="#6FCF97"/>
<circle opacity="0.1" cx="77" cy="127" r="4" fill="#AFACBC"/>
<rect width="46" height="46" transform="translate(98 89)" fill="#EB5757" fill-opacity="0.4"/>
<path d="M104.56 105.832C104.656 106.504 104.891 107.021 105.264 107.384C105.637 107.747 106.149 107.928 106.8 107.928C107.696 107.928 108.373 107.581 108.832 106.888C109.291 106.195 109.52 105.096 109.52 103.592C109.52 103.304 109.515 103.085 109.504 102.936C109.355 103.576 108.992 104.088 108.416 104.472C107.84 104.856 107.163 105.048 106.384 105.048C105.264 105.048 104.384 104.712 103.744 104.04C103.104 103.368 102.784 102.429 102.784 101.224C102.784 100.52 102.923 99.88 103.2 99.304C103.477 98.728 103.899 98.2747 104.464 97.944C105.04 97.6027 105.749 97.432 106.592 97.432C108.213 97.432 109.323 97.9333 109.92 98.936C110.528 99.928 110.832 101.293 110.832 103.032C110.832 105.016 110.523 106.531 109.904 107.576C109.285 108.611 108.251 109.128 106.8 109.128C105.723 109.128 104.875 108.824 104.256 108.216C103.648 107.597 103.291 106.803 103.184 105.832H104.56ZM109.36 101.448C109.36 100.68 109.131 100.029 108.672 99.496C108.224 98.9627 107.547 98.696 106.64 98.696C105.893 98.696 105.296 98.92 104.848 99.368C104.4 99.816 104.176 100.44 104.176 101.24C104.176 102.093 104.4 102.749 104.848 103.208C105.296 103.667 105.909 103.896 106.688 103.896C107.136 103.896 107.563 103.805 107.968 103.624C108.384 103.443 108.72 103.165 108.976 102.792C109.232 102.419 109.36 101.971 109.36 101.448Z" fill="white"/>
<circle cx="106" cy="117" r="4" fill="#EB5757"/>
<circle opacity="0.1" cx="116" cy="117" r="4" fill="#AFACBC"/>
<circle opacity="0.1" cx="126" cy="117" r="4" fill="#AFACBC"/>
<circle opacity="0.1" cx="106" cy="127" r="4" fill="#AFACBC"/>
<circle opacity="0.1" cx="116" cy="127" r="4" fill="#AFACBC"/>
<circle opacity="0.1" cx="126" cy="127" r="4" fill="#AFACBC"/>
<rect width="46" height="46" transform="translate(147 89)" fill="#6FCF97" fill-opacity="0.4"/>
<path d="M151.208 99.08V97.72H154.44V109H152.904V99.08H151.208ZM156.506 103.288C156.506 105.101 156.804 106.515 157.402 107.528C157.999 108.541 159.034 109.048 160.506 109.048C161.978 109.048 163.012 108.541 163.61 107.528C164.218 106.515 164.522 105.101 164.522 103.288C164.522 101.496 164.218 100.093 163.61 99.08C163.012 98.0667 161.978 97.56 160.506 97.56C159.034 97.56 157.999 98.0667 157.402 99.08C156.804 100.083 156.506 101.485 156.506 103.288ZM163.082 103.288C163.082 104.216 163.012 104.995 162.874 105.624C162.746 106.243 162.495 106.739 162.122 107.112C161.748 107.485 161.21 107.672 160.506 107.672C159.812 107.672 159.279 107.485 158.906 107.112C158.532 106.739 158.276 106.243 158.138 105.624C158.01 104.995 157.946 104.216 157.946 103.288C157.946 102.371 158.01 101.603 158.138 100.984C158.276 100.365 158.532 99.8747 158.906 99.512C159.279 99.1387 159.812 98.952 160.506 98.952C161.21 98.952 161.748 99.1387 162.122 99.512C162.495 99.8747 162.746 100.365 162.874 100.984C163.012 101.603 163.082 102.371 163.082 103.288Z" fill="white"/>
<circle cx="155" cy="117" r="4" fill="#EB5757"/>
<circle opacity="0.1" cx="165" cy="117" r="4" fill="#AFACBC"/>
<circle opacity="0.1" cx="175" cy="117" r="4" fill="#AFACBC"/>
<circle cx="155" cy="127" r="4" fill="#6FCF97"/>
<circle cx="165" cy="127" r="4" fill="#6FCF97"/>
<circle cx="175" cy="127" r="4" fill="#6FCF97"/>
<rect width="46" height="46" transform="translate(196 89)" fill="#EB5757" fill-opacity="0.4"/>
<path d="M200.208 99.08V97.72H203.44V109H201.904V99.08H200.208ZM204.802 99.08V97.72H208.034V109H206.498V99.08H204.802Z" fill="white"/>
<circle cx="204" cy="117" r="4" fill="#EB5757"/>
<circle cx="214" cy="117" r="4" fill="#EB5757"/>
<circle opacity="0.1" cx="224" cy="117" r="4" fill="#AFACBC"/>
<circle cx="204" cy="127" r="4" fill="#6FCF97"/>
<circle opacity="0.1" cx="214" cy="127" r="4" fill="#AFACBC"/>
<circle opacity="0.1" cx="224" cy="127" r="4" fill="#AFACBC"/>
<rect width="46" height="46" transform="translate(245 89)" fill="#6FCF97" fill-opacity="0.4"/>
<path d="M249.208 99.08V97.72H252.44V109H250.904V99.08H249.208ZM254.266 107.88C256.079 106.664 257.53 105.459 258.618 104.264C259.706 103.059 260.25 101.939 260.25 100.904C260.25 100.264 260.084 99.752 259.754 99.368C259.434 98.9733 258.911 98.776 258.186 98.776C257.439 98.776 256.874 99.016 256.49 99.496C256.106 99.9653 255.892 100.616 255.85 101.448H254.41C254.484 100.189 254.874 99.224 255.578 98.552C256.282 97.8693 257.188 97.528 258.298 97.528C259.354 97.528 260.191 97.8107 260.81 98.376C261.428 98.9413 261.738 99.7413 261.738 100.776C261.738 101.629 261.46 102.499 260.906 103.384C260.362 104.259 259.674 105.075 258.842 105.832C258.02 106.579 257.172 107.213 256.298 107.736H262.026V108.936H254.266V107.88Z" fill="white"/>
<circle cx="253" cy="117" r="4" fill="#EB5757"/>
<circle opacity="0.1" cx="263" cy="117" r="4" fill="#AFACBC"/>
<circle opacity="0.1" cx="273" cy="117" r="4" fill="#AFACBC"/>
<circle cx="253" cy="127" r="4" fill="#6FCF97"/>
<circle cx="263" cy="127" r="4" fill="#6FCF97"/>
<circle opacity="0.1" cx="273" cy="127" r="4" fill="#AFACBC"/>
<rect width="46" height="46" transform="translate(294 89)" fill="#979797" fill-opacity="0.17"/>
<path d="M298.208 99.08V97.72H301.44V109H299.904V99.08H298.208ZM307.378 97.416C308.103 97.416 308.727 97.544 309.25 97.8C309.772 98.056 310.167 98.408 310.434 98.856C310.7 99.304 310.834 99.8107 310.834 100.376C310.834 101.08 310.626 101.672 310.21 102.152C309.804 102.632 309.207 102.92 308.418 103.016V103.112C309.239 103.325 309.879 103.656 310.338 104.104C310.807 104.552 311.042 105.171 311.042 105.96C311.042 106.888 310.732 107.645 310.114 108.232C309.495 108.819 308.604 109.112 307.442 109.112C306.279 109.112 305.335 108.813 304.61 108.216C303.895 107.608 303.474 106.723 303.346 105.56H304.786C304.882 106.264 305.148 106.824 305.586 107.24C306.034 107.656 306.636 107.864 307.394 107.864C308.108 107.864 308.658 107.683 309.042 107.32C309.426 106.947 309.618 106.467 309.618 105.88C309.618 105.176 309.34 104.643 308.786 104.28C308.242 103.907 307.463 103.72 306.45 103.72H306.066V102.504H306.45C308.412 102.504 309.394 101.848 309.394 100.536C309.394 99.96 309.212 99.5013 308.85 99.16C308.487 98.8187 307.986 98.648 307.346 98.648C306.706 98.648 306.167 98.8347 305.73 99.208C305.292 99.5707 305.036 100.109 304.962 100.824H303.538C303.612 99.7573 303.98 98.9253 304.642 98.328C305.314 97.72 306.226 97.416 307.378 97.416Z" fill="white"/>
<circle opacity="0.1" cx="302" cy="117" r="4" fill="#AFACBC"/>
<circle opacity="0.1" cx="312" cy="117" r="4" fill="#AFACBC"/>
<circle opacity="0.1" cx="322" cy="117" r="4" fill="#AFACBC"/>
<circle opacity="0.1" cx="302" cy="127" r="4" fill="#AFACBC"/>
<circle opacity="0.1" cx="312" cy="127" r="4" fill="#AFACBC"/>
<circle opacity="0.1" cx="322" cy="127" r="4" fill="#AFACBC"/>
<rect width="46" height="46" transform="translate(0 137)" fill="#979797" fill-opacity="0.17"/>
<path d="M4.208 147.08V145.72H7.44V157H5.904V147.08H4.208ZM9.08975 154.408V153.192L14.8818 145.64H16.4498V153.144H18.1138V154.408H16.4498V157H14.9778V154.408H9.08975ZM15.0738 147.416L10.6258 153.144H15.0738V147.416Z" fill="white"/>
<circle opacity="0.1" cx="8" cy="165" r="4" fill="#AFACBC"/>
<circle opacity="0.1" cx="18" cy="165" r="4" fill="#AFACBC"/>
<circle opacity="0.1" cx="28" cy="165" r="4" fill="#AFACBC"/>
<circle opacity="0.1" cx="8" cy="175" r="4" fill="#AFACBC"/>
<circle opacity="0.1" cx="18" cy="175" r="4" fill="#AFACBC"/>
<circle opacity="0.1" cx="28" cy="175" r="4" fill="#AFACBC"/>
<rect width="46" height="46" transform="translate(49 137)" fill="#EB5757" fill-opacity="0.4"/>
<path d="M53.208 147.08V145.72H56.44V157H54.904V147.08H53.208ZM66.1058 146.872H60.3138V150.648C60.5804 150.285 60.9644 149.997 61.4658 149.784C61.9671 149.571 62.5164 149.464 63.1138 149.464C63.9138 149.464 64.5751 149.635 65.0978 149.976C65.6311 150.307 66.0204 150.749 66.2658 151.304C66.5218 151.848 66.6498 152.456 66.6498 153.128C66.6498 154.291 66.3244 155.24 65.6737 155.976C65.0231 156.712 64.0684 157.08 62.8098 157.08C61.6791 157.08 60.7564 156.776 60.0418 156.168C59.3271 155.549 58.9271 154.723 58.8418 153.688H60.2818C60.3991 154.349 60.6711 154.867 61.0978 155.24C61.5351 155.603 62.0844 155.784 62.7458 155.784C63.5671 155.784 64.1858 155.539 64.6018 155.048C65.0178 154.557 65.2258 153.912 65.2258 153.112C65.2258 152.333 65.0124 151.725 64.5858 151.288C64.1591 150.851 63.5564 150.632 62.7778 150.632C62.2231 150.632 61.7378 150.755 61.3218 151C60.9058 151.235 60.5911 151.555 60.3778 151.96H58.9698V145.576H66.1058V146.872Z" fill="white"/>
<circle cx="57" cy="165" r="4" fill="#EB5757"/>
<circle cx="67" cy="165" r="4" fill="#EB5757"/>
<circle opacity="0.1" cx="77" cy="165" r="4" fill="#AFACBC"/>
<circle opacity="0.1" cx="57" cy="175" r="4" fill="#AFACBC"/>
<circle opacity="0.1" cx="67" cy="175" r="4" fill="#AFACBC"/>
<circle opacity="0.1" cx="77" cy="175" r="4" fill="#AFACBC"/>
<rect width="46" height="46" transform="translate(98 137)" fill="#6FCF97" fill-opacity="0.4"/>
<path d="M102.208 147.08V145.72H105.44V157H103.904V147.08H102.208ZM113.874 148.728C113.788 148.056 113.559 147.539 113.186 147.176C112.823 146.803 112.316 146.616 111.666 146.616C110.759 146.616 110.071 146.968 109.602 147.672C109.143 148.376 108.914 149.491 108.914 151.016L108.93 151.608C109.09 150.968 109.458 150.461 110.034 150.088C110.61 149.704 111.287 149.512 112.066 149.512C113.186 149.512 114.06 149.848 114.69 150.52C115.33 151.192 115.65 152.131 115.65 153.336C115.65 154.04 115.511 154.68 115.234 155.256C114.956 155.821 114.53 156.275 113.954 156.616C113.388 156.947 112.684 157.112 111.842 157.112C110.231 157.112 109.122 156.605 108.514 155.592C107.916 154.579 107.618 153.203 107.618 151.464C107.618 149.459 107.938 147.955 108.578 146.952C109.228 145.939 110.284 145.432 111.746 145.432C112.823 145.432 113.65 145.736 114.226 146.344C114.812 146.952 115.159 147.747 115.266 148.728H113.874ZM109.09 153.096C109.09 153.875 109.314 154.531 109.762 155.064C110.22 155.587 110.903 155.848 111.81 155.848C112.556 155.848 113.154 155.629 113.602 155.192C114.05 154.744 114.274 154.12 114.274 153.32C114.274 152.456 114.05 151.8 113.602 151.352C113.154 150.893 112.535 150.664 111.746 150.664C111.298 150.664 110.871 150.755 110.466 150.936C110.06 151.117 109.73 151.395 109.474 151.768C109.218 152.131 109.09 152.573 109.09 153.096Z" fill="white"/>
<circle opacity="0.1" cx="106" cy="165" r="4" fill="#AFACBC"/>
<circle opacity="0.1" cx="116" cy="165" r="4" fill="#AFACBC"/>
<circle opacity="0.1" cx="126" cy="165" r="4" fill="#AFACBC"/>
<circle cx="106" cy="175" r="4" fill="#6FCF97"/>
<circle cx="116" cy="175" r="4" fill="#6FCF97"/>
<circle opacity="0.1" cx="126" cy="175" r="4" fill="#AFACBC"/>
<rect width="46" height="46" transform="translate(147 137)" fill="#6FCF97" fill-opacity="0.4"/>
<path d="M151.208 147.08V145.72H154.44V157H152.904V147.08H151.208ZM163.21 146.776L158.938 157H157.402L161.738 146.92H155.818V145.656H163.21V146.776Z" fill="white"/>
<circle opacity="0.1" cx="155" cy="165" r="4" fill="#AFACBC"/>
<circle opacity="0.1" cx="165" cy="165" r="4" fill="#AFACBC"/>
<circle opacity="0.1" cx="175" cy="165" r="4" fill="#AFACBC"/>
<circle cx="155" cy="175" r="4" fill="#6FCF97"/>
<circle cx="165" cy="175" r="4" fill="#6FCF97"/>
<circle cx="175" cy="175" r="4" fill="#6FCF97"/>
<rect width="46" height="46" transform="translate(196 137)" fill="#EB5757" fill-opacity="0.4"/>
<path d="M200.208 147.08V145.72H203.44V157H201.904V147.08H200.208ZM205.73 148.376C205.73 147.821 205.879 147.315 206.178 146.856C206.476 146.397 206.919 146.035 207.506 145.768C208.092 145.501 208.791 145.368 209.602 145.368C210.412 145.368 211.106 145.501 211.682 145.768C212.268 146.035 212.711 146.397 213.01 146.856C213.308 147.315 213.458 147.821 213.458 148.376C213.458 149.005 213.287 149.549 212.946 150.008C212.604 150.467 212.087 150.792 211.394 150.984C212.14 151.187 212.722 151.539 213.138 152.04C213.554 152.541 213.762 153.16 213.762 153.896C213.762 154.963 213.383 155.8 212.626 156.408C211.868 157.016 210.86 157.32 209.602 157.32C208.343 157.32 207.335 157.016 206.578 156.408C205.82 155.8 205.442 154.963 205.442 153.896C205.442 153.16 205.644 152.541 206.05 152.04C206.466 151.539 207.047 151.187 207.794 150.984C207.1 150.792 206.583 150.467 206.242 150.008C205.9 149.549 205.73 149.005 205.73 148.376ZM207.17 148.584C207.17 149.224 207.388 149.72 207.826 150.072C208.263 150.413 208.855 150.584 209.602 150.584C210.348 150.584 210.935 150.413 211.362 150.072C211.799 149.72 212.018 149.224 212.018 148.584C212.018 147.944 211.799 147.453 211.362 147.112C210.924 146.76 210.338 146.584 209.602 146.584C208.866 146.584 208.274 146.76 207.826 147.112C207.388 147.453 207.17 147.944 207.17 148.584ZM206.866 153.816C206.866 154.541 207.111 155.107 207.602 155.512C208.092 155.907 208.759 156.104 209.602 156.104C210.434 156.104 211.095 155.901 211.586 155.496C212.076 155.091 212.322 154.531 212.322 153.816C212.322 153.091 212.066 152.541 211.554 152.168C211.042 151.795 210.391 151.608 209.602 151.608C208.802 151.608 208.146 151.795 207.634 152.168C207.122 152.541 206.866 153.091 206.866 153.816Z" fill="white"/>
<circle cx="204" cy="165" r="4" fill="#EB5757"/>
<circle cx="214" cy="165" r="4" fill="#EB5757"/>
<circle opacity="0.1" cx="224" cy="165" r="4" fill="#AFACBC"/>
<circle cx="204" cy="175" r="4" fill="#6FCF97"/>
<circle opacity="0.1" cx="214" cy="175" r="4" fill="#AFACBC"/>
<circle opacity="0.1" cx="224" cy="175" r="4" fill="#AFACBC"/>
<rect width="46" height="46" transform="translate(245 137)" fill="#6FCF97" fill-opacity="0.4"/>
<path d="M249.208 147.08V145.72H252.44V157H250.904V147.08H249.208ZM256.154 153.832C256.25 154.504 256.484 155.021 256.858 155.384C257.231 155.747 257.743 155.928 258.394 155.928C259.29 155.928 259.967 155.581 260.426 154.888C260.884 154.195 261.114 153.096 261.114 151.592C261.114 151.304 261.108 151.085 261.098 150.936C260.948 151.576 260.586 152.088 260.01 152.472C259.434 152.856 258.756 153.048 257.978 153.048C256.858 153.048 255.978 152.712 255.338 152.04C254.698 151.368 254.378 150.429 254.378 149.224C254.378 148.52 254.516 147.88 254.794 147.304C255.071 146.728 255.492 146.275 256.058 145.944C256.634 145.603 257.343 145.432 258.186 145.432C259.807 145.432 260.916 145.933 261.514 146.936C262.122 147.928 262.426 149.293 262.426 151.032C262.426 153.016 262.116 154.531 261.498 155.576C260.879 156.611 259.844 157.128 258.394 157.128C257.316 157.128 256.468 156.824 255.85 156.216C255.242 155.597 254.884 154.803 254.778 153.832H256.154ZM260.954 149.448C260.954 148.68 260.724 148.029 260.266 147.496C259.818 146.963 259.14 146.696 258.234 146.696C257.487 146.696 256.89 146.92 256.442 147.368C255.994 147.816 255.77 148.44 255.77 149.24C255.77 150.093 255.994 150.749 256.442 151.208C256.89 151.667 257.503 151.896 258.282 151.896C258.73 151.896 259.156 151.805 259.562 151.624C259.978 151.443 260.314 151.165 260.57 150.792C260.826 150.419 260.954 149.971 260.954 149.448Z" fill="white"/>
<circle cx="253" cy="165" r="4" fill="#EB5757"/>
<circle opacity="0.1" cx="263" cy="165" r="4" fill="#AFACBC"/>
<circle opacity="0.1" cx="273" cy="165" r="4" fill="#AFACBC"/>
<circle cx="253" cy="175" r="4" fill="#6FCF97"/>
<circle cx="263" cy="175" r="4" fill="#6FCF97"/>
<circle cx="273" cy="175" r="4" fill="#6FCF97"/>
<rect width="46" height="46" transform="translate(294 137)" fill="#979797" fill-opacity="0.17"/>
<path d="M298.672 155.88C300.485 154.664 301.936 153.459 303.024 152.264C304.112 151.059 304.656 149.939 304.656 148.904C304.656 148.264 304.491 147.752 304.16 147.368C303.84 146.973 303.317 146.776 302.592 146.776C301.845 146.776 301.28 147.016 300.896 147.496C300.512 147.965 300.299 148.616 300.256 149.448H298.816C298.891 148.189 299.28 147.224 299.984 146.552C300.688 145.869 301.595 145.528 302.704 145.528C303.76 145.528 304.597 145.811 305.216 146.376C305.835 146.941 306.144 147.741 306.144 148.776C306.144 149.629 305.867 150.499 305.312 151.384C304.768 152.259 304.08 153.075 303.248 153.832C302.427 154.579 301.579 155.213 300.704 155.736H306.432V156.936H298.672V155.88ZM307.99 151.288C307.99 153.101 308.289 154.515 308.886 155.528C309.483 156.541 310.518 157.048 311.99 157.048C313.462 157.048 314.497 156.541 315.094 155.528C315.702 154.515 316.006 153.101 316.006 151.288C316.006 149.496 315.702 148.093 315.094 147.08C314.497 146.067 313.462 145.56 311.99 145.56C310.518 145.56 309.483 146.067 308.886 147.08C308.289 148.083 307.99 149.485 307.99 151.288ZM314.566 151.288C314.566 152.216 314.497 152.995 314.358 153.624C314.23 154.243 313.979 154.739 313.606 155.112C313.233 155.485 312.694 155.672 311.99 155.672C311.297 155.672 310.763 155.485 310.39 155.112C310.017 154.739 309.761 154.243 309.622 153.624C309.494 152.995 309.43 152.216 309.43 151.288C309.43 150.371 309.494 149.603 309.622 148.984C309.761 148.365 310.017 147.875 310.39 147.512C310.763 147.139 311.297 146.952 311.99 146.952C312.694 146.952 313.233 147.139 313.606 147.512C313.979 147.875 314.23 148.365 314.358 148.984C314.497 149.603 314.566 150.371 314.566 151.288Z" fill="white"/>
<circle opacity="0.1" cx="302" cy="165" r="4" fill="#AFACBC"/>
<circle opacity="0.1" cx="312" cy="165" r="4" fill="#AFACBC"/>
<circle opacity="0.1" cx="322" cy="165" r="4" fill="#AFACBC"/>
<circle opacity="0.1" cx="302" cy="175" r="4" fill="#AFACBC"/>
<circle opacity="0.1" cx="312" cy="175" r="4" fill="#AFACBC"/>
<circle opacity="0.1" cx="322" cy="175" r="4" fill="#AFACBC"/>
<rect width="46" height="46" transform="translate(0 185)" fill="#979797" fill-opacity="0.17"/>
<path d="M4.672 203.88C6.48533 202.664 7.936 201.459 9.024 200.264C10.112 199.059 10.656 197.939 10.656 196.904C10.656 196.264 10.4907 195.752 10.16 195.368C9.84 194.973 9.31733 194.776 8.592 194.776C7.84533 194.776 7.28 195.016 6.896 195.496C6.512 195.965 6.29867 196.616 6.256 197.448H4.816C4.89067 196.189 5.28 195.224 5.984 194.552C6.688 193.869 7.59467 193.528 8.704 193.528C9.76 193.528 10.5973 193.811 11.216 194.376C11.8347 194.941 12.144 195.741 12.144 196.776C12.144 197.629 11.8667 198.499 11.312 199.384C10.768 200.259 10.08 201.075 9.248 201.832C8.42667 202.579 7.57867 203.213 6.704 203.736H12.432V204.936H4.672V203.88ZM13.2861 195.08V193.72H16.5181V205H14.9821V195.08H13.2861Z" fill="white"/>
<circle opacity="0.1" cx="8" cy="213" r="4" fill="#AFACBC"/>
<circle opacity="0.1" cx="18" cy="213" r="4" fill="#AFACBC"/>
<circle opacity="0.1" cx="28" cy="213" r="4" fill="#AFACBC"/>
<circle opacity="0.1" cx="8" cy="223" r="4" fill="#AFACBC"/>
<circle opacity="0.1" cx="18" cy="223" r="4" fill="#AFACBC"/>
<circle opacity="0.1" cx="28" cy="223" r="4" fill="#AFACBC"/>
<rect width="46" height="46" transform="translate(49 185)" fill="#6FCF97" fill-opacity="0.4"/>
<path d="M53.672 203.88C55.4853 202.664 56.936 201.459 58.024 200.264C59.112 199.059 59.656 197.939 59.656 196.904C59.656 196.264 59.4907 195.752 59.16 195.368C58.84 194.973 58.3173 194.776 57.592 194.776C56.8453 194.776 56.28 195.016 55.896 195.496C55.512 195.965 55.2987 196.616 55.256 197.448H53.816C53.8907 196.189 54.28 195.224 54.984 194.552C55.688 193.869 56.5947 193.528 57.704 193.528C58.76 193.528 59.5973 193.811 60.216 194.376C60.8347 194.941 61.144 195.741 61.144 196.776C61.144 197.629 60.8667 198.499 60.312 199.384C59.768 200.259 59.08 201.075 58.248 201.832C57.4267 202.579 56.5787 203.213 55.704 203.736H61.432V204.936H53.672V203.88ZM62.7501 203.88C64.5635 202.664 66.0141 201.459 67.1021 200.264C68.1901 199.059 68.7341 197.939 68.7341 196.904C68.7341 196.264 68.5688 195.752 68.2381 195.368C67.9181 194.973 67.3955 194.776 66.6701 194.776C65.9235 194.776 65.3581 195.016 64.9741 195.496C64.5901 195.965 64.3768 196.616 64.3341 197.448H62.8941C62.9688 196.189 63.3581 195.224 64.0621 194.552C64.7661 193.869 65.6728 193.528 66.7821 193.528C67.8381 193.528 68.6755 193.811 69.2941 194.376C69.9128 194.941 70.2221 195.741 70.2221 196.776C70.2221 197.629 69.9448 198.499 69.3901 199.384C68.8461 200.259 68.1581 201.075 67.3261 201.832C66.5048 202.579 65.6568 203.213 64.7821 203.736H70.5101V204.936H62.7501V203.88Z" fill="white"/>
<circle cx="57" cy="213" r="4" fill="#EB5757"/>
<circle opacity="0.1" cx="67" cy="213" r="4" fill="#AFACBC"/>
<circle opacity="0.1" cx="77" cy="213" r="4" fill="#AFACBC"/>
<circle cx="57" cy="223" r="4" fill="#6FCF97"/>
<circle cx="67" cy="223" r="4" fill="#6FCF97"/>
<circle opacity="0.1" cx="77" cy="223" r="4" fill="#AFACBC"/>
<rect width="46" height="46" transform="translate(98 185)" fill="#EB5757" fill-opacity="0.4"/>
<path d="M102.672 203.88C104.485 202.664 105.936 201.459 107.024 200.264C108.112 199.059 108.656 197.939 108.656 196.904C108.656 196.264 108.491 195.752 108.16 195.368C107.84 194.973 107.317 194.776 106.592 194.776C105.845 194.776 105.28 195.016 104.896 195.496C104.512 195.965 104.299 196.616 104.256 197.448H102.816C102.891 196.189 103.28 195.224 103.984 194.552C104.688 193.869 105.595 193.528 106.704 193.528C107.76 193.528 108.597 193.811 109.216 194.376C109.835 194.941 110.144 195.741 110.144 196.776C110.144 197.629 109.867 198.499 109.312 199.384C108.768 200.259 108.08 201.075 107.248 201.832C106.427 202.579 105.579 203.213 104.704 203.736H110.432V204.936H102.672V203.88ZM115.862 193.416C116.587 193.416 117.211 193.544 117.734 193.8C118.257 194.056 118.651 194.408 118.918 194.856C119.185 195.304 119.318 195.811 119.318 196.376C119.318 197.08 119.11 197.672 118.694 198.152C118.289 198.632 117.691 198.92 116.902 199.016V199.112C117.723 199.325 118.363 199.656 118.822 200.104C119.291 200.552 119.526 201.171 119.526 201.96C119.526 202.888 119.217 203.645 118.598 204.232C117.979 204.819 117.089 205.112 115.926 205.112C114.763 205.112 113.819 204.813 113.094 204.216C112.379 203.608 111.958 202.723 111.83 201.56H113.27C113.366 202.264 113.633 202.824 114.07 203.24C114.518 203.656 115.121 203.864 115.878 203.864C116.593 203.864 117.142 203.683 117.526 203.32C117.91 202.947 118.102 202.467 118.102 201.88C118.102 201.176 117.825 200.643 117.27 200.28C116.726 199.907 115.947 199.72 114.934 199.72H114.55V198.504H114.934C116.897 198.504 117.878 197.848 117.878 196.536C117.878 195.96 117.697 195.501 117.334 195.16C116.971 194.819 116.47 194.648 115.83 194.648C115.19 194.648 114.651 194.835 114.214 195.208C113.777 195.571 113.521 196.109 113.446 196.824H112.022C112.097 195.757 112.465 194.925 113.126 194.328C113.798 193.72 114.71 193.416 115.862 193.416Z" fill="white"/>
<circle cx="106" cy="213" r="4" fill="#EB5757"/>
<circle cx="116" cy="213" r="4" fill="#EB5757"/>
<circle cx="126" cy="213" r="4" fill="#EB5757"/>
<circle cx="106" cy="223" r="4" fill="#6FCF97"/>
<circle opacity="0.1" cx="116" cy="223" r="4" fill="#AFACBC"/>
<circle opacity="0.1" cx="126" cy="223" r="4" fill="#AFACBC"/>
<rect width="46" height="46" transform="translate(147 185)" fill="#6FCF97" fill-opacity="0.4"/>
<path d="M151.672 203.88C153.485 202.664 154.936 201.459 156.024 200.264C157.112 199.059 157.656 197.939 157.656 196.904C157.656 196.264 157.491 195.752 157.16 195.368C156.84 194.973 156.317 194.776 155.592 194.776C154.845 194.776 154.28 195.016 153.896 195.496C153.512 195.965 153.299 196.616 153.256 197.448H151.816C151.891 196.189 152.28 195.224 152.984 194.552C153.688 193.869 154.595 193.528 155.704 193.528C156.76 193.528 157.597 193.811 158.216 194.376C158.835 194.941 159.144 195.741 159.144 196.776C159.144 197.629 158.867 198.499 158.312 199.384C157.768 200.259 157.08 201.075 156.248 201.832C155.427 202.579 154.579 203.213 153.704 203.736H159.432V204.936H151.672V203.88ZM160.574 202.408V201.192L166.366 193.64H167.934V201.144H169.598V202.408H167.934V205H166.462V202.408H160.574ZM166.558 195.416L162.11 201.144H166.558V195.416Z" fill="white"/>
<circle cx="155" cy="213" r="4" fill="#EB5757"/>
<circle opacity="0.1" cx="165" cy="213" r="4" fill="#AFACBC"/>
<circle opacity="0.1" cx="175" cy="213" r="4" fill="#AFACBC"/>
<circle cx="155" cy="223" r="4" fill="#6FCF97"/>
<circle cx="165" cy="223" r="4" fill="#6FCF97"/>
<circle cx="175" cy="223" r="4" fill="#6FCF97"/>
<rect width="46" height="46" transform="translate(196 185)" fill="#6FCF97" fill-opacity="0.4"/>
<path d="M200.672 203.88C202.485 202.664 203.936 201.459 205.024 200.264C206.112 199.059 206.656 197.939 206.656 196.904C206.656 196.264 206.491 195.752 206.16 195.368C205.84 194.973 205.317 194.776 204.592 194.776C203.845 194.776 203.28 195.016 202.896 195.496C202.512 195.965 202.299 196.616 202.256 197.448H200.816C200.891 196.189 201.28 195.224 201.984 194.552C202.688 193.869 203.595 193.528 204.704 193.528C205.76 193.528 206.597 193.811 207.216 194.376C207.835 194.941 208.144 195.741 208.144 196.776C208.144 197.629 207.867 198.499 207.312 199.384C206.768 200.259 206.08 201.075 205.248 201.832C204.427 202.579 203.579 203.213 202.704 203.736H208.432V204.936H200.672V203.88ZM217.59 194.872H211.798V198.648C212.065 198.285 212.449 197.997 212.95 197.784C213.451 197.571 214.001 197.464 214.598 197.464C215.398 197.464 216.059 197.635 216.582 197.976C217.115 198.307 217.505 198.749 217.75 199.304C218.006 199.848 218.134 200.456 218.134 201.128C218.134 202.291 217.809 203.24 217.158 203.976C216.507 204.712 215.553 205.08 214.294 205.08C213.163 205.08 212.241 204.776 211.526 204.168C210.811 203.549 210.411 202.723 210.326 201.688H211.766C211.883 202.349 212.155 202.867 212.582 203.24C213.019 203.603 213.569 203.784 214.23 203.784C215.051 203.784 215.67 203.539 216.086 203.048C216.502 202.557 216.71 201.912 216.71 201.112C216.71 200.333 216.497 199.725 216.07 199.288C215.643 198.851 215.041 198.632 214.262 198.632C213.707 198.632 213.222 198.755 212.806 199C212.39 199.235 212.075 199.555 211.862 199.96H210.454V193.576H217.59V194.872Z" fill="white"/>
<circle cx="204" cy="213" r="4" fill="#EB5757"/>
<circle opacity="0.1" cx="214" cy="213" r="4" fill="#AFACBC"/>
<circle opacity="0.1" cx="224" cy="213" r="4" fill="#AFACBC"/>
<circle cx="204" cy="223" r="4" fill="#6FCF97"/>
<circle cx="214" cy="223" r="4" fill="#6FCF97"/>
<circle cx="224" cy="223" r="4" fill="#6FCF97"/>
<rect width="46" height="46" transform="translate(245 185)" fill="#6FCF97" fill-opacity="0.4"/>
<path d="M249.672 203.88C251.485 202.664 252.936 201.459 254.024 200.264C255.112 199.059 255.656 197.939 255.656 196.904C255.656 196.264 255.491 195.752 255.16 195.368C254.84 194.973 254.317 194.776 253.592 194.776C252.845 194.776 252.28 195.016 251.896 195.496C251.512 195.965 251.299 196.616 251.256 197.448H249.816C249.891 196.189 250.28 195.224 250.984 194.552C251.688 193.869 252.595 193.528 253.704 193.528C254.76 193.528 255.597 193.811 256.216 194.376C256.835 194.941 257.144 195.741 257.144 196.776C257.144 197.629 256.867 198.499 256.312 199.384C255.768 200.259 255.08 201.075 254.248 201.832C253.427 202.579 252.579 203.213 251.704 203.736H257.432V204.936H249.672V203.88ZM265.358 196.728C265.273 196.056 265.043 195.539 264.67 195.176C264.307 194.803 263.801 194.616 263.15 194.616C262.243 194.616 261.555 194.968 261.086 195.672C260.627 196.376 260.398 197.491 260.398 199.016L260.414 199.608C260.574 198.968 260.942 198.461 261.518 198.088C262.094 197.704 262.771 197.512 263.55 197.512C264.67 197.512 265.545 197.848 266.174 198.52C266.814 199.192 267.134 200.131 267.134 201.336C267.134 202.04 266.995 202.68 266.718 203.256C266.441 203.821 266.014 204.275 265.438 204.616C264.873 204.947 264.169 205.112 263.326 205.112C261.715 205.112 260.606 204.605 259.998 203.592C259.401 202.579 259.102 201.203 259.102 199.464C259.102 197.459 259.422 195.955 260.062 194.952C260.713 193.939 261.769 193.432 263.23 193.432C264.307 193.432 265.134 193.736 265.71 194.344C266.297 194.952 266.643 195.747 266.75 196.728H265.358ZM260.574 201.096C260.574 201.875 260.798 202.531 261.246 203.064C261.705 203.587 262.387 203.848 263.294 203.848C264.041 203.848 264.638 203.629 265.086 203.192C265.534 202.744 265.758 202.12 265.758 201.32C265.758 200.456 265.534 199.8 265.086 199.352C264.638 198.893 264.019 198.664 263.23 198.664C262.782 198.664 262.355 198.755 261.95 198.936C261.545 199.117 261.214 199.395 260.958 199.768C260.702 200.131 260.574 200.573 260.574 201.096Z" fill="white"/>
<circle cx="253" cy="213" r="4" fill="#EB5757"/>
<circle opacity="0.1" cx="263" cy="213" r="4" fill="#AFACBC"/>
<circle opacity="0.1" cx="273" cy="213" r="4" fill="#AFACBC"/>
<circle cx="253" cy="223" r="4" fill="#6FCF97"/>
<circle cx="263" cy="223" r="4" fill="#6FCF97"/>
<circle opacity="0.1" cx="273" cy="223" r="4" fill="#AFACBC"/>
<rect width="46" height="46" transform="translate(294 185)" fill="#979797" fill-opacity="0.17"/>
<path d="M298.672 203.88C300.485 202.664 301.936 201.459 303.024 200.264C304.112 199.059 304.656 197.939 304.656 196.904C304.656 196.264 304.491 195.752 304.16 195.368C303.84 194.973 303.317 194.776 302.592 194.776C301.845 194.776 301.28 195.016 300.896 195.496C300.512 195.965 300.299 196.616 300.256 197.448H298.816C298.891 196.189 299.28 195.224 299.984 194.552C300.688 193.869 301.595 193.528 302.704 193.528C303.76 193.528 304.597 193.811 305.216 194.376C305.835 194.941 306.144 195.741 306.144 196.776C306.144 197.629 305.867 198.499 305.312 199.384C304.768 200.259 304.08 201.075 303.248 201.832C302.427 202.579 301.579 203.213 300.704 203.736H306.432V204.936H298.672V203.88ZM314.694 194.776L310.422 205H308.886L313.222 194.92H307.302V193.656H314.694V194.776Z" fill="white"/>
<circle opacity="0.1" cx="302" cy="213" r="4" fill="#AFACBC"/>
<circle opacity="0.1" cx="312" cy="213" r="4" fill="#AFACBC"/>
<circle opacity="0.1" cx="322" cy="213" r="4" fill="#AFACBC"/>
<circle opacity="0.1" cx="302" cy="223" r="4" fill="#AFACBC"/>
<circle opacity="0.1" cx="312" cy="223" r="4" fill="#AFACBC"/>
<circle opacity="0.1" cx="322" cy="223" r="4" fill="#AFACBC"/>
<rect width="46" height="46" transform="translate(0 233)" fill="#979797" fill-opacity="0.17"/>
<path d="M4.672 251.88C6.48533 250.664 7.936 249.459 9.024 248.264C10.112 247.059 10.656 245.939 10.656 244.904C10.656 244.264 10.4907 243.752 10.16 243.368C9.84 242.973 9.31733 242.776 8.592 242.776C7.84533 242.776 7.28 243.016 6.896 243.496C6.512 243.965 6.29867 244.616 6.256 245.448H4.816C4.89067 244.189 5.28 243.224 5.984 242.552C6.688 241.869 7.59467 241.528 8.704 241.528C9.76 241.528 10.5973 241.811 11.216 242.376C11.8347 242.941 12.144 243.741 12.144 244.776C12.144 245.629 11.8667 246.499 11.312 247.384C10.768 248.259 10.08 249.075 9.248 249.832C8.42667 250.579 7.57867 251.213 6.704 251.736H12.432V252.936H4.672V251.88ZM14.2141 244.376C14.2141 243.821 14.3635 243.315 14.6621 242.856C14.9608 242.397 15.4035 242.035 15.9901 241.768C16.5768 241.501 17.2755 241.368 18.0861 241.368C18.8968 241.368 19.5901 241.501 20.1661 241.768C20.7528 242.035 21.1955 242.397 21.4941 242.856C21.7928 243.315 21.9421 243.821 21.9421 244.376C21.9421 245.005 21.7715 245.549 21.4301 246.008C21.0888 246.467 20.5715 246.792 19.8781 246.984C20.6248 247.187 21.2061 247.539 21.6221 248.04C22.0381 248.541 22.2461 249.16 22.2461 249.896C22.2461 250.963 21.8675 251.8 21.1101 252.408C20.3528 253.016 19.3448 253.32 18.0861 253.32C16.8275 253.32 15.8195 253.016 15.0621 252.408C14.3048 251.8 13.9261 250.963 13.9261 249.896C13.9261 249.16 14.1288 248.541 14.5341 248.04C14.9501 247.539 15.5315 247.187 16.2781 246.984C15.5848 246.792 15.0675 246.467 14.7261 246.008C14.3848 245.549 14.2141 245.005 14.2141 244.376ZM15.6541 244.584C15.6541 245.224 15.8728 245.72 16.3101 246.072C16.7475 246.413 17.3395 246.584 18.0861 246.584C18.8328 246.584 19.4195 246.413 19.8461 246.072C20.2835 245.72 20.5021 245.224 20.5021 244.584C20.5021 243.944 20.2835 243.453 19.8461 243.112C19.4088 242.76 18.8221 242.584 18.0861 242.584C17.3501 242.584 16.7581 242.76 16.3101 243.112C15.8728 243.453 15.6541 243.944 15.6541 244.584ZM15.3501 249.816C15.3501 250.541 15.5955 251.107 16.0861 251.512C16.5768 251.907 17.2435 252.104 18.0861 252.104C18.9181 252.104 19.5795 251.901 20.0701 251.496C20.5608 251.091 20.8061 250.531 20.8061 249.816C20.8061 249.091 20.5501 248.541 20.0381 248.168C19.5261 247.795 18.8755 247.608 18.0861 247.608C17.2861 247.608 16.6301 247.795 16.1181 248.168C15.6061 248.541 15.3501 249.091 15.3501 249.816Z" fill="white"/>
<circle opacity="0.1" cx="8" cy="261" r="4" fill="#AFACBC"/>
<circle opacity="0.1" cx="18" cy="261" r="4" fill="#AFACBC"/>
<circle opacity="0.1" cx="28" cy="261" r="4" fill="#AFACBC"/>
<circle opacity="0.1" cx="8" cy="271" r="4" fill="#AFACBC"/>
<circle opacity="0.1" cx="18" cy="271" r="4" fill="#AFACBC"/>
<circle opacity="0.1" cx="28" cy="271" r="4" fill="#AFACBC"/>
<rect width="46" height="46" transform="translate(49 233)" fill="#6FCF97" fill-opacity="0.4"/>
<path d="M53.672 251.88C55.4853 250.664 56.936 249.459 58.024 248.264C59.112 247.059 59.656 245.939 59.656 244.904C59.656 244.264 59.4907 243.752 59.16 243.368C58.84 242.973 58.3173 242.776 57.592 242.776C56.8453 242.776 56.28 243.016 55.896 243.496C55.512 243.965 55.2987 244.616 55.256 245.448H53.816C53.8907 244.189 54.28 243.224 54.984 242.552C55.688 241.869 56.5947 241.528 57.704 241.528C58.76 241.528 59.5973 241.811 60.216 242.376C60.8347 242.941 61.144 243.741 61.144 244.776C61.144 245.629 60.8667 246.499 60.312 247.384C59.768 248.259 59.08 249.075 58.248 249.832C57.4267 250.579 56.5787 251.213 55.704 251.736H61.432V252.936H53.672V251.88ZM64.6381 249.832C64.7341 250.504 64.9688 251.021 65.3421 251.384C65.7155 251.747 66.2275 251.928 66.8781 251.928C67.7741 251.928 68.4515 251.581 68.9101 250.888C69.3688 250.195 69.5981 249.096 69.5981 247.592C69.5981 247.304 69.5928 247.085 69.5821 246.936C69.4328 247.576 69.0701 248.088 68.4941 248.472C67.9181 248.856 67.2408 249.048 66.4621 249.048C65.3421 249.048 64.4621 248.712 63.8221 248.04C63.1821 247.368 62.8621 246.429 62.8621 245.224C62.8621 244.52 63.0008 243.88 63.2781 243.304C63.5555 242.728 63.9768 242.275 64.5421 241.944C65.1181 241.603 65.8275 241.432 66.6701 241.432C68.2915 241.432 69.4008 241.933 69.9981 242.936C70.6061 243.928 70.9101 245.293 70.9101 247.032C70.9101 249.016 70.6008 250.531 69.9821 251.576C69.3635 252.611 68.3288 253.128 66.8781 253.128C65.8008 253.128 64.9528 252.824 64.3341 252.216C63.7261 251.597 63.3688 250.803 63.2621 249.832H64.6381ZM69.4381 245.448C69.4381 244.68 69.2088 244.029 68.7501 243.496C68.3021 242.963 67.6248 242.696 66.7181 242.696C65.9715 242.696 65.3741 242.92 64.9261 243.368C64.4781 243.816 64.2541 244.44 64.2541 245.24C64.2541 246.093 64.4781 246.749 64.9261 247.208C65.3741 247.667 65.9875 247.896 66.7661 247.896C67.2141 247.896 67.6408 247.805 68.0461 247.624C68.4621 247.443 68.7981 247.165 69.0541 246.792C69.3101 246.419 69.4381 245.971 69.4381 245.448Z" fill="white"/>
<circle opacity="0.1" cx="57" cy="261" r="4" fill="#AFACBC"/>
<circle opacity="0.1" cx="67" cy="261" r="4" fill="#AFACBC"/>
<circle opacity="0.1" cx="77" cy="261" r="4" fill="#AFACBC"/>
<circle cx="57" cy="271" r="4" fill="#6FCF97"/>
<circle cx="67" cy="271" r="4" fill="#6FCF97"/>
<circle opacity="0.1" cx="77" cy="271" r="4" fill="#AFACBC"/>
<rect width="46" height="46" transform="translate(98 233)" fill="#EB5757" fill-opacity="0.4"/>
<path d="M106.784 241.416C107.509 241.416 108.133 241.544 108.656 241.8C109.179 242.056 109.573 242.408 109.84 242.856C110.107 243.304 110.24 243.811 110.24 244.376C110.24 245.08 110.032 245.672 109.616 246.152C109.211 246.632 108.613 246.92 107.824 247.016V247.112C108.645 247.325 109.285 247.656 109.744 248.104C110.213 248.552 110.448 249.171 110.448 249.96C110.448 250.888 110.139 251.645 109.52 252.232C108.901 252.819 108.011 253.112 106.848 253.112C105.685 253.112 104.741 252.813 104.016 252.216C103.301 251.608 102.88 250.723 102.752 249.56H104.192C104.288 250.264 104.555 250.824 104.992 251.24C105.44 251.656 106.043 251.864 106.8 251.864C107.515 251.864 108.064 251.683 108.448 251.32C108.832 250.947 109.024 250.467 109.024 249.88C109.024 249.176 108.747 248.643 108.192 248.28C107.648 247.907 106.869 247.72 105.856 247.72H105.472V246.504H105.856C107.819 246.504 108.8 245.848 108.8 244.536C108.8 243.96 108.619 243.501 108.256 243.16C107.893 242.819 107.392 242.648 106.752 242.648C106.112 242.648 105.573 242.835 105.136 243.208C104.699 243.571 104.443 244.109 104.368 244.824H102.944C103.019 243.757 103.387 242.925 104.048 242.328C104.72 241.72 105.632 241.416 106.784 241.416ZM112.334 247.288C112.334 249.101 112.633 250.515 113.23 251.528C113.827 252.541 114.862 253.048 116.334 253.048C117.806 253.048 118.841 252.541 119.438 251.528C120.046 250.515 120.35 249.101 120.35 247.288C120.35 245.496 120.046 244.093 119.438 243.08C118.841 242.067 117.806 241.56 116.334 241.56C114.862 241.56 113.827 242.067 113.23 243.08C112.633 244.083 112.334 245.485 112.334 247.288ZM118.91 247.288C118.91 248.216 118.841 248.995 118.702 249.624C118.574 250.243 118.323 250.739 117.95 251.112C117.577 251.485 117.038 251.672 116.334 251.672C115.641 251.672 115.107 251.485 114.734 251.112C114.361 250.739 114.105 250.243 113.966 249.624C113.838 248.995 113.774 248.216 113.774 247.288C113.774 246.371 113.838 245.603 113.966 244.984C114.105 244.365 114.361 243.875 114.734 243.512C115.107 243.139 115.641 242.952 116.334 242.952C117.038 242.952 117.577 243.139 117.95 243.512C118.323 243.875 118.574 244.365 118.702 244.984C118.841 245.603 118.91 246.371 118.91 247.288Z" fill="white"/>
<circle cx="106" cy="261" r="4" fill="#EB5757"/>
<circle cx="116" cy="261" r="4" fill="#EB5757"/>
<circle cx="126" cy="261" r="4" fill="#EB5757"/>
<circle opacity="0.1" cx="106" cy="271" r="4" fill="#AFACBC"/>
<circle opacity="0.1" cx="116" cy="271" r="4" fill="#AFACBC"/>
<circle opacity="0.1" cx="126" cy="271" r="4" fill="#AFACBC"/>
<path d="M306.151 18.5117C306.233 20.1748 307.623 21.2285 309.724 21.2285C311.946 21.2285 313.324 20.1177 313.324 18.334C313.324 16.9375 312.543 16.1631 310.683 15.7441L309.629 15.5029C308.493 15.2427 308.03 14.8809 308.03 14.2651C308.03 13.4844 308.728 12.9766 309.782 12.9766C310.785 12.9766 311.495 13.4844 311.61 14.2905H313.178C313.101 12.7163 311.711 11.6118 309.788 11.6118C307.738 11.6118 306.379 12.7163 306.379 14.3794C306.379 15.7441 307.16 16.5693 308.823 16.9438L310.01 17.2168C311.184 17.4897 311.686 17.877 311.686 18.5371C311.686 19.3052 310.905 19.8574 309.826 19.8574C308.664 19.8574 307.852 19.3306 307.75 18.5117H306.151ZM320.996 21H322.754L319.498 11.8403H317.657L314.407 21H316.064L316.851 18.6577H320.222L320.996 21ZM318.489 13.5859H318.597L319.841 17.3628H317.232L318.489 13.5859ZM327.151 21V13.2559H329.976V11.8403H322.695V13.2559H325.514V21H327.151Z" fill="#EBEBF5" fill-opacity="0.3"/>
<path d="M263.151 21V17.2866H266.992V15.9219H263.151V13.2559H267.353V11.8403H261.514V21H263.151ZM270.729 13.1987H272.582C273.623 13.1987 274.258 13.7827 274.258 14.7349C274.258 15.7061 273.661 16.2646 272.62 16.2646H270.729V13.1987ZM270.729 17.5659H272.544L274.34 21H276.213L274.213 17.312C275.305 16.9185 275.94 15.9092 275.94 14.7031C275.94 12.9448 274.734 11.8403 272.811 11.8403H269.091V21H270.729V17.5659ZM279.486 21V11.8403H277.849V21H279.486Z" fill="#EBEBF5" fill-opacity="0.3"/>
<path d="M209.514 21V13.2559H212.338V11.8403H205.057V13.2559H207.876V21H209.514ZM221.699 21V11.8403H220.068V15.6299H215.612V11.8403H213.974V21H215.612V17.0454H220.068V21H221.699ZM225.519 11.8403H223.881V17.8452C223.881 19.8447 225.328 21.2285 227.645 21.2285C229.962 21.2285 231.409 19.8447 231.409 17.8452V11.8403H229.772V17.6929C229.772 18.9307 229.004 19.7622 227.645 19.7622C226.287 19.7622 225.519 18.9307 225.519 17.6929V11.8403Z" fill="#EBEBF5" fill-opacity="0.3"/>
<path d="M162.736 14.5127H162.831L164.697 21H166.233L168.69 11.8403H166.995L165.427 18.6577H165.338L163.51 11.8403H162.057L160.254 18.6577H160.159L158.591 11.8403H156.883L159.34 21H160.882L162.736 14.5127ZM176.229 19.5845H171.938V17.02H175.994V15.687H171.938V13.2559H176.229V11.8403H170.3V21H176.229V19.5845ZM178.182 11.8403V21H181.616C184.359 21 185.926 19.3179 185.926 16.3789C185.926 13.5034 184.339 11.8403 181.616 11.8403H178.182ZM179.82 13.2559H181.401C183.197 13.2559 184.257 14.4048 184.257 16.4043C184.257 18.4482 183.222 19.5845 181.401 19.5845H179.82V13.2559Z" fill="#EBEBF5" fill-opacity="0.3"/>
<path d="M113.529 21V13.2559H116.354V11.8403H109.073V13.2559H111.891V21H113.529ZM119.621 11.8403H117.983V17.8452C117.983 19.8447 119.431 21.2285 121.748 21.2285C124.064 21.2285 125.512 19.8447 125.512 17.8452V11.8403H123.874V17.6929C123.874 18.9307 123.106 19.7622 121.748 19.7622C120.389 19.7622 119.621 18.9307 119.621 17.6929V11.8403ZM133.616 19.5845H129.325V17.02H133.381V15.687H129.325V13.2559H133.616V11.8403H127.687V21H133.616V19.5845Z" fill="#EBEBF5" fill-opacity="0.3"/>
<path d="M67.7968 21V11.8403H65.8798L63.1249 18.5562H63.0106L60.2557 11.8403H58.3387V21H59.8622V14.5571H59.951L62.4838 20.6826H63.6517L66.1844 14.5571H66.2733V21H67.7968ZM73.9268 11.6118C71.2671 11.6118 69.5913 13.459 69.5913 16.417C69.5913 19.375 71.2417 21.2285 73.9268 21.2285C76.5991 21.2285 78.2559 19.3687 78.2559 16.417C78.2559 13.459 76.5928 11.6118 73.9268 11.6118ZM73.9268 13.0654C75.5518 13.0654 76.5864 14.3667 76.5864 16.417C76.5864 18.4609 75.5581 19.7749 73.9268 19.7749C72.2764 19.7749 71.2671 18.4609 71.2671 16.417C71.2671 14.3667 72.3018 13.0654 73.9268 13.0654ZM81.6373 21V14.7666H81.7452L86.2394 21H87.6549V11.8403H86.0807V18.0674H85.9728L81.4786 11.8403H80.0568V21H81.6373Z" fill="#EBEBF5" fill-opacity="0.3"/>
<path d="M10.1718 18.5117C10.2543 20.1748 11.6444 21.2285 13.7455 21.2285C15.9672 21.2285 17.3446 20.1177 17.3446 18.334C17.3446 16.9375 16.5638 16.1631 14.704 15.7441L13.6503 15.5029C12.514 15.2427 12.0507 14.8809 12.0507 14.2651C12.0507 13.4844 12.7489 12.9766 13.8026 12.9766C14.8055 12.9766 15.5165 13.4844 15.6307 14.2905H17.1986C17.1224 12.7163 15.7323 11.6118 13.809 11.6118C11.7587 11.6118 10.4003 12.7163 10.4003 14.3794C10.4003 15.7441 11.181 16.5693 12.8441 16.9438L14.0311 17.2168C15.2054 17.4897 15.7069 17.877 15.7069 18.5371C15.7069 19.3052 14.9261 19.8574 13.847 19.8574C12.6854 19.8574 11.8729 19.3306 11.7714 18.5117H10.1718ZM20.7388 11.8403H19.1011V17.8452C19.1011 19.8447 20.5483 21.2285 22.8652 21.2285C25.1821 21.2285 26.6294 19.8447 26.6294 17.8452V11.8403H24.9917V17.6929C24.9917 18.9307 24.2236 19.7622 22.8652 19.7622C21.5068 19.7622 20.7388 18.9307 20.7388 17.6929V11.8403ZM30.3854 21V14.7666H30.4933L34.9874 21H36.403V11.8403H34.8287V18.0674H34.7208L30.2267 11.8403H28.8048V21H30.3854Z" fill="#EBEBF5" fill-opacity="0.3"/>
</svg>
